<svg width="50" height="50" viewBox="0 0 50 50" fill="none" xmlns="http://www.w3.org/2000/svg">
<path d="M10.1662 31C10.0462 31 9.94424 30.964 9.86024 30.892C9.78824 30.808 9.75224 30.706 9.75224 30.586V20.506L6.76424 22.81C6.66824 22.882 6.56624 22.912 6.45824 22.9C6.35024 22.888 6.26024 22.834 6.18824 22.738L5.72024 22.144C5.64824 22.036 5.61824 21.928 5.63024 21.82C5.65424 21.712 5.71424 21.622 5.81024 21.55L9.73424 18.526C9.81824 18.466 9.89624 18.43 9.96824 18.418C10.0402 18.406 10.1182 18.4 10.2022 18.4H11.1202C11.2402 18.4 11.3362 18.442 11.4082 18.526C11.4922 18.598 11.5342 18.694 11.5342 18.814V30.586C11.5342 30.706 11.4922 30.808 11.4082 30.892C11.3362 30.964 11.2402 31 11.1202 31H10.1662ZM16.3715 31C16.2635 31 16.1735 30.964 16.1015 30.892C16.0415 30.808 16.0115 30.712 16.0115 30.604C16.0115 30.544 16.0175 30.496 16.0295 30.46C16.0535 30.424 16.0715 30.394 16.0835 30.37L18.8375 26.536C18.5375 26.608 18.2135 26.644 17.8655 26.644C17.2055 26.632 16.6055 26.512 16.0655 26.284C15.5375 26.056 15.0875 25.75 14.7155 25.366C14.3435 24.97 14.0615 24.526 13.8695 24.034C13.6775 23.542 13.5815 23.026 13.5815 22.486C13.5815 21.958 13.6715 21.442 13.8515 20.938C14.0435 20.434 14.3255 19.978 14.6975 19.57C15.0815 19.162 15.5555 18.838 16.1195 18.598C16.6955 18.346 17.3615 18.22 18.1175 18.22C18.8735 18.22 19.5335 18.34 20.0975 18.58C20.6735 18.808 21.1535 19.126 21.5375 19.534C21.9335 19.93 22.2215 20.38 22.4015 20.884C22.5935 21.388 22.6895 21.91 22.6895 22.45C22.6895 22.942 22.6175 23.392 22.4735 23.8C22.3295 24.208 22.1555 24.574 21.9515 24.898C21.7595 25.222 21.5735 25.522 21.3935 25.798L17.9195 30.64C17.8715 30.7 17.8055 30.778 17.7215 30.874C17.6375 30.958 17.5115 31 17.3435 31H16.3715ZM18.1175 25.186C18.6215 25.186 19.0835 25.078 19.5035 24.862C19.9355 24.634 20.2775 24.322 20.5295 23.926C20.7815 23.518 20.9075 23.032 20.9075 22.468C20.9075 21.904 20.7815 21.424 20.5295 21.028C20.2775 20.62 19.9355 20.308 19.5035 20.092C19.0835 19.864 18.6215 19.75 18.1175 19.75C17.6255 19.75 17.1695 19.864 16.7495 20.092C16.3295 20.308 15.9935 20.62 15.7415 21.028C15.4895 21.424 15.3635 21.904 15.3635 22.468C15.3635 23.032 15.4895 23.518 15.7415 23.926C15.9935 24.322 16.3295 24.634 16.7495 24.862C17.1695 25.078 17.6255 25.186 18.1175 25.186ZM27.0414 31C26.9334 31 26.8434 30.964 26.7714 30.892C26.7114 30.808 26.6814 30.712 26.6814 30.604C26.6814 30.544 26.6874 30.496 26.6994 30.46C26.7234 30.424 26.7414 30.394 26.7534 30.37L29.5074 26.536C29.2074 26.608 28.8834 26.644 28.5354 26.644C27.8754 26.632 27.2754 26.512 26.7354 26.284C26.2074 26.056 25.7574 25.75 25.3854 25.366C25.0134 24.97 24.7314 24.526 24.5394 24.034C24.3474 23.542 24.2514 23.026 24.2514 22.486C24.2514 21.958 24.3414 21.442 24.5214 20.938C24.7134 20.434 24.9954 19.978 25.3674 19.57C25.7514 19.162 26.2254 18.838 26.7894 18.598C27.3654 18.346 28.0314 18.22 28.7874 18.22C29.5434 18.22 30.2034 18.34 30.7674 18.58C31.3434 18.808 31.8234 19.126 32.2074 19.534C32.6034 19.93 32.8914 20.38 33.0714 20.884C33.2634 21.388 33.3594 21.91 33.3594 22.45C33.3594 22.942 33.2874 23.392 33.1434 23.8C32.9994 24.208 32.8254 24.574 32.6214 24.898C32.4294 25.222 32.2434 25.522 32.0634 25.798L28.5894 30.64C28.5414 30.7 28.4754 30.778 28.3914 30.874C28.3074 30.958 28.1814 31 28.0134 31H27.0414ZM28.7874 25.186C29.2914 25.186 29.7534 25.078 30.1734 24.862C30.6054 24.634 30.9474 24.322 31.1994 23.926C31.4514 23.518 31.5774 23.032 31.5774 22.468C31.5774 21.904 31.4514 21.424 31.1994 21.028C30.9474 20.62 30.6054 20.308 30.1734 20.092C29.7534 19.864 29.2914 19.75 28.7874 19.75C28.2954 19.75 27.8394 19.864 27.4194 20.092C26.9994 20.308 26.6634 20.62 26.4114 21.028C26.1594 21.424 26.0334 21.904 26.0334 22.468C26.0334 23.032 26.1594 23.518 26.4114 23.926C26.6634 24.322 26.9994 24.634 27.4194 24.862C27.8394 25.078 28.2954 25.186 28.7874 25.186ZM35.5333 31C35.4133 31 35.3113 30.964 35.2273 30.892C35.1553 30.808 35.1193 30.706 35.1193 30.586V30.01C35.1193 29.902 35.1493 29.782 35.2093 29.65C35.2693 29.518 35.3893 29.374 35.5693 29.218L39.3853 25.402C39.9973 24.886 40.4773 24.448 40.8253 24.088C41.1853 23.716 41.4373 23.362 41.5813 23.026C41.7373 22.69 41.8153 22.342 41.8153 21.982C41.8153 21.298 41.6233 20.758 41.2393 20.362C40.8553 19.954 40.2853 19.75 39.5293 19.75C39.0493 19.75 38.6353 19.852 38.2873 20.056C37.9393 20.248 37.6693 20.518 37.4773 20.866C37.2853 21.202 37.1533 21.586 37.0813 22.018C37.0573 22.174 36.9913 22.282 36.8833 22.342C36.7873 22.402 36.6973 22.432 36.6133 22.432H35.6773C35.5693 22.432 35.4793 22.402 35.4073 22.342C35.3353 22.27 35.2993 22.186 35.2993 22.09C35.3113 21.634 35.4073 21.178 35.5873 20.722C35.7673 20.254 36.0313 19.834 36.3793 19.462C36.7393 19.078 37.1773 18.772 37.6933 18.544C38.2213 18.316 38.8333 18.202 39.5293 18.202C40.4773 18.202 41.2513 18.376 41.8513 18.724C42.4633 19.06 42.9133 19.51 43.2013 20.074C43.4893 20.638 43.6333 21.256 43.6333 21.928C43.6333 22.456 43.5433 22.942 43.3633 23.386C43.1833 23.818 42.9193 24.244 42.5713 24.664C42.2353 25.072 41.8153 25.492 41.3113 25.924L37.8553 29.434H43.4713C43.6033 29.434 43.7053 29.47 43.7773 29.542C43.8613 29.614 43.9033 29.716 43.9033 29.848V30.586C43.9033 30.706 43.8613 30.808 43.7773 30.892C43.7053 30.964 43.6033 31 43.4713 31H35.5333Z" fill="url(#paint0_linear_288_15564)"/>
<path d="M0.85 26C0.85 38.7854 11.2146 49.15 24 49.15H26C38.7854 49.15 49.15 38.7854 49.15 26V6.85H0.85V26Z" stroke="#5F8D6E" stroke-width="1.7"/>
<defs>
<linearGradient id="paint0_linear_288_15564" x1="10.75" y1="31.5311" x2="36.8621" y2="43.6412" gradientUnits="userSpaceOnUse">
<stop stop-color="#5F8D6E"/>
<stop offset="1" stop-color="#69B581"/>
</linearGradient>
</defs>
</svg>
