<svg width="50" height="50" viewBox="0 0 50 50" fill="none" xmlns="http://www.w3.org/2000/svg">
<g clip-path="url(#clip0_288_15555)">
<path d="M39.0475 32.9073L31.4091 29.6338C30.8141 29.3788 30.4296 28.7957 30.4296 28.1484V24.7715C32.6111 23.2085 34.0949 20.731 34.3151 17.9042H34.7855C36.2686 17.9042 37.475 16.6978 37.475 15.2146C37.475 14.1327 36.8325 13.1986 35.9094 12.7722V5.03799C35.9094 3.5749 34.6921 2.2541 32.4816 1.31895C30.4713 0.468359 27.8144 0 25.0003 0C22.1862 0 19.5293 0.468359 17.5189 1.31895C15.3085 2.2541 14.0912 3.5749 14.0912 5.03799V12.7722C13.1681 13.1986 12.5256 14.1328 12.5256 15.2146C12.5256 16.6977 13.732 17.9042 15.215 17.9042H15.6854C16.0603 22.7152 20.0947 26.5152 25.0003 26.5152C26.4169 26.5152 27.7606 26.1978 28.9648 25.6312V28.1483C28.9648 28.7639 29.1473 29.3487 29.4708 29.8409L25.6836 35.2667C25.5255 35.4932 25.2765 35.623 25.0003 35.623C24.7241 35.623 24.4751 35.4932 24.317 35.2667L20.5298 29.8409C20.8533 29.3487 21.0357 28.7639 21.0357 28.1483V27.8377C21.0357 27.4331 20.7078 27.1053 20.3033 27.1053C19.8988 27.1053 19.5709 27.4331 19.5709 27.8377V28.1483C19.5709 28.7957 19.1864 29.3787 18.5914 29.6337L10.9531 32.9072C9.53057 33.5169 8.61133 34.9108 8.61133 36.4586V49.2676C8.61133 49.6721 8.93926 50 9.34375 50C9.74824 50 10.0762 49.6721 10.0762 49.2676V36.4587C10.0762 35.4978 10.6469 34.6323 11.5302 34.2537L17.2225 31.8142V36.7958C15.9261 36.8278 14.7882 37.6638 14.3763 38.8994L11.6844 46.9752C11.4479 47.6845 11.5631 48.4391 12.0002 49.0456C12.4374 49.6521 13.1169 49.9999 13.8645 49.9999H15.6063C16.0108 49.9999 16.3388 49.672 16.3388 49.2675C16.3388 48.863 16.0108 48.5351 15.6063 48.5351H13.8645C13.5934 48.5351 13.347 48.4089 13.1885 48.1891C13.03 47.9691 12.9883 47.6955 13.074 47.4383L15.7659 39.3625C15.9862 38.7016 16.6023 38.2575 17.299 38.2575H18.6106C19.3073 38.2575 19.9234 38.7016 20.1438 39.3625L22.8356 47.4383C22.9214 47.6955 22.8797 47.9691 22.7212 48.1891C22.5627 48.4089 22.3163 48.5351 22.0452 48.5351H20.3033C19.8988 48.5351 19.5709 48.863 19.5709 49.2675C19.5709 49.672 19.8988 49.9999 20.3033 49.9999H22.0452C22.7929 49.9999 23.4724 49.6521 23.9095 49.0456C24.3467 48.4391 24.4617 47.6845 24.2253 46.9752L21.5335 38.8994C21.1217 37.6638 19.9838 36.8278 18.6873 36.7958V31.1864L19.1686 30.9802C19.2635 30.9395 19.3544 30.893 19.4435 30.8438L23.1159 36.1052C23.5454 36.7205 24.2499 37.0879 25.0003 37.0879C25.7507 37.0879 26.4552 36.7205 26.8847 36.1052L30.5571 30.8438C30.6462 30.893 30.7372 30.9396 30.832 30.9802L31.3133 31.1864V37.6643C29.967 37.9938 28.9648 39.2101 28.9648 40.6564C28.9648 42.3553 30.3469 43.7374 32.0457 43.7374C33.7445 43.7374 35.1266 42.3553 35.1266 40.6564C35.1266 39.2101 34.1244 37.9938 32.7781 37.6643V31.8142L38.4705 34.2537C39.3537 34.6322 39.9244 35.4978 39.9244 36.4587V49.2676C39.9244 49.6721 40.2523 50 40.6568 50C41.0613 50 41.3893 49.6721 41.3893 49.2676V36.4587C41.3893 34.9109 40.47 33.517 39.0475 32.9073ZM34.4445 10.8587V12.5251H32.7781V10.8587H34.4445ZM34.7856 16.4394H34.3439V13.99H34.7856C35.4609 13.99 36.0103 14.5395 36.0103 15.2147C36.0103 15.89 35.4608 16.4394 34.7856 16.4394ZM15.5561 5.03799C15.5561 3.34795 19.4347 1.46484 25.0003 1.46484C30.5659 1.46484 34.4445 3.34795 34.4445 5.03799V9.39385H30.4804C30.0759 9.39385 29.7479 9.72178 29.7479 10.1263C29.7479 10.5309 30.0759 10.8587 30.4804 10.8587H31.3133V12.5251H27.3487C26.7005 12.5251 26.1477 12.9351 25.9316 13.5087C25.7583 13.429 25.574 13.3703 25.3809 13.3389C24.9292 13.2654 24.4741 13.3265 24.0681 13.5063C23.8515 12.934 23.2992 12.5251 22.6519 12.5251H18.7377H18.6873V10.8587H27.3487C27.7532 10.8587 28.0812 10.5309 28.0812 10.1263C28.0812 9.72178 27.7532 9.39385 27.3487 9.39385H15.5561V5.03799ZM30.5305 13.99V14.8232C30.5305 15.7144 29.8056 16.4394 28.9145 16.4394H28.1316C27.6722 16.4394 27.2984 16.0655 27.2984 15.6062V14.0405C27.2984 14.0127 27.321 13.99 27.3488 13.99H30.5305ZM15.5561 12.5252V10.8588H17.2225V12.5252H15.5561ZM19.4701 13.99H19.5205H22.6518C22.6796 13.99 22.7021 14.0126 22.7021 14.0405V15.6062C22.7021 16.0655 22.3283 16.4394 21.8689 16.4394H21.0861C20.195 16.4394 19.4701 15.7144 19.4701 14.8232V13.99ZM13.9903 15.2146C13.9903 14.5394 14.5396 13.9899 15.2149 13.9899H15.6567V16.4393H15.2149C14.5397 16.4394 13.9903 15.8899 13.9903 15.2146ZM23.8021 24.9595C20.0243 24.3806 17.1217 21.1088 17.1217 17.1718V13.99H18.0053V14.8232C18.0053 16.5221 19.3873 17.9042 21.0861 17.9042H21.8689C23.1361 17.9042 24.167 16.8732 24.167 15.6062C24.167 15.3613 24.2741 15.1298 24.4609 14.9709C24.6502 14.8099 24.8936 14.7438 25.1455 14.7849C25.5313 14.8477 25.8334 15.1917 25.8334 15.6495L25.8331 15.795C25.8622 16.9923 26.9279 17.9043 28.1314 17.9043H28.9143C30.6131 17.9043 31.9951 16.5222 31.9951 14.8233V13.9901H32.8787V17.1719C32.8787 21.5161 29.3443 25.0505 25.0001 25.0505C24.5931 25.0504 24.1929 25.0193 23.8021 24.9595ZM33.6617 40.6564C33.6617 41.5476 32.9368 42.2726 32.0457 42.2726C31.1546 42.2726 30.4297 41.5476 30.4297 40.6564C30.4297 39.7653 31.1546 39.0404 32.0457 39.0404C32.9368 39.0404 33.6617 39.7654 33.6617 40.6564Z" fill="url(#paint0_linear_288_15555)"/>
</g>
<defs>
<linearGradient id="paint0_linear_288_15555" x1="13.3232" y1="40.285" x2="38.5519" y2="44.6954" gradientUnits="userSpaceOnUse">
<stop stop-color="#5F8D6E"/>
<stop offset="1" stop-color="#69B581"/>
</linearGradient>
<clipPath id="clip0_288_15555">
<rect width="50" height="50" fill="white"/>
</clipPath>
</defs>
</svg>
