<svg width="140" height="140" viewBox="0 0 140 140" fill="none" xmlns="http://www.w3.org/2000/svg">
<path d="M90.9721 123H50.0281C49.2121 123 48.4297 122.676 47.853 122.099L18.9011 93.1472C18.324 92.5703 18 91.7879 18 90.9721V50.0279C18 49.2121 18.324 48.4297 18.9011 47.8528L47.8528 18.9011C48.4297 18.324 49.2121 18 50.0281 18H90.9721C91.7881 18 92.5705 18.3242 93.1472 18.9011L122.099 47.8528C122.676 48.4297 123 49.2121 123 50.0279V90.9719C123 91.7877 122.676 92.5701 122.099 93.147L93.1474 122.099C92.5705 122.676 91.7881 123 90.9721 123Z" fill="#E8A05E"/>
<path d="M70.5 79.7285C65.4114 79.7285 61.2715 75.5886 61.2715 70.5V45.8906C61.2715 40.802 65.4114 36.6621 70.5 36.6621C75.5886 36.6621 79.7285 40.802 79.7285 45.8906V70.5C79.7285 75.5886 75.5886 79.7285 70.5 79.7285Z" fill="white"/>
<path d="M70.5 104.338C65.4114 104.338 61.2715 100.198 61.2715 95.1094C61.2715 90.0208 65.4114 85.8809 70.5 85.8809C75.5886 85.8809 79.7285 90.0208 79.7285 95.1094C79.7285 100.198 75.5886 104.338 70.5 104.338Z" fill="white"/>
</svg>
