<svg width="50" height="50" viewBox="0 0 50 50" fill="none" xmlns="http://www.w3.org/2000/svg">
<path d="M46.5406 28.129H45.8148V21.5968C45.8148 19.5957 44.1868 17.9678 42.1857 17.9678H37.1051V15.0645H38.5567V13.6129H29.847V15.0645H31.2986V17.9678H29.1212C27.1202 17.9678 25.4922 19.5957 25.4922 21.5968V28.129H15.7417L13.9998 25.2258H20.4115C22.4126 25.2258 24.0406 23.5978 24.0406 21.5968V20.871H11.7019C10.5957 20.871 9.61517 21.379 8.94961 22.1622C7.96251 21.2223 7.34703 19.6582 7.34703 17.9678C7.34703 16.2425 7.96469 14.6762 8.98227 13.7363C9.55566 14.1152 10.2394 14.3387 10.9761 14.3387C11.9 14.3387 12.7347 13.9809 13.3763 13.4104L14.3046 14.3387L13.5788 15.0645L16.7825 18.2682L22.8894 12.1613L19.6857 8.9576L18.9599 9.6834L12.0023 2.72582C11.0653 1.78953 9.43517 1.78953 8.49816 2.72582L7.34703 3.87623C6.87888 4.34437 6.62122 4.96639 6.62122 5.62905C6.62122 6.29171 6.87888 6.91373 7.34703 7.38115L8.27533 8.30945C7.98574 8.63534 7.75203 9.0084 7.5938 9.42284C4.79219 10.971 2.99219 14.2886 2.99219 17.9678C2.99219 21.8987 5.01428 25.3536 8.07283 26.7565V28.129H4.4438C3.64324 28.129 2.99219 28.7801 2.99219 29.5807V31.0323C2.99219 31.8328 3.64324 32.4839 4.4438 32.4839H5.16961V47H45.8148V32.4839H46.5406C47.3411 32.4839 47.9922 31.8328 47.9922 31.0323V29.5807C47.9922 28.7801 47.3411 28.129 46.5406 28.129ZM32.7503 15.0645H35.6535V17.9678H32.7503V15.0645ZM32.7503 19.4194H35.6535V23.7742C35.6535 24.5748 35.0024 25.2258 34.2019 25.2258C33.4013 25.2258 32.7503 24.5748 32.7503 23.7742V19.4194ZM26.9438 21.5968C26.9438 20.3963 27.9207 19.4194 29.1212 19.4194H31.2986V23.7742C31.2986 25.3753 32.6007 26.6774 34.2019 26.6774C35.803 26.6774 37.1051 25.3753 37.1051 23.7742V19.4194H42.1857C43.3862 19.4194 44.3632 20.3963 44.3632 21.5968V28.129H26.9438V21.5968ZM10.9761 12.8871C9.77557 12.8871 8.79864 11.9102 8.79864 10.7097C8.79864 9.50921 9.77557 8.53227 10.9761 8.53227C12.1765 8.53227 13.1535 9.50921 13.1535 10.7097C13.1535 11.9102 12.1765 12.8871 10.9761 12.8871ZM20.8369 12.1613L16.7825 16.2157L15.6314 15.0645L19.6857 11.0102L20.8369 12.1613ZM8.37332 4.90324L9.52445 3.75284C9.91275 3.36453 10.5878 3.36453 10.9761 3.75284L17.9336 10.7097L15.3309 13.3124L14.256 12.2375C14.4744 11.7715 14.6051 11.2577 14.6051 10.7097C14.6051 8.70865 12.9771 7.08066 10.9761 7.08066C10.4288 7.08066 9.9142 7.21131 9.44824 7.42977L8.37332 6.35486C8.1788 6.16106 8.07283 5.9034 8.07283 5.62905C8.07283 5.35469 8.1788 5.09703 8.37332 4.90324ZM4.4438 17.9678C4.4438 15.2351 5.58114 12.7586 7.40654 11.3005C7.49146 11.8144 7.67582 12.2934 7.95307 12.7107C6.66985 13.9286 5.89541 15.8687 5.89541 17.9678C5.89541 20.2345 6.78525 22.2783 8.24049 23.4679C8.14178 23.7974 8.07283 24.1393 8.07283 24.5V25.1162C5.89324 23.7822 4.4438 21.0045 4.4438 17.9678ZM9.52445 24.5C9.52445 23.2995 10.5014 22.3226 11.7019 22.3226H22.4648C22.1651 23.1674 21.358 23.7742 20.4115 23.7742H12.4277V25.4269L14.0491 28.129H9.52445V24.5ZM8.07283 32.4839V33.2097C8.07283 34.4102 9.04977 35.3871 10.2503 35.3871H14.6051C15.8056 35.3871 16.7825 34.4102 16.7825 33.2097V32.4839H18.2341V36.8387H6.62122V32.4839H8.07283ZM9.52445 32.4839H15.3309V33.2097C15.3309 33.6096 15.0057 33.9355 14.6051 33.9355H10.2503C9.84961 33.9355 9.52445 33.6096 9.52445 33.2097V32.4839ZM22.589 32.4839H28.3954V33.2097C28.3954 33.6096 28.0703 33.9355 27.6696 33.9355H23.3148C22.9141 33.9355 22.589 33.6096 22.589 33.2097V32.4839ZM23.3148 35.3871H27.6696C28.8701 35.3871 29.847 34.4102 29.847 33.2097V32.4839H31.2986V36.8387H19.6857V32.4839H21.1374V33.2097C21.1374 34.4102 22.1143 35.3871 23.3148 35.3871ZM31.2986 41.1936H19.6857V38.2903H31.2986V41.1936ZM32.7503 38.2903H44.3632V41.1936H32.7503V38.2903ZM31.2986 42.6452V45.5484H19.6857V42.6452H31.2986ZM6.62122 38.2903H18.2341V41.1936H6.62122V38.2903ZM6.62122 42.6452H18.2341V45.5484H6.62122V42.6452ZM32.7503 45.5484V42.6452H44.3632V45.5484H32.7503ZM44.3632 36.8387H32.7503V32.4839H34.2019V33.2097C34.2019 34.4102 35.1788 35.3871 36.3793 35.3871H40.7341C41.9346 35.3871 42.9115 34.4102 42.9115 33.2097V32.4839H44.3632V36.8387ZM35.6535 32.4839H41.4599V33.2097C41.4599 33.6096 41.1348 33.9355 40.7341 33.9355H36.3793C35.9786 33.9355 35.6535 33.6096 35.6535 33.2097V32.4839ZM4.4438 31.0323V29.5807H46.5406L46.5413 31.0323H4.4438Z" fill="url(#paint0_linear_288_15568)"/>
<path d="M34.9274 12.1613C36.1279 12.1613 37.1048 11.1844 37.1048 9.98388C37.1048 8.78339 36.1279 7.80646 34.9274 7.80646C33.7269 7.80646 32.75 8.78339 32.75 9.98388C32.75 11.1844 33.7269 12.1613 34.9274 12.1613ZM34.9274 9.25807C35.3281 9.25807 35.6532 9.58396 35.6532 9.98388C35.6532 10.3838 35.3281 10.7097 34.9274 10.7097C34.5268 10.7097 34.2016 10.3838 34.2016 9.98388C34.2016 9.58396 34.5268 9.25807 34.9274 9.25807Z" fill="url(#paint1_linear_288_15568)"/>
<path d="M41.4599 8.53225C43.061 8.53225 44.3631 7.23015 44.3631 5.62903C44.3631 4.0279 43.061 2.7258 41.4599 2.7258C39.8587 2.7258 38.5566 4.0279 38.5566 5.62903C38.5566 7.23015 39.8587 8.53225 41.4599 8.53225ZM41.4599 4.17741C42.2604 4.17741 42.9115 4.82846 42.9115 5.62903C42.9115 6.42959 42.2604 7.08064 41.4599 7.08064C40.6593 7.08064 40.0083 6.42959 40.0083 5.62903C40.0083 4.82846 40.6593 4.17741 41.4599 4.17741Z" fill="url(#paint2_linear_288_15568)"/>
<path d="M29.1208 6.35484C30.3213 6.35484 31.2982 5.3779 31.2982 4.17742C31.2982 2.97694 30.3213 2 29.1208 2C27.9203 2 26.9434 2.97694 26.9434 4.17742C26.9434 5.3779 27.9203 6.35484 29.1208 6.35484ZM29.1208 3.45161C29.5214 3.45161 29.8466 3.7775 29.8466 4.17742C29.8466 4.57734 29.5214 4.90323 29.1208 4.90323C28.7201 4.90323 28.395 4.57734 28.395 4.17742C28.395 3.7775 28.7201 3.45161 29.1208 3.45161Z" fill="url(#paint3_linear_288_15568)"/>
<defs>
<linearGradient id="paint0_linear_288_15568" x1="9.46094" y1="38.2611" x2="42.7833" y2="47.1518" gradientUnits="userSpaceOnUse">
<stop stop-color="#5F8D6E"/>
<stop offset="1" stop-color="#69B581"/>
</linearGradient>
<linearGradient id="paint1_linear_288_15568" x1="33.376" y1="11.3151" x2="36.601" y2="12.1752" gradientUnits="userSpaceOnUse">
<stop stop-color="#5F8D6E"/>
<stop offset="1" stop-color="#69B581"/>
</linearGradient>
<linearGradient id="paint2_linear_288_15568" x1="39.3913" y1="7.40405" x2="43.6913" y2="8.55073" gradientUnits="userSpaceOnUse">
<stop stop-color="#5F8D6E"/>
<stop offset="1" stop-color="#69B581"/>
</linearGradient>
<linearGradient id="paint3_linear_288_15568" x1="27.5694" y1="5.50869" x2="30.7943" y2="6.3687" gradientUnits="userSpaceOnUse">
<stop stop-color="#5F8D6E"/>
<stop offset="1" stop-color="#69B581"/>
</linearGradient>
</defs>
</svg>
