<svg width="36" height="36" viewBox="0 0 36 36" fill="none" xmlns="http://www.w3.org/2000/svg">
                                                                            <path d="M20.5317 13.9659C28.1639 13.1265 30.6442 8.29835 30.6523 8.29835C30.7775 8.05768 31.0741 7.96416 31.3148 8.08939C31.4361 8.15254 31.5257 8.26353 31.5618 8.3955C34.0987 16.9994 32.7142 22.9314 29.8021 26.4506C28.6748 27.8224 27.2308 28.8996 25.5947 29.5894C24.0874 30.2286 22.4514 30.5059 20.8177 30.399C17.6898 30.1804 14.8345 28.5098 13.5093 25.5169C13.1698 24.7517 12.9504 23.9388 12.8589 23.1068C12.6738 21.4391 12.9995 19.7545 13.7927 18.2759C14.6443 16.6981 16.0003 15.4514 17.6439 14.735C18.5611 14.331 19.5352 14.0715 20.5317 13.9659Z" fill="#5F8D6E"></path>
                                                                            <path d="M30.5984 8.47913C30.6051 8.20796 30.8303 7.99347 31.1014 8.00015C31.3726 8.00683 31.5871 8.23205 31.5804 8.50321C31.5799 8.52318 31.5782 8.54302 31.5753 8.56279C31.5753 8.58708 31.1462 14.2303 25.6379 19.941L25.5866 19.995C24.2925 21.3224 22.8725 22.5208 21.3467 23.5737L24.6555 24.189C24.9192 24.2526 25.0814 24.518 25.0178 24.7817C24.9602 25.0204 24.7352 25.1799 24.4909 25.1552L20.1728 24.3455C16.2352 26.8392 9.56097 29.1413 8.97802 34.5741C8.94193 34.8429 8.69471 35.0317 8.42584 34.9956C8.16993 34.9612 7.98431 34.7346 8.00105 34.4769C8.69734 27.9646 15.3149 26.2887 19.7787 23.4414L19.8408 23.4009C21.6222 22.2735 23.2724 20.951 24.7608 19.4579L24.3694 15.5851C24.3333 15.3163 24.522 15.0691 24.7909 15.033C25.0598 14.9969 25.307 15.1856 25.3431 15.4544C25.3446 15.4656 25.3457 15.4768 25.3464 15.488L25.6433 18.4945C30.234 13.3397 30.5957 8.50072 30.5984 8.47913Z" fill="white"></path>
</svg>