<svg width="27" height="22" viewBox="0 0 27 22" fill="none" xmlns="http://www.w3.org/2000/svg">
<path d="M8.37839 5.20808C8.01045 3.93848 7.01171 4.07763 6.32884 4.66895C4.64671 6.25154 2.45644 9.57332 3.85823 14.3565C5.03221 18.4086 9.91715 21 9.91715 21H4.22261C4.22261 21 1.28227 17.6434 1.01942 13.6956C0.686515 8.70435 2.64916 5.55646 4.92705 3.50435C7.06474 1.57389 9.09733 1 9.09733 1L13.2551 14.875L17.4129 1C17.4129 1 19.4455 1.57389 21.5832 3.50435C23.8611 5.55646 25.8237 8.70435 25.4908 13.6956C25.228 17.6434 22.2876 21 22.2876 21H16.5931C16.5931 21 21.4776 18.4086 22.652 14.3565C24.0538 9.57386 21.8635 6.25209 20.1814 4.66895C19.498 4.07763 18.4993 3.93848 18.1318 5.20808C16.8702 9.26025 13.2556 20.8706 13.2556 20.8706C13.2556 20.8706 9.64102 9.25637 8.37942 5.20808H8.37839Z" fill="#5F5F5F"/>
</svg>
