<svg width="36" height="36" viewBox="0 0 36 36" fill="none" xmlns="http://www.w3.org/2000/svg">
<path fill-rule="evenodd" clip-rule="evenodd" d="M18 36C27.9411 36 36 27.9411 36 18C36 8.05887 27.9411 0 18 0C8.05887 0 0 8.05887 0 18C0 27.9411 8.05887 36 18 36ZM16.2926 19.6193H20.0085C21.321 19.6193 22.4205 19.3892 23.3068 18.929C24.1989 18.4631 24.8693 17.8324 25.3182 17.0369C25.7727 16.2358 26 15.3352 26 14.3352C26 13.3466 25.7756 12.4489 25.3267 11.642C24.8835 10.8352 24.2159 10.1932 23.3239 9.71591C22.4375 9.23864 21.3324 9 20.0085 9H13.6676V17.3864H11V19.6193H13.6676V21.0852H11V23.3267H13.6676V26.4545H16.2926V23.3267H20.1364V21.0852H16.2926V19.6193ZM16.2926 17.3864H19.9744C20.7472 17.3864 21.3864 17.2585 21.892 17.0028C22.3977 16.7415 22.7727 16.3835 23.017 15.929C23.2614 15.4688 23.3835 14.9403 23.3835 14.3438C23.3835 13.7528 23.2614 13.2244 23.017 12.7585C22.7727 12.2926 22.4006 11.9261 21.9006 11.6591C21.4006 11.3864 20.7699 11.25 20.0085 11.25H16.2926V17.3864Z" fill="currentColor"/>
</svg>
