<svg width="140" height="140" viewBox="0 0 140 140" fill="none" xmlns="http://www.w3.org/2000/svg">
<path d="M90.8378 32.2898C93.6106 34.8198 96.9442 36.2957 100.285 36.517C102.689 38.3612 104.928 40.4241 106.954 42.6643C107.219 42.9583 107.585 43.1078 107.953 43.1078C109.11 43.1078 109.734 41.7247 108.951 40.8589C106.781 38.4581 104.378 36.2513 101.796 34.2835C100.849 30.4219 98.7957 26.882 95.905 24.2487C92.5964 21.2301 88.4899 19.7035 84.5249 20.0309C85.139 24.7438 87.3989 29.1568 90.8378 32.2898Z" fill="#5F8D6E"/>
<path d="M121.827 26.923C125.538 26.923 128.558 23.9035 128.558 20.1922C128.558 16.4808 125.538 13.4614 121.827 13.4614C118.116 13.4614 115.096 16.4808 115.096 20.1922C115.096 23.9035 118.116 26.923 121.827 26.923Z" fill="#5F8D6E"/>
<path d="M17.4999 120.481C15.2731 120.481 13.4614 122.293 13.4614 124.519C13.4614 126.746 15.2731 128.558 17.4999 128.558C19.7267 128.558 21.5383 126.746 21.5383 124.519C21.5383 122.293 19.7267 120.481 17.4999 120.481Z" fill="#5F8D6E"/>
<path d="M128.558 43.7499C129.673 43.7499 130.577 42.8458 130.577 41.7307C130.577 40.6155 129.673 39.7114 128.558 39.7114C127.442 39.7114 126.538 40.6155 126.538 41.7307C126.538 42.8458 127.442 43.7499 128.558 43.7499Z" fill="#5F8D6E"/>
<path d="M102.981 16.827C104.096 16.827 105 15.923 105 14.8078C105 13.6926 104.096 12.7886 102.981 12.7886C101.865 12.7886 100.961 13.6926 100.961 14.8078C100.961 15.923 101.865 16.827 102.981 16.827Z" fill="#5F8D6E"/>
<path d="M37.0192 14.1347C38.1344 14.1347 39.0385 13.2306 39.0385 12.1154C39.0385 11.0002 38.1344 10.0962 37.0192 10.0962C35.904 10.0962 35 11.0002 35 12.1154C35 13.2306 35.904 14.1347 37.0192 14.1347Z" fill="#5F8D6E"/>
<path d="M14.1345 35.6732C15.2497 35.6732 16.1537 34.7692 16.1537 33.654C16.1537 32.5388 15.2497 31.6348 14.1345 31.6348C13.0193 31.6348 12.1152 32.5388 12.1152 33.654C12.1152 34.7692 13.0193 35.6732 14.1345 35.6732Z" fill="#5F8D6E"/>
<path d="M34.3268 128.558C35.442 128.558 36.3461 127.653 36.3461 126.538C36.3461 125.423 35.442 124.519 34.3268 124.519C33.2117 124.519 32.3076 125.423 32.3076 126.538C32.3076 127.653 33.2117 128.558 34.3268 128.558Z" fill="#5F8D6E"/>
<path d="M127.211 112.404C128.327 112.404 129.231 111.5 129.231 110.384C129.231 109.269 128.327 108.365 127.211 108.365C126.096 108.365 125.192 109.269 125.192 110.384C125.192 111.5 126.096 112.404 127.211 112.404Z" fill="#5F8D6E"/>
<path d="M109.711 128.558C110.827 128.558 111.731 127.653 111.731 126.538C111.731 125.423 110.827 124.519 109.711 124.519C108.596 124.519 107.692 125.423 107.692 126.538C107.692 127.653 108.596 128.558 109.711 128.558Z" fill="#5F8D6E"/>
<path d="M108.661 45.7365C108.313 50.8123 109.985 55.8587 113.791 59.0343C113.825 58.9891 113.857 58.9417 113.891 58.8959C113.734 58.4951 113.574 58.0958 113.406 57.7006C112.267 55.0091 114.292 52.0219 117.209 52.0901C118.932 45.8089 117.546 38.8827 112.746 34.876C111.869 36.0356 111.127 37.2853 110.519 38.5914C110.662 38.7456 110.807 38.8977 110.948 39.0536C113.074 41.4051 111.769 45.1835 108.661 45.7365Z" fill="#5F8D6E"/>
<path d="M123.908 64.1848C124.139 65.2386 123.946 66.319 123.364 67.2277C122.587 68.4425 121.283 69.0894 119.961 69.0894C119.608 69.0894 119.263 69.0423 118.933 68.954C117.33 71.9255 116.71 75.1296 117.147 78.1555C117.888 75.2766 121.413 74.1332 123.697 76.112C129.218 72.262 132.675 65.6966 131.278 59.3511C128.49 60.1057 125.895 61.4513 123.69 63.249C123.765 63.5605 123.839 63.872 123.908 64.1848Z" fill="#5F8D6E"/>
<path d="M16.303 76.1088C18.5786 74.1343 22.112 75.2685 22.8534 78.152C23.2917 75.1237 22.6717 71.9201 21.0681 68.9521C18.2092 69.7183 15.4385 67.1679 16.093 64.1838C16.1617 63.8704 16.2357 63.5583 16.31 63.2463C14.1069 61.4497 11.5113 60.1049 8.72176 59.3511C7.31692 65.7415 10.8226 72.2852 16.303 76.1088Z" fill="#5F8D6E"/>
<path d="M26.5934 57.7006C26.426 58.0958 26.2658 58.4951 26.1091 58.8959C26.143 58.9414 26.1748 58.9888 26.209 59.0341C30.0288 55.8474 31.6862 50.7932 31.3397 45.7349C28.2325 45.1819 26.9268 41.4032 29.0531 39.0517C29.1942 38.8959 29.3396 38.7437 29.4826 38.5892C28.8746 37.2832 28.1324 36.0345 27.2558 34.876C22.4828 38.8652 21.0637 45.7787 22.7927 52.0898C25.7362 52.0341 27.7301 55.0187 26.5934 57.7006Z" fill="#5F8D6E"/>
<path d="M106.597 112.019C105.832 111.376 105.345 110.492 105.203 109.511C100.088 108.994 94.8428 110.547 91.5154 114.403C92.4429 115.128 93.4345 115.767 94.4705 116.32C94.8003 116.119 95.1309 115.92 95.4564 115.71C97.9594 114.099 101.269 115.661 101.644 118.59C106.884 119.216 112.292 117.677 115.686 113.738C114.613 112.9 113.457 112.175 112.244 111.568C110.794 113.243 108.281 113.434 106.597 112.019Z" fill="#5F8D6E"/>
<path d="M132.104 88.7987C129.444 88.0863 126.64 87.9121 123.815 88.3321C123.774 88.512 123.735 88.6929 123.693 88.8722C123.259 90.6997 121.643 91.9764 119.765 91.9764C118.699 91.9764 117.648 91.5556 116.869 90.7509C113.559 92.7066 111.177 95.5696 110.123 98.8717C110.445 98.9579 110.771 99.0338 111.098 99.104C112.967 95.772 117.212 96.3837 118.445 99.3345C124.754 98.389 130.288 94.5088 132.104 88.7987Z" fill="#5F8D6E"/>
<path d="M44.5418 115.709C44.8681 115.919 45.1998 116.119 45.5304 116.321C46.5669 115.768 47.558 115.127 48.4855 114.403C45.1486 110.529 39.8809 108.995 34.7986 109.511C34.5032 111.547 32.7621 112.966 30.8078 112.966C29.6331 112.966 28.5269 112.457 27.7587 111.572C26.5451 112.178 25.3866 112.901 24.3142 113.738C27.6971 117.665 33.0909 119.22 38.3559 118.587C38.6157 116.576 40.3186 115.068 42.3597 115.068C43.1345 115.068 43.8892 115.29 44.5418 115.709Z" fill="#5F8D6E"/>
<path d="M28.8028 98.9314C28.8351 98.9892 28.8693 99.0463 28.9016 99.1042C29.2284 99.0339 29.5539 98.9583 29.877 98.8718C28.8219 95.5687 26.4395 92.7051 23.1271 90.7492C20.9286 93.0177 17.05 91.9954 16.3067 88.8721C16.2639 88.6925 16.2254 88.5116 16.1842 88.3315C13.2908 87.9023 10.4905 88.1048 7.89673 88.7986C9.75334 94.6107 15.3808 98.4072 21.5545 99.3347C22.1977 97.7968 23.6817 96.8561 25.2726 96.8561C26.738 96.8561 28.0909 97.6514 28.8028 98.9314Z" fill="#5F8D6E"/>
<path d="M120.251 66.3656C120.977 66.2062 121.437 65.4884 121.278 64.7621C120.587 61.618 119.607 58.5356 118.365 55.6009C118.075 54.916 117.285 54.5962 116.6 54.8864C115.916 55.1764 115.596 55.9663 115.885 56.6509C117.064 59.4334 117.993 62.3568 118.648 65.3393C118.807 66.0638 119.523 66.525 120.251 66.3656Z" fill="#5F8D6E"/>
<path d="M119.714 79.0791C119.541 81.9623 119.117 84.8379 118.454 87.6258C118.254 88.4699 118.893 89.2838 119.765 89.2838C120.374 89.2838 120.926 88.8673 121.073 88.2488C121.773 85.3091 122.219 82.2781 122.401 79.2398C122.446 78.4976 121.88 77.86 121.138 77.8156C120.399 77.7744 119.758 78.3371 119.714 79.0791Z" fill="#5F8D6E"/>
<path d="M18.8619 77.8139C18.1199 77.8583 17.5542 78.4959 17.5984 79.2381C17.7801 82.2788 18.2268 85.3104 18.9259 88.2485C19.0732 88.8672 19.6254 89.2834 20.2344 89.2834C21.1054 89.2834 21.7461 88.4701 21.5453 87.6255C20.8822 84.8387 20.4584 81.9628 20.2861 79.0774C20.2414 78.3354 19.6028 77.77 18.8619 77.8139Z" fill="#5F8D6E"/>
<path d="M115.381 99.7187C114.73 99.3566 113.911 99.5908 113.55 100.24C112.012 103.004 110.2 105.635 108.163 108.061C107.685 108.631 107.759 109.48 108.328 109.958C108.897 110.435 109.747 110.362 110.225 109.792C112.371 107.236 114.281 104.462 115.902 101.55C116.264 100.9 116.03 100.08 115.381 99.7187Z" fill="#5F8D6E"/>
<path d="M31.6727 109.958C32.2422 109.48 32.3162 108.631 31.8383 108.062C29.8016 105.636 27.9888 103.004 26.4502 100.24C26.0889 99.5907 25.2691 99.357 24.6194 99.7183C23.9698 100.08 23.7363 100.9 24.0979 101.549C25.7192 104.462 27.63 107.236 29.7763 109.793C30.2558 110.364 31.1052 110.435 31.6727 109.958Z" fill="#5F8D6E"/>
<path d="M20.039 66.3954C20.6575 66.3954 21.2145 65.9665 21.3526 65.3373C22.0066 62.3567 22.936 59.4339 24.1147 56.6503C24.4046 55.9659 24.0848 55.1757 23.4001 54.8858C22.7152 54.5958 21.9255 54.9157 21.6356 55.6003C20.3923 58.536 19.4123 61.6179 18.7228 64.7601C18.5381 65.602 19.1799 66.3954 20.039 66.3954Z" fill="#5F8D6E"/>
<path d="M33.0475 42.6633C35.0726 40.4233 37.3115 38.3613 39.7152 36.5173C47.1382 36.0265 54.2663 29.2659 55.4795 20.031C48.0719 19.4204 40.4015 25.3394 38.204 34.283C35.6227 36.2508 33.2203 38.4577 31.0503 40.8576C30.5517 41.409 30.5945 42.2603 31.1459 42.7592C31.7002 43.2599 32.5507 43.2123 33.0475 42.6633Z" fill="#5F8D6E"/>
<path d="M96.9133 117.974C80.5592 128.497 59.4464 128.5 43.0868 117.974C42.4614 117.573 41.6284 117.753 41.2262 118.378C40.824 119.003 41.0046 119.836 41.63 120.239C58.8716 131.332 81.1227 131.336 98.3702 120.239C98.9953 119.836 99.1762 119.003 98.774 118.378C98.3715 117.753 97.5388 117.572 96.9133 117.974Z" fill="#5F8D6E"/>
<path fill-rule="evenodd" clip-rule="evenodd" d="M36.3464 73.3653C36.3464 91.922 51.4436 107.019 70.0003 107.019C88.557 107.019 103.654 91.922 103.654 73.3653C103.654 54.8085 88.557 39.7114 70.0003 39.7114C51.4436 39.7114 36.3464 54.8085 36.3464 73.3653ZM70.0003 45.096C85.5879 45.096 98.2695 57.7776 98.2695 73.3653C98.2695 88.9529 85.5879 101.635 70.0003 101.635C54.4126 101.635 41.7311 88.9529 41.7311 73.3653C41.7311 72.6217 42.3339 72.0191 43.0772 72.0191C43.8206 72.0191 44.4234 72.6217 44.4234 73.3653C44.4234 87.4684 55.8972 98.9422 70.0003 98.9422C84.1034 98.9422 95.5772 87.4684 95.5772 73.3653C95.5772 59.2622 84.1034 47.7883 70.0003 47.7883C69.2567 47.7883 68.6541 47.1855 68.6541 46.4422C68.6541 45.6988 69.2567 45.096 70.0003 45.096ZM86.5664 63.9434C87.0873 63.2993 86.9875 62.3548 86.3434 61.8338C85.6993 61.3129 84.7548 61.4127 84.2338 62.0568L66.048 84.5412L55.6765 73.8554C55.0995 73.2609 54.1498 73.2467 53.5554 73.8237C52.9609 74.4007 52.9467 75.3503 53.5237 75.9448L65.0737 87.8448C65.3726 88.1528 65.7891 88.318 66.2179 88.2986C66.6466 88.2792 67.0465 88.0771 67.3164 87.7434L86.5664 63.9434Z" fill="#5F8D6E"/>
</svg>
