<svg width="120" height="120" viewBox="0 0 120 120" fill="none" xmlns="http://www.w3.org/2000/svg">
<g clip-path="url(#clip0_293_15759)">
<g filter="url(#filter0_d_293_15759)">
<path d="M60 7.5C49.0638 7.5129 38.5792 11.863 30.8461 19.5961C23.1131 27.3292 18.7629 37.8138 18.75 48.75C18.7369 57.6871 21.6562 66.3817 27.06 73.5C27.06 73.5 28.185 74.9813 28.3688 75.195L60 112.5L91.6463 75.1763C91.8113 74.9775 92.94 73.5 92.94 73.5L92.9438 73.4887C98.3449 66.3735 101.263 57.683 101.25 48.75C101.237 37.8138 96.887 27.3292 89.1539 19.5961C81.4209 11.863 70.9363 7.5129 60 7.5Z" fill="#5F8D6E"/>
<circle cx="60.4956" cy="47.6033" r="26.7769" fill="white"/>
<path d="M84.318 28.3862L91.5542 28.2252L93.2241 28.3057C92.8265 27.8229 92.5879 27.3401 92.5084 26.7769H83.3638L76.2866 27.5815C72.3901 27.5815 40.7416 32.4094 40.7416 44.962C40.7416 47.9392 42.9682 49.3876 45.5923 49.3876C48.455 49.3876 54.9755 47.1346 57.043 45.6862C55.5321 48.0197 50.5225 59.0435 45.3537 59.0435C44.0019 59.0435 43.4453 57.6756 42.4115 56.549C41.6163 57.0318 40.6621 59.4458 40.6621 60.3309C40.6621 62.2621 42.0139 63.8714 44.0814 63.8714C49.2501 63.8714 56.3273 51.0774 58.4743 46.9737C58.6334 46.7323 58.7129 46.5713 58.7924 46.4104C59.19 45.7667 59.9852 44.6402 61.2575 44.1574C61.8141 43.9964 64.1202 42.9504 64.1997 42.9504C64.5973 42.7895 64.9949 42.6285 65.313 42.5481C65.1539 42.7895 64.9949 42.9504 64.9154 43.1918C64.9154 43.1918 64.9154 43.1918 64.8359 43.1918V43.2723C64.5973 43.6746 64.4383 43.916 64.4383 43.916C61.9732 47.7783 55.6117 58.6411 55.6117 63.3081C55.6117 65.1588 56.6454 66.4463 58.6334 66.4463C60.5418 66.4463 62.1322 66.044 64.0407 63.8714C63.8816 63.7105 63.8816 63.63 63.8816 63.63C63.0069 63.7105 62.0527 64.0323 61.8141 64.0323C60.1442 64.0323 58.9515 62.5035 58.9515 60.8137C58.9515 54.9397 64.5178 46.5713 68.4142 41.2606C68.4937 41.0192 76.3661 38.3639 77.8769 38.3639C78.7517 38.3639 79.7854 38.7662 79.7854 40.0536C79.7854 41.3411 75.8095 45.2839 75.8095 46.2495V46.9737C79.1493 43.5136 83.2047 39.8122 83.2047 36.2718C83.2047 33.6164 80.6601 32.0071 78.2745 32.0071C72.1516 32.0071 59.2695 40.3755 54.1008 40.3755C53.7032 40.3755 52.0333 40.5364 52.0333 39.0881C51.8743 31.8462 82.8866 28.4666 84.318 28.3862Z" fill="#5F8D6E"/>
</g>
</g>
<defs>
<filter id="filter0_d_293_15759" x="-1.25" y="-8.5" width="122.5" height="145" filterUnits="userSpaceOnUse" color-interpolation-filters="sRGB">
<feFlood flood-opacity="0" result="BackgroundImageFix"/>
<feColorMatrix in="SourceAlpha" type="matrix" values="0 0 0 0 0 0 0 0 0 0 0 0 0 0 0 0 0 0 127 0" result="hardAlpha"/>
<feOffset dy="4"/>
<feGaussianBlur stdDeviation="10"/>
<feComposite in2="hardAlpha" operator="out"/>
<feColorMatrix type="matrix" values="0 0 0 0 0 0 0 0 0 0 0 0 0 0 0 0 0 0 0.25 0"/>
<feBlend mode="normal" in2="BackgroundImageFix" result="effect1_dropShadow_293_15759"/>
<feBlend mode="normal" in="SourceGraphic" in2="effect1_dropShadow_293_15759" result="shape"/>
</filter>
<clipPath id="clip0_293_15759">
<rect width="120" height="120" fill="white"/>
</clipPath>
</defs>
</svg>
