<svg width="266" height="120" viewBox="0 0 266 120" fill="none" xmlns="http://www.w3.org/2000/svg">
<path d="M181.586 4.67316C170.236 1.83588 157.719 0.834492 146.37 0L114.659 0.333797L98.4701 2.16968C89.4576 2.16968 16.6898 13.185 16.6898 41.7246C16.6898 48.4006 21.8637 51.7385 27.872 51.7385C34.3811 51.7385 49.402 46.5647 54.242 43.3936C50.7371 48.7344 39.2211 73.7691 27.3713 73.7691C24.2003 73.7691 23.032 70.5981 20.5285 68.0946C18.6926 69.2629 16.5229 74.6036 16.5229 76.6064C16.5229 80.9458 19.694 84.6175 24.3672 84.6175C36.217 84.6175 52.573 55.5772 57.4131 46.2309C57.7469 45.7302 57.9138 45.2295 58.0807 44.8957C58.9152 43.3936 60.751 40.8901 63.7552 39.7218C65.0904 39.388 70.2643 37.0515 70.4312 37.0515C71.4325 36.7177 72.267 36.3839 72.9346 36.217C72.6008 36.7177 72.267 37.2184 72.1001 37.7191C72.1001 37.7191 72.1001 37.7191 71.9332 37.7191V37.886C71.4325 38.7204 71.0987 39.388 71.0987 39.388C65.4242 48.2337 50.7371 72.7677 50.7371 83.4492C50.7371 87.6217 53.0737 90.6259 57.7469 90.6259C62.0862 90.6259 65.758 89.6245 70.0974 84.7844C69.7636 84.4506 69.7636 84.2837 69.7636 84.2837C67.7608 84.4506 65.5911 85.1182 65.0904 85.1182C61.2517 85.1182 58.5814 81.6133 58.5814 77.7747C58.5814 64.4228 71.4325 45.3964 80.2782 33.3797C80.4451 32.879 98.4701 26.8707 101.975 26.8707C103.978 26.8707 106.314 27.872 106.314 30.7093C106.314 33.5466 97.1349 42.5591 97.1349 44.7288V46.3978C104.812 38.5535 114.159 30.2086 114.159 22.0306C114.159 16.0223 108.317 12.3505 102.809 12.3505C88.79 12.3505 59.0821 31.3769 47.2323 31.3769C46.2309 31.3769 42.3922 31.7107 42.3922 28.3727C42.2253 11.8498 113.658 4.17246 116.829 4.00556L133.519 3.50487L146.37 3.83866C147.872 4.00556 150.042 4.50626 150.542 4.50626H154.715C156.217 4.50626 169.903 7.34353 172.406 7.34353C182.253 7.51043 249.68 26.7038 249.68 61.0848C249.68 104.312 169.402 115.828 151.544 115.828H147.705C147.204 115.828 144.2 116.328 142.531 116.495L126.509 116.662L115.828 115.828C98.8039 115.828 6.67594 106.481 6.67594 62.5869C6.67594 56.7455 7.00974 54.5758 10.1808 48.2337H8.51182C1.50209 48.2337 0 63.0876 0 64.5897C0 112.49 109.485 119.332 110.32 119.332L126.342 120H146.871L156.718 118.999C176.912 118.999 211.627 110.487 228.15 102.809C236.829 98.8039 245.341 93.63 254.186 85.9527C256.356 84.1168 264.367 73.2684 264.367 69.5967C264.367 69.096 265.035 63.0876 265.035 62.5869C265.035 24.5341 196.606 8.34492 181.586 4.67316Z" fill="#5F8D6E"/>
<path d="M113.326 64.4229C113.326 58.2476 109.153 53.7414 102.644 53.7414C96.3023 53.7414 91.9629 58.2476 91.9629 64.4229C91.9629 70.5981 96.1354 75.1044 102.644 75.1044C109.153 75.1044 113.326 70.4312 113.326 64.4229ZM97.3036 64.4229C97.3036 57.2462 99.974 55.0765 102.811 55.0765C105.649 55.0765 108.319 57.2462 108.319 64.4229C108.319 71.5995 105.649 73.7692 102.811 73.7692C99.974 73.7692 97.3036 71.7664 97.3036 64.4229Z" fill="#5F8D6E"/>
<path d="M124.506 56.9123C116.662 56.9123 114.492 61.4186 114.492 64.2559C114.492 70.9318 117.663 71.5994 124.506 71.5994H125.174V72.1001C125.174 73.6022 124.005 73.7691 123.338 73.7691H122.67L122.837 74.9374H132.517V74.2698H132.017C131.182 74.2698 130.181 73.936 130.181 72.6008V71.7663H130.848C137.691 71.7663 140.695 70.4311 140.862 64.4228C140.862 61.5855 138.859 57.0792 130.848 57.0792H130.181V56.4116C130.181 55.9109 130.514 55.2433 132.017 55.2433H132.35L132.183 54.0751L122.67 54.2419V55.2433H123.338C125.007 55.2433 125.174 56.4116 125.174 56.7454V56.9123H124.506ZM129.847 58.5813C133.018 58.5813 135.688 60.5841 135.688 64.5897C135.688 70.7649 132.183 70.598 129.847 70.598V58.5813ZM125.341 58.7482V70.7649C122.837 70.7649 119.499 71.4325 119.499 64.7565C119.499 60.5841 122.336 58.7482 125.341 58.7482Z" fill="#5F8D6E"/>
<path d="M141.867 73.6023H140.865V74.4368H157.889L159.057 69.5967L157.889 69.2629C156.721 73.9361 153.383 73.1016 151.38 73.1016C151.213 73.1016 150.879 73.1016 150.712 73.1016C148.543 73.1016 148.376 72.434 148.376 71.4326V64.5898H148.876C150.212 64.5898 153.716 64.0891 153.883 67.5939H155.218V60.4173H154.05C153.716 63.9222 150.378 63.4215 149.043 63.4215H148.543V55.0766H151.881C156.22 55.0766 157.054 57.58 157.221 59.0821L158.39 58.9152L158.056 53.7414H140.865V54.5759H141.867C142.534 54.5759 143.703 54.9097 143.703 56.4117V71.7664C143.703 73.2685 142.701 73.6023 141.867 73.6023Z" fill="#5F8D6E"/>
<path d="M173.406 53.9082C172.238 53.5744 171.237 53.2406 170.068 53.2406C163.726 53.2406 159.721 58.9151 159.721 65.0904C159.721 71.2656 163.893 74.7705 170.235 74.7705C172.572 74.7705 176.411 74.7705 178.747 68.4283L177.412 67.7607C175.409 72.267 173.74 72.9346 171.237 72.9346C164.895 72.9346 164.895 66.0917 164.895 64.2559C164.895 56.2447 168.566 54.5758 170.903 54.5758C173.74 54.5758 175.409 57.0792 175.743 60.2503H177.245L176.911 53.7413L175.743 53.9082C175.576 54.7426 176.577 54.7426 175.743 54.7426C175.242 54.7426 174.742 54.4089 173.406 53.9082Z" fill="#5F8D6E"/>
<path d="M220.638 64.256C220.638 58.0807 216.466 53.5745 209.957 53.5745C203.448 53.4076 199.275 58.0807 199.275 64.256C199.275 70.4312 203.448 74.9375 209.957 74.9375C216.466 74.9375 220.638 70.2643 220.638 64.256ZM204.449 64.256C204.449 57.0793 207.12 54.9096 209.957 54.9096C212.794 54.9096 215.465 57.0793 215.465 64.256C215.465 71.4326 212.794 73.6023 209.957 73.6023C207.12 73.6023 204.449 71.4326 204.449 64.256Z" fill="#5F8D6E"/>
<path d="M222.144 73.936H221.143V74.6036H230.656V73.7691C229.988 73.7691 228.653 73.6022 228.653 71.9332L228.486 67.0931C229.321 67.0931 229.988 67.26 230.656 67.26C237.499 67.26 239.668 63.0876 239.668 60.5841C239.668 54.5757 233.493 54.0751 231.824 54.0751H221.143V54.9095H222.144C222.812 54.9095 223.98 55.2433 223.98 56.7454V72.1001C223.98 73.6022 222.978 73.936 222.144 73.936ZM228.319 55.744L230.155 55.0764C231.657 55.0764 234.161 55.744 234.161 59.7496C234.161 63.9221 232.158 65.2572 230.489 65.2572C229.988 65.2572 228.82 64.9234 228.319 64.7565V55.744Z" fill="#5F8D6E"/>
<path d="M193.102 53.9082C191.933 53.5744 190.932 53.2406 189.764 53.2406C183.422 53.2406 179.416 58.9151 179.416 65.0904C179.416 71.2656 183.588 74.7705 189.931 74.7705C192.267 74.7705 196.106 74.7705 198.442 68.4283L197.107 67.7607C195.104 72.267 193.435 72.9346 190.932 72.9346C184.59 72.9346 184.59 66.0917 184.59 64.2559C184.59 56.2447 188.262 54.5758 190.598 54.5758C193.435 54.5758 195.104 57.0792 195.438 60.2503H196.94L196.607 53.7413L195.438 53.9082C195.271 54.7426 196.273 54.7426 195.438 54.7426C194.938 54.7426 194.437 54.4089 193.102 53.9082Z" fill="#5F8D6E"/>
<path d="M73.101 74.4368H72.0996V75.1044H81.6128V74.2699C80.9452 74.2699 79.61 74.103 79.61 72.434L79.4431 67.5939C80.2776 67.5939 80.9452 67.7608 81.6128 67.7608C88.4557 67.7608 90.6253 63.5884 90.6253 61.0849C90.6253 55.0765 84.4501 54.5758 82.7811 54.5758H72.0996V55.4103H73.101C73.7686 55.4103 74.9369 55.7441 74.9369 57.2462V72.6009C74.9369 74.103 73.9355 74.4368 73.101 74.4368ZM79.2762 56.4117L81.1121 55.7441C82.6142 55.7441 85.1177 56.4117 85.1177 60.4173C85.1177 64.5898 83.1149 65.9249 81.4459 65.9249C80.9452 65.9249 79.7769 65.5911 79.2762 65.4242V56.4117Z" fill="#5F8D6E"/>
</svg>
