<svg width="394" height="67" viewBox="0 0 394 67" fill="none" xmlns="http://www.w3.org/2000/svg">
<path d="M129 19.5188V20.1213H129.853C130.233 20.1213 130.517 20.2217 130.896 20.3221C131.181 20.523 131.37 20.9247 131.465 21.4267V33.1757C131.465 33.7782 131.276 34.1799 130.896 34.2803C130.612 34.4811 130.233 34.5816 129.853 34.4811H129V35.0837H134.879V34.4811H134.025C133.646 34.4811 133.362 34.3807 132.982 34.2803C132.698 34.0795 132.508 33.6778 132.413 33.1757V20.8242L139.24 35.1841H139.714L147.015 21.2259V33.1757C147.015 33.7782 146.826 34.1799 146.446 34.2803C146.162 34.4811 145.783 34.5816 145.403 34.4811H144.55V35.0837H153.273V34.4811H152.42C152.041 34.4811 151.756 34.3807 151.377 34.2803C151.092 34.0795 150.903 33.6778 150.808 33.1757V21.5272C150.808 20.9247 150.998 20.523 151.377 20.4226C151.661 20.2217 152.041 20.1213 152.42 20.2217H153.273V19.5188H146.636L141.137 30.2636L136.111 19.5188H129Z" fill="white"/>
<path d="M169.676 19.5188H154.979V20.1213H155.833C156.212 20.1213 156.497 20.2217 156.876 20.3221C157.16 20.523 157.35 20.9247 157.445 21.4267V33.1757C157.445 33.7782 157.255 34.1799 156.876 34.2803C156.591 34.4811 156.212 34.5816 155.833 34.4811H154.979V35.0837H169.581L170.53 30.1632H169.866C169.487 31.3682 169.012 32.1715 168.254 32.774C167.59 33.3765 166.832 33.6778 165.978 33.8786C165.22 34.0795 164.461 34.0795 163.892 34.0795C163.798 34.0795 163.703 34.0795 163.608 34.0795C163.513 34.0795 163.418 34.0795 163.323 34.0795C162.47 34.0795 161.901 33.9791 161.617 33.7782C161.427 33.5774 161.332 33.2761 161.332 32.8744V27.7531H161.712C162.091 27.7531 162.565 27.7531 163.039 27.8535C163.513 27.9539 163.892 28.2552 164.272 28.7573C164.651 29.2594 164.935 30.0627 165.03 31.1673H165.694V23.3347H165.03C164.935 24.4393 164.651 25.2426 164.272 25.7447C163.892 26.2468 163.513 26.5481 163.039 26.6485C162.565 26.7489 162.091 26.8493 161.712 26.7489H161.332V20.523H164.366C165.599 20.523 166.547 20.7238 167.211 21.1255C167.875 21.5272 168.349 22.0293 168.538 22.5314C168.823 23.0334 168.918 23.5355 168.918 23.9372H169.581V19.5188H169.676Z" fill="white"/>
<path d="M173.754 19.5188V20.1213H174.797C175.176 20.1213 175.461 20.1213 175.65 20.2217C175.84 20.3221 176.03 20.6234 176.125 20.9247C176.219 21.3263 176.314 21.9288 176.314 22.7322C176.314 25.7447 176.03 28.0544 175.461 29.7615C174.892 31.4686 174.228 32.5732 173.47 33.2761C172.711 33.8786 172.047 34.2803 171.478 34.1799H170.72L170.53 39H171.194C171.384 37.7949 171.668 36.8912 172.047 36.3891C172.427 35.887 172.996 35.4853 173.47 35.3849C174.039 35.2845 174.607 35.1841 175.176 35.1841H183.331C184.563 35.1841 185.511 35.4853 186.175 35.887C186.744 36.2887 187.218 36.7908 187.313 37.2929C187.503 37.795 187.597 38.297 187.597 38.5983V39H188.261V34.1799H187.218C186.649 34.1799 186.27 34.0795 186.08 33.979C185.891 33.8786 185.796 33.6778 185.796 33.3765V21.5272C185.796 20.9247 185.986 20.523 186.365 20.4226C186.649 20.2217 187.029 20.1213 187.408 20.2217H188.261V19.5188H173.754ZM181.908 34.1799H174.133C175.082 33.1757 175.84 32.0711 176.409 30.8661C176.883 29.6611 177.262 28.3556 177.357 27.0502C177.547 25.6443 177.547 24.2385 177.547 22.7322C177.547 22.5314 177.547 22.3305 177.547 22.1297C177.547 21.9288 177.547 21.728 177.547 21.5272V20.523H181.908V34.1799Z" fill="white"/>
<path d="M196.415 31.2678V21.5272C196.415 20.9247 196.605 20.523 196.984 20.4226C197.269 20.2217 197.648 20.1213 198.027 20.2217H198.88V19.5188H190.157V20.1213H191.011C191.39 20.1213 191.674 20.2217 192.054 20.3221C192.338 20.523 192.528 20.9247 192.622 21.4267V33.1757C192.622 33.7782 192.433 34.1799 192.054 34.2803C191.769 34.4811 191.39 34.5816 191.011 34.4811H190.157V35.0837H198.88V34.4811H198.027C197.932 34.4811 197.743 34.4811 197.553 34.3807C197.269 34.3807 197.079 34.1799 196.889 33.979C196.7 33.7782 196.605 33.477 196.605 32.9749L203.432 23.1339V32.9749C203.432 33.5774 203.242 33.9791 202.863 34.0795C202.578 34.2803 202.199 34.3807 201.82 34.2803H200.966V34.8828H209.595V34.2803H208.741C208.362 34.2803 208.078 34.1799 207.698 34.0795C207.414 33.8786 207.224 33.477 207.13 32.9749V21.5272C207.13 20.9247 207.319 20.523 207.698 20.4226C207.983 20.2217 208.362 20.1213 208.741 20.2217H209.595V19.5188H200.872V20.1213H201.725C201.82 20.1213 202.009 20.1213 202.294 20.2217C202.578 20.3221 202.768 20.4226 202.958 20.6234C203.147 20.8242 203.242 21.1255 203.242 21.5272L196.415 31.2678Z" fill="white"/>
<path d="M211.302 35.1841H226.283C227.516 35.1841 228.464 35.4853 229.033 35.887C229.602 36.2887 230.076 36.7908 230.265 37.2929C230.455 37.795 230.55 38.297 230.55 38.5983V39H231.213V34.1799H230.17C229.507 34.1799 229.127 34.0795 228.938 33.979C228.748 33.8786 228.653 33.6778 228.748 33.477V21.5272C228.748 20.9247 228.938 20.523 229.317 20.4226C229.602 20.2217 229.981 20.1213 230.36 20.2217H231.213V19.5188H222.49V20.1213H223.344C223.723 20.1213 224.007 20.2217 224.387 20.3221C224.671 20.523 224.861 20.9247 224.955 21.4267V34.0795H217.844V21.5272C217.844 20.9247 218.034 20.523 218.413 20.4226C218.698 20.2217 219.077 20.1213 219.456 20.2217H220.025V19.5188H211.302V20.1213H212.155C212.534 20.1213 212.819 20.2217 213.198 20.3221C213.483 20.523 213.672 20.9247 213.767 21.4267V33.1757C213.767 33.7782 213.577 34.1799 213.198 34.2803C212.914 34.4811 212.534 34.5816 212.155 34.4811H211.302V35.1841Z" fill="white"/>
<path d="M239.083 31.2678V21.5272C239.083 20.9247 239.273 20.523 239.652 20.4226C239.936 20.2217 240.316 20.1213 240.695 20.2217H241.548V19.5188H232.825V20.1213H233.679C234.058 20.1213 234.342 20.2217 234.722 20.3221C235.006 20.523 235.196 20.9247 235.29 21.4267V33.1757C235.29 33.7782 235.101 34.1799 234.722 34.2803C234.437 34.4811 234.058 34.5816 233.679 34.4811H232.825V35.0837H241.548V34.4811H240.695C240.6 34.4811 240.411 34.4811 240.221 34.3807C239.937 34.3807 239.747 34.1799 239.557 33.979C239.368 33.7782 239.273 33.477 239.273 32.9749L246.1 23.1339V32.9749C246.1 33.5774 245.91 33.9791 245.531 34.0795C245.246 34.2803 244.867 34.3807 244.488 34.2803H243.634V34.8828H252.358V34.2803H251.504C251.125 34.2803 250.841 34.1799 250.461 34.0795C250.177 33.8786 249.987 33.477 249.892 32.9749V21.5272C249.892 20.9247 250.082 20.523 250.461 20.4226C250.746 20.2217 251.125 20.1213 251.504 20.2217H252.358V19.5188H243.634V20.1213H244.488C244.583 20.1213 244.772 20.1213 245.057 20.2217C245.341 20.3221 245.531 20.4226 245.72 20.6234C245.91 20.8242 246.005 21.1255 246.005 21.5272L239.083 31.2678Z" fill="white"/>
<path d="M260.322 26.3473V21.5272C260.322 20.9247 260.512 20.523 260.891 20.4226C261.176 20.2217 261.555 20.1213 261.934 20.2217H262.788V19.5188H254.064V20.1213H254.918C255.297 20.1213 255.582 20.2217 255.961 20.3221C256.245 20.523 256.435 20.9247 256.53 21.4267V33.1757C256.53 33.7782 256.34 34.1799 255.961 34.2803C255.676 34.4811 255.297 34.5816 254.918 34.4811H254.064V35.0837H262.788V34.4811H261.934C261.555 34.4811 261.271 34.3807 260.891 34.2803C260.607 34.0795 260.417 33.6778 260.322 33.1757V27.3514H267.149V33.1757C267.149 33.7782 266.96 34.1799 266.58 34.2803C266.296 34.4811 265.917 34.5816 265.537 34.4811H264.684V35.0837H273.407V34.4811H272.554C272.175 34.4811 271.89 34.3807 271.511 34.2803C271.226 34.0795 271.037 33.6778 270.942 33.1757V21.5272C270.942 20.9247 271.132 20.523 271.511 20.3221C271.89 20.1213 272.175 20.1213 272.459 20.1213H273.312V19.5188H264.684V20.1213H265.537C265.917 20.1213 266.201 20.2217 266.58 20.3221C266.865 20.523 267.054 20.9247 267.149 21.4267V26.2468H260.322V26.3473Z" fill="white"/>
<path d="M291.138 19.2175H290.38C290.285 19.5188 290.19 19.82 290.095 19.9205C290 20.1213 289.716 20.2217 289.431 20.2217C289.242 20.2217 288.957 20.1213 288.673 20.0209C288.388 19.9205 288.009 19.7196 287.44 19.6192C286.966 19.4184 286.492 19.3179 286.018 19.3179C285.544 19.2175 285.07 19.2175 284.501 19.2175C282.699 19.2175 281.087 19.6192 279.665 20.3221C278.338 21.0251 277.295 22.0292 276.536 23.2343C275.778 24.4393 275.398 25.8451 275.398 27.3514C275.398 28.9581 275.778 30.2636 276.631 31.569C277.39 32.774 278.527 33.7782 279.855 34.4811C281.277 35.1841 282.794 35.5857 284.596 35.5857C285.259 35.5857 286.018 35.4853 286.871 35.2845C287.725 35.0836 288.578 34.682 289.431 34.0795C290.285 33.4769 291.043 32.5732 291.802 31.3682L291.043 30.9665C290.285 32.1715 289.431 33.0753 288.483 33.5774C287.535 34.0795 286.587 34.3807 285.544 34.2803C284.216 34.2803 283.173 33.979 282.32 33.3765C281.562 32.774 280.993 32.1715 280.613 31.3682C280.234 30.5648 280.044 29.7615 279.95 29.0585C279.855 28.3556 279.855 27.7531 279.855 27.3514C279.855 25.3431 280.234 23.8368 280.803 22.8326C281.372 21.8284 282.13 21.1255 282.984 20.8242C283.837 20.523 284.596 20.3221 285.259 20.3221C286.492 20.3221 287.63 20.7238 288.578 21.5272C289.526 22.3305 290.095 23.3347 290.38 24.5397H291.138V19.2175Z" fill="white"/>
<path d="M299.671 27.0502V21.5272C299.671 20.9247 299.861 20.523 300.24 20.4226C300.524 20.2217 300.904 20.1213 301.283 20.2217H302.136V19.5188H293.413V20.1213H294.266C294.646 20.1213 294.93 20.2217 295.309 20.3221C295.594 20.523 295.784 20.9247 295.878 21.4267V33.1757C295.878 33.7782 295.689 34.1799 295.309 34.2803C295.025 34.4811 294.646 34.5816 294.266 34.4811H293.413V35.0837H301.947V34.4811H301.283C300.904 34.4811 300.619 34.3807 300.24 34.2803C299.956 34.0795 299.766 33.6778 299.671 33.1757V28.2552L300.24 27.6527L304.127 33.0753C304.222 33.1757 304.317 33.2761 304.412 33.477C304.507 33.6778 304.602 33.7782 304.602 33.979C304.602 34.1799 304.507 34.2803 304.317 34.3807C304.127 34.4811 303.938 34.4811 303.653 34.4811H303.084V35.0837H310.765V34.4811C310.385 34.4811 310.101 34.3807 309.817 34.1799C309.532 33.9791 309.342 33.6778 309.058 33.3765L302.895 25.0418L306.024 21.9288C306.593 21.3263 307.162 20.9247 307.825 20.523C308.489 20.2217 309.342 20.0209 310.385 20.0209V19.5188H303.653V20.1213H304.602C304.981 20.1213 305.17 20.2217 305.36 20.3221C305.455 20.4226 305.55 20.6234 305.55 20.7238C305.55 20.8242 305.55 20.9247 305.455 21.1255C305.36 21.2259 305.265 21.4267 305.076 21.6276L299.671 27.0502Z" fill="white"/>
<path d="M317.781 31.2678V21.5272C317.781 20.9247 317.971 20.523 318.35 20.4226C318.635 20.2217 319.014 20.1213 319.393 20.2217H320.247V19.5188H311.523V20.1213H312.377C312.756 20.1213 313.041 20.2217 313.42 20.3221C313.704 20.523 313.894 20.9247 313.989 21.4267V33.1757C313.989 33.7782 313.799 34.1799 313.42 34.2803C313.135 34.4811 312.756 34.5816 312.377 34.4811H311.523V35.0837H320.247V34.4811H319.393C319.298 34.4811 319.109 34.4811 318.919 34.3807C318.635 34.3807 318.445 34.1799 318.255 33.979C318.066 33.7782 317.971 33.477 317.971 32.9749L324.798 23.1339V32.9749C324.798 33.5774 324.608 33.9791 324.229 34.0795C323.945 34.2803 323.565 34.3807 323.186 34.2803H322.333V34.8828H331.056V34.2803H330.202C329.823 34.2803 329.539 34.1799 329.159 34.0795C328.875 33.8786 328.685 33.477 328.591 32.9749V21.5272C328.591 20.9247 328.78 20.523 329.159 20.4226C329.444 20.2217 329.823 20.1213 330.202 20.2217H331.056V19.5188H322.333V20.1213H323.186C323.281 20.1213 323.47 20.1213 323.755 20.2217C324.039 20.3221 324.229 20.4226 324.419 20.6234C324.608 20.8242 324.703 21.1255 324.703 21.5272L317.781 31.2678Z" fill="white"/>
<path d="M339.021 31.2678V21.5272C339.021 20.9247 339.21 20.523 339.59 20.4226C339.874 20.2218 340.253 20.1213 340.633 20.2218H341.486V19.5188H332.763V20.1213H333.616C333.995 20.1213 334.28 20.2218 334.659 20.3222C334.943 20.523 335.133 20.9247 335.228 21.4268V33.1757C335.228 33.7782 335.038 34.1799 334.659 34.2803C334.375 34.4812 333.995 34.5816 333.616 34.4812H332.763V35.0837H341.486V34.4812H340.633C340.538 34.4812 340.348 34.4812 340.158 34.3808C339.874 34.3808 339.684 34.1799 339.495 33.9791C339.305 33.7782 339.21 33.477 339.21 32.9749L346.037 23.1339V32.9749C346.037 33.5774 345.848 33.9791 345.468 34.0795C345.184 34.2803 344.805 34.3808 344.425 34.2803H343.572V34.8828H352.295V34.2803H351.442C351.062 34.2803 350.778 34.1799 350.399 34.0795C350.114 33.8787 349.925 33.477 349.83 32.9749V21.5272C349.83 20.9247 350.019 20.523 350.399 20.4226C350.683 20.2218 351.062 20.1213 351.442 20.2218H352.295V19.5188H343.572V20.1213H344.425C344.52 20.1213 344.71 20.1213 344.994 20.2218C345.279 20.3222 345.468 20.4226 345.658 20.6234C345.848 20.8243 345.942 21.1255 345.942 21.5272L339.021 31.2678ZM342.434 17.6109C341.865 17.6109 341.486 17.5105 341.201 17.41C340.917 17.2092 340.727 17.1088 340.727 16.9079C340.727 16.8075 340.727 16.6067 340.822 16.5063C340.917 16.3054 340.917 16.205 340.917 16.0042C340.917 15.8033 340.822 15.6025 340.538 15.4017C340.348 15.1004 339.969 15 339.495 15C339.115 15 338.736 15.1004 338.452 15.3013C338.167 15.5021 337.978 15.9038 337.978 16.3054C337.978 16.9079 338.357 17.41 339.021 17.8117C339.779 18.2134 340.917 18.4142 342.434 18.5146C344.046 18.5146 345.184 18.3138 345.848 17.8117C346.606 17.41 346.891 16.9079 346.891 16.3054C346.891 15.9038 346.701 15.5021 346.416 15.3013C346.132 15.1004 345.848 15 345.373 15C344.899 15 344.615 15.1004 344.33 15.3013C344.046 15.5021 343.951 15.7029 343.951 15.9038C343.951 16.1046 343.951 16.205 344.046 16.4059C344.141 16.6067 344.141 16.7071 344.141 16.8075C344.141 17.0084 343.951 17.1088 343.667 17.3096C343.382 17.5105 343.003 17.6109 342.434 17.6109Z" fill="white"/>
<rect x="129" y="47" width="148" height="19" fill="white"/>
<path d="M302 62.6653H316.981C318.214 62.6653 319.162 62.9665 319.731 63.3682C320.3 63.7699 320.774 64.272 320.963 64.7741C321.153 65.2762 321.248 65.7782 321.248 66.0795V66.4812H321.912V61.6611H320.869C320.205 61.6611 319.826 61.5607 319.636 61.4603C319.446 61.3598 319.352 61.159 319.446 60.9582V49.0084C319.446 48.4059 319.636 48.0042 320.015 47.9038C320.3 47.7029 320.679 47.6025 321.058 47.7029H321.912V47H313.188V47.6025H314.042C314.421 47.6025 314.706 47.7029 315.085 47.8033C315.369 48.0042 315.559 48.4059 315.654 48.9079V61.5607H308.542V49.0084C308.542 48.4059 308.732 48.0042 309.111 47.9038C309.396 47.7029 309.775 47.6025 310.154 47.7029H311.008V47H302.284V47.6025H303.138C303.517 47.6025 303.802 47.7029 304.181 47.8033C304.465 48.0042 304.655 48.4059 304.75 48.9079V60.6569C304.75 61.2594 304.56 61.6611 304.181 61.7615C303.896 61.9623 303.517 62.0628 303.138 61.9623H302.284L302 62.6653Z" fill="white"/>
<path d="M338.031 47H323.429V47.6025H324.282C324.661 47.6025 324.946 47.7029 325.325 47.8033C325.61 48.0042 325.799 48.4059 325.894 48.9079V60.6569C325.894 61.2594 325.704 61.6611 325.325 61.7615C325.041 61.9623 324.661 62.0628 324.282 61.9623H323.429V62.5649H338.031L338.979 57.6444H338.315C337.936 58.8494 337.462 59.6527 336.703 60.2552C336.039 60.8577 335.281 61.159 334.428 61.3598C333.669 61.5607 332.91 61.5607 332.342 61.5607C332.247 61.5607 332.152 61.5607 332.057 61.5607C331.962 61.5607 331.867 61.5607 331.773 61.5607C330.919 61.5607 330.35 61.4603 330.066 61.2594C329.876 61.0586 329.781 60.7573 329.781 60.3556V55.2343H330.161C330.54 55.2343 331.014 55.2343 331.488 55.3347C331.962 55.4351 332.342 55.7364 332.721 56.2385C333.1 56.7406 333.385 57.5439 333.479 58.6485H334.143V50.8159H333.479C333.385 51.9205 333.1 52.7238 332.721 53.2259C332.342 53.728 331.962 54.0293 331.488 54.1297C331.014 54.2301 330.54 54.3305 330.161 54.2301H329.781V48.0042H332.816C334.048 48.0042 334.996 48.205 335.66 48.6067C336.324 49.0084 336.798 49.5105 336.988 50.0126C337.272 50.5146 337.367 51.0167 337.367 51.4184H338.031V47Z" fill="white"/>
<path d="M346.754 53.8285V49.0084C346.754 48.4059 346.944 48.0042 347.323 47.9038C347.607 47.7029 347.987 47.6025 348.366 47.7029H349.219V47H340.496V47.6025H341.349C341.729 47.6025 342.013 47.7029 342.392 47.8033C342.677 48.0042 342.867 48.4059 342.961 48.9079V60.6569C342.961 61.2594 342.772 61.6611 342.392 61.7615C342.108 61.9623 341.729 62.0628 341.349 61.9623H340.496V62.5649H349.219V61.9623H348.366C347.987 61.9623 347.702 61.8619 347.323 61.7615C347.038 61.5607 346.849 61.159 346.754 60.6569V54.8326H353.581V60.6569C353.581 61.2594 353.391 61.6611 353.012 61.7615C352.728 61.9623 352.348 62.0628 351.969 61.9623H351.116V62.5649H359.839V61.9623H358.985C358.606 61.9623 358.322 61.8619 357.942 61.7615C357.658 61.5607 357.468 61.159 357.374 60.6569V49.0084C357.374 48.4059 357.563 48.0042 357.942 47.8033C358.322 47.6025 358.606 47.6025 358.891 47.6025H359.744V47H351.116V47.6025H351.969C352.348 47.6025 352.633 47.7029 353.012 47.8033C353.296 48.0042 353.486 48.4059 353.581 48.9079V53.728H346.754V53.8285Z" fill="white"/>
<path d="M370.838 48.0042H371.596C372.165 48.0042 372.734 48.0042 373.303 48.1046C373.872 48.205 374.441 48.5063 374.82 49.0084C375.294 49.5105 375.578 50.3138 375.768 51.4184H376.432V47H360.977V51.4184H361.64C361.83 50.3138 362.114 49.5105 362.588 49.0084C363.063 48.5063 363.537 48.205 364.106 48.1046C364.674 48.0042 365.243 47.9038 365.812 48.0042H366.571V60.6569C366.571 61.2594 366.381 61.6611 366.002 61.7615C365.717 61.9623 365.338 62.0628 364.959 61.9623H363.916V62.5649H373.018V61.9623H371.975C371.596 61.9623 371.312 61.8619 370.932 61.7615C370.648 61.5607 370.458 61.159 370.364 60.6569V48.0042H370.838Z" fill="white"/>
<path d="M377.759 62.6653H386.766V62.0628H385.629C385.249 62.0628 384.965 61.9623 384.586 61.8619C384.301 61.6611 384.112 61.2594 384.017 60.7573V55.4351C384.301 55.4351 384.68 55.4351 384.965 55.4351C385.249 55.4351 385.629 55.4351 385.913 55.4351C387.809 55.4351 389.327 55.2343 390.369 54.7322C391.412 54.3305 392.076 53.728 392.455 53.0251C392.835 52.3222 393.024 51.7197 393.024 51.0167C393.024 50.113 392.74 49.41 392.266 48.8075C391.792 48.3054 391.223 47.9038 390.464 47.6025C389.801 47.3013 389.042 47.2008 388.473 47.1004C387.809 47 387.335 47 386.956 47H377.759V47.6025H378.612C378.991 47.6025 379.276 47.7029 379.655 47.8033C379.94 48.0042 380.129 48.4059 380.224 48.9079V60.6569C380.224 61.2594 380.034 61.6611 379.655 61.7615C379.371 61.9623 378.991 62.0628 378.612 61.9623H377.759V62.6653ZM384.112 48.0042H385.344C385.818 48.0042 386.292 48.0042 386.861 48.1046C387.43 48.205 387.809 48.5063 388.189 48.9079C388.568 49.3096 388.758 50.0126 388.758 51.0167C388.758 52.0209 388.568 52.8243 388.189 53.3264C387.809 53.8285 387.335 54.1297 386.766 54.2301C386.198 54.3305 385.723 54.431 385.249 54.431C385.06 54.431 384.87 54.431 384.68 54.431C384.491 54.431 384.301 54.3305 384.112 54.3305V48.0042Z" fill="white"/>
<path d="M76.7355 1.97481C71.9395 0.775819 66.6499 0.352645 61.8539 0L48.4534 0.141058L41.6121 0.916877C37.8035 0.916877 7.0529 5.57179 7.0529 17.6322C7.0529 20.4534 9.2393 21.864 11.7783 21.864C14.529 21.864 20.8766 19.6776 22.9219 18.3375C21.4408 20.5945 16.5743 31.1738 11.5668 31.1738C10.2267 31.1738 9.733 29.8338 8.67506 28.7758C7.89924 29.2695 6.98237 31.5264 6.98237 32.3728C6.98237 34.2066 8.32242 35.7582 10.2972 35.7582C15.3048 35.7582 22.2166 23.4861 24.262 19.5365C24.403 19.3249 24.4736 19.1133 24.5441 18.9723C24.8967 18.3375 25.6725 17.2796 26.9421 16.7859C27.5063 16.6448 29.6927 15.6574 29.7632 15.6574C30.1864 15.5164 30.539 15.3753 30.8212 15.3048C30.6801 15.5164 30.539 15.728 30.4685 15.9395C30.4685 15.9395 30.4685 15.9395 30.398 15.9395V16.0101C30.1864 16.3627 30.0453 16.6448 30.0453 16.6448C27.6474 20.3829 21.4408 30.7506 21.4408 35.2645C21.4408 37.0277 22.4282 38.2972 24.403 38.2972C26.2368 38.2972 27.7884 37.8741 29.6222 35.8287C29.4811 35.6877 29.4811 35.6171 29.4811 35.6171C28.6348 35.6877 27.7179 35.9698 27.5063 35.9698C25.8841 35.9698 24.7557 34.4887 24.7557 32.8665C24.7557 27.2242 30.1864 19.1839 33.9244 14.1058C33.995 13.8942 41.6121 11.3552 43.0932 11.3552C43.9395 11.3552 44.927 11.7783 44.927 12.9773C44.927 14.1763 41.0479 17.9849 41.0479 18.9018V19.6071C44.2922 16.2922 48.2418 12.7657 48.2418 9.30982C48.2418 6.77078 45.7733 5.21914 43.4458 5.21914C37.5214 5.21914 24.9673 13.2594 19.9597 13.2594C19.5365 13.2594 17.9144 13.4005 17.9144 11.9899C17.8438 5.00756 48.0302 1.76322 49.3703 1.6927L56.4232 1.48111L61.8539 1.62217C62.4887 1.6927 63.4055 1.90428 63.6171 1.90428H65.3803C66.0151 1.90428 71.7985 3.10327 72.8564 3.10327C77.0176 3.1738 105.511 11.2846 105.511 25.8136C105.511 44.0806 71.5869 48.9471 64.0403 48.9471H62.4181C62.2065 48.9471 60.937 49.1587 60.2317 49.2292L53.461 49.2997L48.9471 48.9471C41.7532 48.9471 2.82116 44.9975 2.82116 26.4484C2.82116 23.9798 2.96222 23.063 4.30227 20.3829H3.59698C0.634761 20.3829 0 26.66 0 27.2947C0 47.5365 46.267 50.4282 46.6196 50.4282L53.3904 50.7103H62.0655L66.2267 50.2872C74.7607 50.2872 89.4307 46.6902 96.4131 43.4458C100.081 41.7531 103.678 39.5667 107.416 36.3224C108.332 35.5466 111.718 30.9622 111.718 29.4106C111.718 29.199 112 26.6599 112 26.4484C112 10.3678 83.0831 3.52645 76.7355 1.97481Z" fill="white"/>
<path d="M47.889 27.2241C47.889 24.6145 46.1258 22.7102 43.3752 22.7102C40.6951 22.7102 38.8613 24.6145 38.8613 27.2241C38.8613 29.8336 40.6246 31.7379 43.3752 31.7379C46.1258 31.7379 47.889 29.7631 47.889 27.2241ZM41.1183 27.2241C41.1183 24.1913 42.2467 23.2744 43.4457 23.2744C44.6447 23.2744 45.7732 24.1913 45.7732 27.2241C45.7732 30.2568 44.6447 31.1737 43.4457 31.1737C42.2467 31.1737 41.1183 30.3273 41.1183 27.2241Z" fill="white"/>
<path d="M52.6146 24.0503C49.2997 24.0503 48.3828 25.9546 48.3828 27.1536C48.3828 29.9747 49.7229 30.2569 52.6146 30.2569H52.8967V30.4684C52.8967 31.1032 52.403 31.1737 52.1208 31.1737H51.8387L51.9093 31.6674H55.9999V31.3853H55.7884C55.4357 31.3853 55.0125 31.2443 55.0125 30.68V30.3274H55.2947C58.1863 30.3274 59.4559 29.7632 59.5264 27.2241C59.5264 26.0251 58.68 24.1208 55.2947 24.1208H55.0125V23.8387C55.0125 23.6271 55.1536 23.345 55.7884 23.345H55.9294L55.8589 22.8513L51.8387 22.9218V23.345H52.1208C52.8261 23.345 52.8967 23.8387 52.8967 23.9798V24.0503H52.6146ZM54.8715 24.7556C56.2115 24.7556 57.34 25.6019 57.34 27.2946C57.34 29.9042 55.8589 29.8337 54.8715 29.8337V24.7556ZM52.9672 24.8261V29.9042C51.9093 29.9042 50.4987 30.1863 50.4987 27.3652C50.4987 25.6019 51.6977 24.8261 52.9672 24.8261Z" fill="white"/>
<path d="M59.9495 31.1031H59.5264V31.4558H66.7203L67.214 29.4105L66.7203 29.2694C66.2266 31.2442 64.816 30.8916 63.9697 30.8916C63.8992 30.8916 63.7581 30.8916 63.6876 30.8916C62.7707 30.8916 62.7002 30.6094 62.7002 30.1863V27.2946H62.9118C63.476 27.2946 64.9571 27.083 65.0276 28.5641H65.5919V25.5314H65.0982C64.9571 27.0125 63.5465 26.8009 62.9823 26.8009H62.7707V23.2744H64.1813C66.015 23.2744 66.3677 24.3324 66.4382 24.9671L66.9319 24.8966L66.7908 22.7102H59.5264V23.0628H59.9495C60.2317 23.0628 60.7254 23.2039 60.7254 23.8387V30.3273C60.7254 30.9621 60.3022 31.1031 59.9495 31.1031Z" fill="white"/>
<path d="M73.2795 22.7809C72.7858 22.6398 72.3626 22.4988 71.8689 22.4988C69.1888 22.4988 67.4961 24.8968 67.4961 27.5063C67.4961 30.1159 69.2593 31.597 71.9394 31.597C72.9268 31.597 74.549 31.597 75.5364 28.9169L74.9722 28.6348C74.1258 30.5391 73.4205 30.8212 72.3626 30.8212C69.6825 30.8212 69.6825 27.9295 69.6825 27.1537C69.6825 23.7683 71.2341 23.063 72.2215 23.063C73.4205 23.063 74.1258 24.1209 74.2669 25.461H74.9016L74.7606 22.7104L74.2669 22.7809C74.1963 23.1335 74.6195 23.1335 74.2669 23.1335C74.0553 23.1335 73.8437 22.9925 73.2795 22.7809Z" fill="white"/>
<path d="M93.2396 27.1536C93.2396 24.5441 91.4764 22.6398 88.7258 22.6398C85.9751 22.5692 84.2119 24.5441 84.2119 27.1536C84.2119 29.7632 85.9751 31.6675 88.7258 31.6675C91.4764 31.6675 93.2396 29.6927 93.2396 27.1536ZM86.3983 27.1536C86.3983 24.1209 87.5268 23.204 88.7258 23.204C89.9248 23.204 91.0532 24.1209 91.0532 27.1536C91.0532 30.1864 89.9248 31.1032 88.7258 31.1032C87.5268 31.1032 86.3983 30.1864 86.3983 27.1536Z" fill="white"/>
<path d="M93.8743 31.2443H93.4512V31.5264H97.4713V31.1737C97.1892 31.1737 96.625 31.1032 96.625 30.3979L96.5544 28.3526C96.9071 28.3526 97.1892 28.4231 97.4713 28.4231C100.363 28.4231 101.28 26.6599 101.28 25.6019C101.28 23.0629 98.6703 22.8513 97.965 22.8513H93.4512V23.204H93.8743C94.1565 23.204 94.6502 23.345 94.6502 23.9798V30.4684C94.6502 31.1032 94.227 31.2443 93.8743 31.2443ZM96.4839 23.5566L97.2597 23.2745C97.8945 23.2745 98.9524 23.5566 98.9524 25.2493C98.9524 27.0125 98.1061 27.5768 97.4008 27.5768C97.1892 27.5768 96.6955 27.4357 96.4839 27.3652V23.5566Z" fill="white"/>
<path d="M81.6017 22.7809C81.108 22.6398 80.6849 22.4988 80.1912 22.4988C77.5111 22.4988 75.8184 24.8968 75.8184 27.5063C75.8184 30.1159 77.5816 31.597 80.2617 31.597C81.2491 31.597 82.8713 31.597 83.8587 28.9169L83.2944 28.6348C82.4481 30.5391 81.7428 30.8212 80.6849 30.8212C78.0048 30.8212 78.0048 27.9295 78.0048 27.1537C78.0048 23.7683 79.5564 23.063 80.5438 23.063C81.7428 23.063 82.4481 24.1209 82.5891 25.461H83.2239L83.0828 22.7104L82.5891 22.7809C82.5186 23.1335 82.9418 23.1335 82.5891 23.1335C82.3776 23.1335 82.166 22.9925 81.6017 22.7809Z" fill="white"/>
<path d="M30.8919 31.4559H30.4688V31.7381H34.4889V31.3854C34.2068 31.3854 33.6426 31.3149 33.6426 30.6096L33.572 28.5642C33.9247 28.5642 34.2068 28.6348 34.4889 28.6348C37.3806 28.6348 38.2975 26.8716 38.2975 25.8136C38.2975 23.2746 35.6879 23.063 34.9826 23.063H30.4688V23.4156H30.8919C31.174 23.4156 31.6677 23.5567 31.6677 24.1915V30.6801C31.6677 31.3149 31.2446 31.4559 30.8919 31.4559ZM33.5015 23.8388L34.2773 23.5567C34.9121 23.5567 35.97 23.8388 35.97 25.5315C35.97 27.2947 35.1237 27.859 34.4184 27.859C34.2068 27.859 33.7131 27.7179 33.5015 27.6474V23.8388Z" fill="white"/>
<path d="M152.164 60.12C151.452 60.12 150.84 60.004 150.328 59.772C149.816 59.532 149.416 59.168 149.128 58.68C148.84 58.184 148.684 57.568 148.66 56.832C148.652 56.488 148.648 56.148 148.648 55.812C148.648 55.476 148.652 55.132 148.66 54.78C148.684 54.052 148.844 53.444 149.14 52.956C149.436 52.468 149.84 52.1 150.352 51.852C150.872 51.604 151.476 51.48 152.164 51.48C152.852 51.48 153.456 51.604 153.976 51.852C154.496 52.1 154.904 52.468 155.2 52.956C155.496 53.444 155.656 54.052 155.68 54.78C155.696 55.132 155.704 55.476 155.704 55.812C155.704 56.148 155.696 56.488 155.68 56.832C155.656 57.568 155.5 58.184 155.212 58.68C154.924 59.168 154.52 59.532 154 59.772C153.488 60.004 152.876 60.12 152.164 60.12ZM152.164 58.74C152.684 58.74 153.108 58.588 153.436 58.284C153.764 57.972 153.94 57.468 153.964 56.772C153.98 56.42 153.988 56.096 153.988 55.8C153.988 55.496 153.98 55.172 153.964 54.828C153.948 54.364 153.86 53.988 153.7 53.7C153.548 53.404 153.34 53.192 153.076 53.064C152.812 52.928 152.508 52.86 152.164 52.86C151.828 52.86 151.528 52.928 151.264 53.064C151 53.192 150.788 53.404 150.628 53.7C150.476 53.988 150.392 54.364 150.376 54.828C150.368 55.172 150.364 55.496 150.364 55.8C150.364 56.096 150.368 56.42 150.376 56.772C150.4 57.468 150.576 57.972 150.904 58.284C151.232 58.588 151.652 58.74 152.164 58.74ZM160.52 60.12C159.776 60.12 159.144 59.992 158.624 59.736C158.112 59.472 157.72 59.1 157.448 58.62C157.176 58.132 157.024 57.548 156.992 56.868C156.984 56.54 156.98 56.188 156.98 55.812C156.98 55.436 156.984 55.076 156.992 54.732C157.024 54.06 157.176 53.48 157.448 52.992C157.728 52.504 158.124 52.132 158.636 51.876C159.156 51.612 159.784 51.48 160.52 51.48C161.064 51.48 161.552 51.552 161.984 51.696C162.416 51.84 162.784 52.04 163.088 52.296C163.392 52.544 163.628 52.836 163.796 53.172C163.964 53.508 164.052 53.872 164.06 54.264C164.068 54.336 164.044 54.396 163.988 54.444C163.94 54.492 163.88 54.516 163.808 54.516H162.668C162.58 54.516 162.508 54.496 162.452 54.456C162.396 54.408 162.356 54.332 162.332 54.228C162.204 53.7 161.984 53.34 161.672 53.148C161.36 52.956 160.972 52.86 160.508 52.86C159.972 52.86 159.544 53.012 159.224 53.316C158.904 53.612 158.732 54.104 158.708 54.792C158.684 55.448 158.684 56.12 158.708 56.808C158.732 57.496 158.904 57.992 159.224 58.296C159.544 58.592 159.972 58.74 160.508 58.74C160.972 58.74 161.36 58.644 161.672 58.452C161.992 58.252 162.212 57.892 162.332 57.372C162.356 57.26 162.396 57.184 162.452 57.144C162.508 57.104 162.58 57.084 162.668 57.084H163.808C163.88 57.084 163.94 57.108 163.988 57.156C164.044 57.204 164.068 57.264 164.06 57.336C164.052 57.728 163.964 58.092 163.796 58.428C163.628 58.764 163.392 59.06 163.088 59.316C162.784 59.564 162.416 59.76 161.984 59.904C161.552 60.048 161.064 60.12 160.52 60.12ZM165.771 60C165.691 60 165.623 59.976 165.567 59.928C165.511 59.872 165.483 59.8 165.483 59.712V51.9C165.483 51.812 165.511 51.74 165.567 51.684C165.623 51.628 165.691 51.6 165.771 51.6H166.863C166.951 51.6 167.019 51.628 167.067 51.684C167.123 51.74 167.151 51.812 167.151 51.9V54.996H170.691V51.9C170.691 51.812 170.719 51.74 170.775 51.684C170.831 51.628 170.899 51.6 170.979 51.6H172.059C172.147 51.6 172.219 51.628 172.275 51.684C172.331 51.74 172.359 51.812 172.359 51.9V59.712C172.359 59.792 172.331 59.86 172.275 59.916C172.219 59.972 172.147 60 172.059 60H170.979C170.899 60 170.831 59.972 170.775 59.916C170.719 59.86 170.691 59.792 170.691 59.712V56.496H167.151V59.712C167.151 59.792 167.123 59.86 167.067 59.916C167.019 59.972 166.951 60 166.863 60H165.771ZM177.453 60.12C176.741 60.12 176.129 60.004 175.617 59.772C175.105 59.532 174.705 59.168 174.417 58.68C174.129 58.184 173.973 57.568 173.949 56.832C173.941 56.488 173.937 56.148 173.937 55.812C173.937 55.476 173.941 55.132 173.949 54.78C173.973 54.052 174.133 53.444 174.429 52.956C174.725 52.468 175.129 52.1 175.641 51.852C176.161 51.604 176.765 51.48 177.453 51.48C178.141 51.48 178.745 51.604 179.265 51.852C179.785 52.1 180.193 52.468 180.489 52.956C180.785 53.444 180.945 54.052 180.969 54.78C180.985 55.132 180.993 55.476 180.993 55.812C180.993 56.148 180.985 56.488 180.969 56.832C180.945 57.568 180.789 58.184 180.501 58.68C180.213 59.168 179.809 59.532 179.289 59.772C178.777 60.004 178.165 60.12 177.453 60.12ZM177.453 58.74C177.973 58.74 178.397 58.588 178.725 58.284C179.053 57.972 179.229 57.468 179.253 56.772C179.269 56.42 179.277 56.096 179.277 55.8C179.277 55.496 179.269 55.172 179.253 54.828C179.237 54.364 179.149 53.988 178.989 53.7C178.837 53.404 178.629 53.192 178.365 53.064C178.101 52.928 177.797 52.86 177.453 52.86C177.117 52.86 176.817 52.928 176.553 53.064C176.289 53.192 176.077 53.404 175.917 53.7C175.765 53.988 175.681 54.364 175.665 54.828C175.657 55.172 175.653 55.496 175.653 55.8C175.653 56.096 175.657 56.42 175.665 56.772C175.689 57.468 175.865 57.972 176.193 58.284C176.521 58.588 176.941 58.74 177.453 58.74ZM182.857 60C182.777 60 182.709 59.972 182.653 59.916C182.597 59.86 182.569 59.792 182.569 59.712V51.9C182.569 51.812 182.597 51.74 182.653 51.684C182.709 51.628 182.777 51.6 182.857 51.6H186.337C186.985 51.6 187.513 51.7 187.921 51.9C188.329 52.092 188.629 52.36 188.821 52.704C189.021 53.048 189.121 53.448 189.121 53.904C189.121 54.208 189.065 54.476 188.953 54.708C188.849 54.932 188.717 55.116 188.557 55.26C188.405 55.404 188.253 55.516 188.101 55.596C188.413 55.74 188.689 55.98 188.929 56.316C189.169 56.652 189.289 57.052 189.289 57.516C189.289 57.996 189.181 58.424 188.965 58.8C188.749 59.176 188.429 59.472 188.005 59.688C187.581 59.896 187.057 60 186.433 60H182.857ZM184.237 58.728H186.241C186.673 58.728 187.001 58.612 187.225 58.38C187.449 58.14 187.561 57.852 187.561 57.516C187.561 57.164 187.445 56.872 187.213 56.64C186.989 56.408 186.665 56.292 186.241 56.292H184.237V58.728ZM184.237 55.044H186.121C186.545 55.044 186.861 54.944 187.069 54.744C187.285 54.536 187.393 54.268 187.393 53.94C187.393 53.604 187.285 53.34 187.069 53.148C186.861 52.956 186.545 52.86 186.121 52.86H184.237V55.044ZM190.279 60C190.215 60 190.155 59.976 190.099 59.928C190.051 59.88 190.027 59.82 190.027 59.748C190.027 59.716 190.035 59.68 190.051 59.64L192.943 51.9C192.967 51.82 193.011 51.752 193.075 51.696C193.147 51.632 193.243 51.6 193.363 51.6H194.671C194.791 51.6 194.883 51.632 194.947 51.696C195.011 51.752 195.059 51.82 195.091 51.9L197.983 59.64C197.991 59.68 197.995 59.716 197.995 59.748C197.995 59.82 197.971 59.88 197.923 59.928C197.875 59.976 197.819 60 197.755 60H196.711C196.599 60 196.515 59.976 196.459 59.928C196.411 59.872 196.379 59.82 196.363 59.772L195.799 58.308H192.235L191.671 59.772C191.655 59.82 191.619 59.872 191.563 59.928C191.515 59.976 191.435 60 191.323 60H190.279ZM192.655 56.928H195.379L194.011 53.22L192.655 56.928ZM199.404 60C199.324 60 199.256 59.976 199.2 59.928C199.144 59.872 199.116 59.8 199.116 59.712V51.9C199.116 51.812 199.144 51.74 199.2 51.684C199.256 51.628 199.324 51.6 199.404 51.6H200.496C200.584 51.6 200.652 51.628 200.7 51.684C200.756 51.74 200.784 51.812 200.784 51.9V54.996H204.324V51.9C204.324 51.812 204.352 51.74 204.408 51.684C204.464 51.628 204.532 51.6 204.612 51.6H205.692C205.78 51.6 205.852 51.628 205.908 51.684C205.964 51.74 205.992 51.812 205.992 51.9V59.712C205.992 59.792 205.964 59.86 205.908 59.916C205.852 59.972 205.78 60 205.692 60H204.612C204.532 60 204.464 59.972 204.408 59.916C204.352 59.86 204.324 59.792 204.324 59.712V56.496H200.784V59.712C200.784 59.792 200.756 59.86 200.7 59.916C200.652 59.972 200.584 60 200.496 60H199.404ZM210.888 60C210.808 60 210.74 59.972 210.684 59.916C210.628 59.86 210.6 59.792 210.6 59.712V51.9C210.6 51.812 210.628 51.74 210.684 51.684C210.74 51.628 210.808 51.6 210.888 51.6H214.368C215.016 51.6 215.544 51.7 215.952 51.9C216.36 52.092 216.66 52.36 216.852 52.704C217.052 53.048 217.152 53.448 217.152 53.904C217.152 54.208 217.096 54.476 216.984 54.708C216.88 54.932 216.748 55.116 216.588 55.26C216.436 55.404 216.284 55.516 216.132 55.596C216.444 55.74 216.72 55.98 216.96 56.316C217.2 56.652 217.32 57.052 217.32 57.516C217.32 57.996 217.212 58.424 216.996 58.8C216.78 59.176 216.46 59.472 216.036 59.688C215.612 59.896 215.088 60 214.464 60H210.888ZM212.268 58.728H214.272C214.704 58.728 215.032 58.612 215.256 58.38C215.48 58.14 215.592 57.852 215.592 57.516C215.592 57.164 215.476 56.872 215.244 56.64C215.02 56.408 214.696 56.292 214.272 56.292H212.268V58.728ZM212.268 55.044H214.152C214.576 55.044 214.892 54.944 215.1 54.744C215.316 54.536 215.424 54.268 215.424 53.94C215.424 53.604 215.316 53.34 215.1 53.148C214.892 52.956 214.576 52.86 214.152 52.86H212.268V55.044ZM223.957 60C223.869 60 223.797 59.972 223.741 59.916C223.693 59.86 223.669 59.792 223.669 59.712V53.496L221.845 54.9C221.773 54.948 221.701 54.968 221.629 54.96C221.557 54.944 221.493 54.9 221.437 54.828L220.933 54.18C220.885 54.108 220.865 54.032 220.873 53.952C220.889 53.872 220.933 53.808 221.005 53.76L223.693 51.684C223.741 51.644 223.789 51.62 223.837 51.612C223.885 51.604 223.937 51.6 223.993 51.6H225.049C225.129 51.6 225.197 51.628 225.253 51.684C225.309 51.74 225.337 51.808 225.337 51.888V59.712C225.337 59.792 225.309 59.86 225.253 59.916C225.197 59.972 225.129 60 225.049 60H223.957ZM228.396 60C228.324 60 228.264 59.976 228.216 59.928C228.168 59.872 228.144 59.808 228.144 59.736C228.144 59.696 228.148 59.664 228.156 59.64C228.172 59.616 228.184 59.596 228.192 59.58L229.956 57.144C229.804 57.184 229.64 57.2 229.464 57.192C229.056 57.184 228.676 57.108 228.324 56.964C227.98 56.812 227.676 56.612 227.412 56.364C227.156 56.108 226.952 55.816 226.8 55.488C226.656 55.152 226.583 54.788 226.583 54.396C226.583 54.036 226.652 53.684 226.788 53.34C226.924 52.988 227.124 52.672 227.388 52.392C227.66 52.112 227.996 51.892 228.396 51.732C228.804 51.564 229.28 51.48 229.824 51.48C230.36 51.48 230.832 51.556 231.24 51.708C231.648 51.86 231.988 52.072 232.26 52.344C232.54 52.608 232.748 52.912 232.884 53.256C233.028 53.6 233.1 53.964 233.1 54.348C233.1 54.692 233.044 55.012 232.932 55.308C232.82 55.604 232.68 55.876 232.512 56.124C232.352 56.364 232.192 56.6 232.032 56.832L229.92 59.76C229.888 59.8 229.84 59.852 229.776 59.916C229.72 59.972 229.632 60 229.512 60H228.396ZM229.836 55.92C230.124 55.92 230.384 55.86 230.616 55.74C230.856 55.612 231.044 55.436 231.18 55.212C231.324 54.98 231.396 54.708 231.396 54.396C231.396 54.076 231.324 53.804 231.18 53.58C231.044 53.348 230.856 53.172 230.616 53.052C230.376 52.924 230.116 52.86 229.836 52.86C229.548 52.86 229.284 52.924 229.044 53.052C228.812 53.172 228.624 53.348 228.48 53.58C228.344 53.804 228.276 54.076 228.276 54.396C228.276 54.708 228.344 54.98 228.48 55.212C228.624 55.436 228.812 55.612 229.044 55.74C229.284 55.86 229.548 55.92 229.836 55.92ZM235.802 60C235.73 60 235.67 59.976 235.622 59.928C235.574 59.872 235.55 59.808 235.55 59.736C235.55 59.696 235.554 59.664 235.562 59.64C235.578 59.616 235.59 59.596 235.598 59.58L237.362 57.144C237.21 57.184 237.046 57.2 236.87 57.192C236.462 57.184 236.082 57.108 235.73 56.964C235.386 56.812 235.082 56.612 234.818 56.364C234.562 56.108 234.358 55.816 234.206 55.488C234.062 55.152 233.99 54.788 233.99 54.396C233.99 54.036 234.058 53.684 234.194 53.34C234.33 52.988 234.53 52.672 234.794 52.392C235.066 52.112 235.402 51.892 235.802 51.732C236.21 51.564 236.686 51.48 237.23 51.48C237.766 51.48 238.238 51.556 238.646 51.708C239.054 51.86 239.394 52.072 239.666 52.344C239.946 52.608 240.154 52.912 240.29 53.256C240.434 53.6 240.506 53.964 240.506 54.348C240.506 54.692 240.45 55.012 240.338 55.308C240.226 55.604 240.086 55.876 239.918 56.124C239.758 56.364 239.598 56.6 239.438 56.832L237.326 59.76C237.294 59.8 237.246 59.852 237.182 59.916C237.126 59.972 237.038 60 236.918 60H235.802ZM237.242 55.92C237.53 55.92 237.79 55.86 238.022 55.74C238.262 55.612 238.45 55.436 238.586 55.212C238.73 54.98 238.802 54.708 238.802 54.396C238.802 54.076 238.73 53.804 238.586 53.58C238.45 53.348 238.262 53.172 238.022 53.052C237.782 52.924 237.522 52.86 237.242 52.86C236.954 52.86 236.69 52.924 236.45 53.052C236.218 53.172 236.03 53.348 235.886 53.58C235.75 53.804 235.682 54.076 235.682 54.396C235.682 54.708 235.75 54.98 235.886 55.212C236.03 55.436 236.218 55.612 236.45 55.74C236.69 55.86 236.954 55.92 237.242 55.92ZM241.828 60C241.748 60 241.68 59.972 241.624 59.916C241.568 59.86 241.54 59.792 241.54 59.712V59.1C241.54 59.028 241.556 58.944 241.588 58.848C241.628 58.744 241.712 58.64 241.84 58.536L243.736 56.652C244.264 56.236 244.688 55.884 245.008 55.596C245.336 55.3 245.572 55.032 245.716 54.792C245.868 54.544 245.944 54.3 245.944 54.06C245.944 53.7 245.844 53.408 245.644 53.184C245.452 52.96 245.144 52.848 244.72 52.848C244.44 52.848 244.204 52.908 244.012 53.028C243.82 53.14 243.668 53.292 243.556 53.484C243.452 53.676 243.38 53.888 243.34 54.12C243.324 54.224 243.28 54.296 243.208 54.336C243.136 54.376 243.064 54.396 242.992 54.396H241.924C241.852 54.396 241.792 54.372 241.744 54.324C241.696 54.276 241.672 54.22 241.672 54.156C241.68 53.812 241.752 53.48 241.888 53.16C242.024 52.832 242.22 52.544 242.476 52.296C242.74 52.04 243.06 51.836 243.436 51.684C243.812 51.532 244.236 51.456 244.708 51.456C245.372 51.456 245.92 51.568 246.352 51.792C246.792 52.016 247.12 52.32 247.336 52.704C247.56 53.088 247.672 53.52 247.672 54C247.672 54.376 247.6 54.724 247.456 55.044C247.312 55.356 247.104 55.66 246.832 55.956C246.56 56.244 246.232 56.54 245.848 56.844L244.144 58.572H247.564C247.652 58.572 247.72 58.6 247.768 58.656C247.824 58.704 247.852 58.772 247.852 58.86V59.712C247.852 59.792 247.824 59.86 247.768 59.916C247.72 59.972 247.652 60 247.564 60H241.828ZM252.396 60C252.316 60 252.248 59.972 252.192 59.916C252.136 59.86 252.108 59.792 252.108 59.712V51.9C252.108 51.812 252.136 51.74 252.192 51.684C252.248 51.628 252.316 51.6 252.396 51.6H257.292C257.38 51.6 257.452 51.628 257.508 51.684C257.564 51.74 257.592 51.812 257.592 51.9V52.74C257.592 52.82 257.564 52.888 257.508 52.944C257.452 53 257.38 53.028 257.292 53.028H253.776V59.712C253.776 59.792 253.748 59.86 253.692 59.916C253.644 59.972 253.576 60 253.488 60H252.396Z" fill="#5F8D6E"/>
<path d="M138.044 57.084C137.956 57.084 137.884 57.056 137.828 57C137.78 56.944 137.756 56.876 137.756 56.796V56.004C137.756 55.924 137.78 55.856 137.828 55.8C137.884 55.744 137.956 55.716 138.044 55.716H141.728C141.808 55.716 141.876 55.744 141.932 55.8C141.988 55.856 142.016 55.924 142.016 56.004V56.796C142.016 56.876 141.988 56.944 141.932 57C141.876 57.056 141.808 57.084 141.728 57.084H138.044Z" fill="#5F8D6E"/>
<path d="M264.044 57.084C263.956 57.084 263.884 57.056 263.828 57C263.78 56.944 263.756 56.876 263.756 56.796V56.004C263.756 55.924 263.78 55.856 263.828 55.8C263.884 55.744 263.956 55.716 264.044 55.716H267.728C267.808 55.716 267.876 55.744 267.932 55.8C267.988 55.856 268.016 55.924 268.016 56.004V56.796C268.016 56.876 267.988 56.944 267.932 57C267.876 57.056 267.808 57.084 267.728 57.084H264.044Z" fill="#5F8D6E"/>
</svg>
