<svg width="449" height="71" viewBox="0 0 449 71" fill="none" xmlns="http://www.w3.org/2000/svg">
<rect y="6" width="449" height="38" fill="#E9DD8C"/>
<path d="M133.224 18.4358V18.9973H134.019C134.372 18.9973 134.638 19.0909 134.991 19.1845C135.256 19.3717 135.433 19.746 135.521 20.2139V31.1636C135.521 31.7251 135.344 32.0994 134.991 32.193C134.726 32.3802 134.372 32.4738 134.019 32.3802H133.224V32.9417H138.702V32.3802H137.907C137.554 32.3802 137.289 32.2866 136.935 32.193C136.67 32.0059 136.493 31.6315 136.405 31.1636V19.6524L142.767 33.0353H143.209L150.013 20.0268V31.1636C150.013 31.7251 149.837 32.0994 149.483 32.193C149.218 32.3802 148.865 32.4738 148.511 32.3802H147.716V32.9417H155.846V32.3802H155.05C154.697 32.3802 154.432 32.2866 154.078 32.193C153.813 32.0059 153.636 31.6315 153.548 31.1636V20.3075C153.548 19.746 153.725 19.3717 154.078 19.2781C154.343 19.0909 154.697 18.9973 155.05 19.0909H155.846V18.4358H149.66L144.535 28.4496L139.851 18.4358H133.224Z" fill="#5F8D6E"/>
<path d="M171.133 18.4358H157.437V18.9973H158.232C158.585 18.9973 158.85 19.0909 159.204 19.1845C159.469 19.3717 159.646 19.746 159.734 20.2139V31.1636C159.734 31.7251 159.557 32.0994 159.204 32.193C158.939 32.3802 158.585 32.4738 158.232 32.3802H157.437V32.9417H171.045L171.929 28.356H171.31C170.957 29.479 170.515 30.2277 169.808 30.7892C169.189 31.3507 168.482 31.6315 167.687 31.8187C166.98 32.0059 166.273 32.0059 165.743 32.0059C165.655 32.0059 165.566 32.0059 165.478 32.0059C165.39 32.0059 165.301 32.0059 165.213 32.0059C164.417 32.0059 163.887 31.9123 163.622 31.7251C163.445 31.5379 163.357 31.2572 163.357 30.8828V26.1099H163.711C164.064 26.1099 164.506 26.1099 164.948 26.2035C165.39 26.2971 165.743 26.5778 166.096 27.0458C166.45 27.5137 166.715 28.2624 166.803 29.2918H167.422V21.9921H166.803C166.715 23.0215 166.45 23.7702 166.096 24.2382C165.743 24.7061 165.39 24.9869 164.948 25.0804C164.506 25.174 164.064 25.2676 163.711 25.174H163.357V19.3717H166.185C167.334 19.3717 168.217 19.5588 168.836 19.9332C169.454 20.3075 169.896 20.7755 170.073 21.2434C170.338 21.7113 170.426 22.1793 170.426 22.5536H171.045V18.4358H171.133Z" fill="#5F8D6E"/>
<path d="M174.933 18.4358V18.9973H175.905C176.259 18.9973 176.524 18.9973 176.701 19.0909C176.877 19.1845 177.054 19.4652 177.142 19.746C177.231 20.1204 177.319 20.6819 177.319 21.4306C177.319 24.2382 177.054 26.3907 176.524 27.9816C175.994 29.5726 175.375 30.6021 174.668 31.2572C173.961 31.8187 173.343 32.193 172.812 32.0994H172.105L171.929 36.5916H172.547C172.724 35.4686 172.989 34.6263 173.343 34.1583C173.696 33.6904 174.226 33.3161 174.668 33.2225C175.198 33.1289 175.728 33.0353 176.259 33.0353H183.858C185.007 33.0353 185.891 33.3161 186.509 33.6904C187.039 34.0648 187.481 34.5327 187.57 35.0006C187.746 35.4686 187.835 35.9365 187.835 36.2173V36.5916H188.453V32.0994H187.481C186.951 32.0994 186.598 32.0059 186.421 31.9123C186.244 31.8187 186.156 31.6315 186.156 31.3507V20.3075C186.156 19.746 186.332 19.3717 186.686 19.2781C186.951 19.0909 187.305 18.9973 187.658 19.0909H188.453V18.4358H174.933ZM182.533 32.0994H175.287C176.17 31.1636 176.877 30.1341 177.407 29.0111C177.849 27.888 178.203 26.6714 178.291 25.4548C178.468 24.1446 178.468 22.8344 178.468 21.4306C178.468 21.2434 178.468 21.0562 178.468 20.869C178.468 20.6819 178.468 20.4947 178.468 20.3075V19.3717H182.533V32.0994Z" fill="#5F8D6E"/>
<path d="M196.053 29.3854V20.3075C196.053 19.746 196.23 19.3717 196.583 19.2781C196.848 19.0909 197.202 18.9973 197.555 19.0909H198.35V18.4358H190.221V18.9973H191.016C191.369 18.9973 191.635 19.0909 191.988 19.1845C192.253 19.3717 192.43 19.746 192.518 20.2139V31.1636C192.518 31.7251 192.342 32.0994 191.988 32.193C191.723 32.3802 191.369 32.4738 191.016 32.3802H190.221V32.9417H198.35V32.3802H197.555C197.467 32.3802 197.29 32.3802 197.113 32.2866C196.848 32.2866 196.671 32.0994 196.495 31.9123C196.318 31.7251 196.23 31.4443 196.23 30.9764L202.592 21.8049V30.9764C202.592 31.5379 202.415 31.9123 202.062 32.0059C201.797 32.193 201.443 32.2866 201.09 32.193H200.295V32.7545H208.336V32.193H207.541C207.187 32.193 206.922 32.0994 206.569 32.0059C206.303 31.8187 206.127 31.4443 206.038 30.9764V20.3075C206.038 19.746 206.215 19.3717 206.569 19.2781C206.834 19.0909 207.187 18.9973 207.541 19.0909H208.336V18.4358H200.206V18.9973H201.001C201.09 18.9973 201.267 18.9973 201.532 19.0909C201.797 19.1845 201.973 19.2781 202.15 19.4652C202.327 19.6524 202.415 19.9332 202.415 20.3075L196.053 29.3854Z" fill="#5F8D6E"/>
<path d="M209.926 33.0353H223.888C225.036 33.0353 225.92 33.3161 226.45 33.6904C226.981 34.0648 227.422 34.5327 227.599 35.0006C227.776 35.4686 227.864 35.9365 227.864 36.2173V36.5916H228.483V32.0994H227.511C226.892 32.0994 226.539 32.0059 226.362 31.9123C226.185 31.8187 226.097 31.6315 226.185 31.4443V20.3075C226.185 19.746 226.362 19.3717 226.715 19.2781C226.981 19.0909 227.334 18.9973 227.687 19.0909H228.483V18.4358H220.353V18.9973H221.148C221.502 18.9973 221.767 19.0909 222.12 19.1845C222.385 19.3717 222.562 19.746 222.651 20.2139V32.0059H216.023V20.3075C216.023 19.746 216.2 19.3717 216.553 19.2781C216.818 19.0909 217.172 18.9973 217.525 19.0909H218.056V18.4358H209.926V18.9973H210.721C211.075 18.9973 211.34 19.0909 211.693 19.1845C211.958 19.3717 212.135 19.746 212.223 20.2139V31.1636C212.223 31.7251 212.047 32.0994 211.693 32.193C211.428 32.3802 211.075 32.4738 210.721 32.3802H209.926V33.0353Z" fill="#5F8D6E"/>
<path d="M235.818 29.3854V20.3075C235.818 19.746 235.994 19.3717 236.348 19.2781C236.613 19.0909 236.966 18.9973 237.32 19.0909H238.115V18.4358H229.985V18.9973H230.781C231.134 18.9973 231.399 19.0909 231.753 19.1845C232.018 19.3717 232.195 19.746 232.283 20.2139V31.1636C232.283 31.7251 232.106 32.0994 231.753 32.193C231.488 32.3802 231.134 32.4738 230.781 32.3802H229.985V32.9417H238.115V32.3802H237.32C237.231 32.3802 237.055 32.3802 236.878 32.2866C236.613 32.2866 236.436 32.0994 236.259 31.9123C236.083 31.7251 235.994 31.4443 235.994 30.9764L242.357 21.8049V30.9764C242.357 31.5379 242.18 31.9123 241.826 32.0059C241.561 32.193 241.208 32.2866 240.854 32.193H240.059V32.7545H248.189V32.193H247.394C247.04 32.193 246.775 32.0994 246.422 32.0059C246.156 31.8187 245.98 31.4443 245.891 30.9764V20.3075C245.891 19.746 246.068 19.3717 246.422 19.2781C246.687 19.0909 247.04 18.9973 247.394 19.0909H248.189V18.4358H240.059V18.9973H240.854C240.943 18.9973 241.12 18.9973 241.385 19.0909C241.65 19.1845 241.826 19.2781 242.003 19.4652C242.18 19.6524 242.268 19.9332 242.268 20.3075L235.818 29.3854Z" fill="#5F8D6E"/>
<path d="M255.612 24.7997V20.3075C255.612 19.746 255.788 19.3717 256.142 19.2781C256.407 19.0909 256.76 18.9973 257.114 19.0909H257.909V18.4358H249.779V18.9973H250.575C250.928 18.9973 251.193 19.0909 251.547 19.1845C251.812 19.3717 251.988 19.746 252.077 20.2139V31.1636C252.077 31.7251 251.9 32.0994 251.547 32.193C251.282 32.3802 250.928 32.4738 250.575 32.3802H249.779V32.9417H257.909V32.3802H257.114C256.76 32.3802 256.495 32.2866 256.142 32.193C255.877 32.0059 255.7 31.6315 255.612 31.1636V25.7355H261.974V31.1636C261.974 31.7251 261.797 32.0994 261.444 32.193C261.179 32.3802 260.825 32.4738 260.472 32.3802H259.676V32.9417H267.806V32.3802H267.011C266.657 32.3802 266.392 32.2866 266.039 32.193C265.774 32.0059 265.597 31.6315 265.509 31.1636V20.3075C265.509 19.746 265.685 19.3717 266.039 19.1845C266.392 18.9973 266.657 18.9973 266.922 18.9973H267.718V18.4358H259.676V18.9973H260.472C260.825 18.9973 261.09 19.0909 261.444 19.1845C261.709 19.3717 261.886 19.746 261.974 20.2139V24.7061H255.612V24.7997Z" fill="#5F8D6E"/>
<path d="M284.331 18.155H283.624C283.536 18.4358 283.447 18.7165 283.359 18.8101C283.271 18.9973 283.005 19.0909 282.74 19.0909C282.564 19.0909 282.299 18.9973 282.033 18.9037C281.768 18.8101 281.415 18.623 280.885 18.5294C280.443 18.3422 280.001 18.2486 279.559 18.2486C279.117 18.155 278.676 18.155 278.145 18.155C276.466 18.155 274.964 18.5294 273.639 19.1845C272.401 19.8396 271.429 20.7755 270.723 21.8985C270.016 23.0215 269.662 24.3317 269.662 25.7355C269.662 27.2329 270.016 28.4496 270.811 29.6662C271.518 30.7892 272.578 31.7251 273.815 32.3802C275.141 33.0353 276.555 33.4096 278.234 33.4096C278.852 33.4096 279.559 33.3161 280.354 33.1289C281.15 32.9417 281.945 32.5674 282.74 32.0059C283.536 31.4443 284.243 30.6021 284.95 29.479L284.243 29.1047C283.536 30.2277 282.74 31.07 281.857 31.5379C280.973 32.0059 280.089 32.2866 279.117 32.193C277.88 32.193 276.908 31.9123 276.113 31.3507C275.406 30.7892 274.876 30.2277 274.522 29.479C274.169 28.7303 273.992 27.9816 273.904 27.3265C273.815 26.6714 273.815 26.1099 273.815 25.7355C273.815 23.8638 274.169 22.46 274.699 21.5241C275.229 20.5883 275.936 19.9332 276.731 19.6524C277.527 19.3717 278.234 19.1845 278.852 19.1845C280.001 19.1845 281.061 19.5588 281.945 20.3075C282.829 21.0562 283.359 21.9921 283.624 23.1151H284.331V18.155Z" fill="#5F8D6E"/>
<path d="M292.284 25.4548V20.3075C292.284 19.746 292.461 19.3717 292.815 19.2781C293.08 19.0909 293.433 18.9973 293.787 19.0909H294.582V18.4358H286.452V18.9973H287.247C287.601 18.9973 287.866 19.0909 288.219 19.1845C288.485 19.3717 288.661 19.746 288.75 20.2139V31.1636C288.75 31.7251 288.573 32.0994 288.219 32.193C287.954 32.3802 287.601 32.4738 287.247 32.3802H286.452V32.9417H294.405V32.3802H293.787C293.433 32.3802 293.168 32.2866 292.815 32.193C292.549 32.0059 292.373 31.6315 292.284 31.1636V26.5778L292.815 26.0163L296.438 31.07C296.526 31.1636 296.614 31.2572 296.703 31.4443C296.791 31.6315 296.879 31.7251 296.879 31.9123C296.879 32.0994 296.791 32.193 296.614 32.2866C296.438 32.3802 296.261 32.3802 295.996 32.3802H295.466V32.9417H302.623V32.3802C302.27 32.3802 302.005 32.2866 301.74 32.0994C301.474 31.9123 301.298 31.6315 301.033 31.3507L295.289 23.5831L298.205 20.6819C298.735 20.1204 299.265 19.746 299.884 19.3717C300.502 19.0909 301.298 18.9037 302.27 18.9037V18.4358H295.996V18.9973H296.879C297.233 18.9973 297.41 19.0909 297.586 19.1845C297.675 19.2781 297.763 19.4652 297.763 19.5588C297.763 19.6524 297.763 19.746 297.675 19.9332C297.586 20.0268 297.498 20.2139 297.321 20.4011L292.284 25.4548Z" fill="#5F8D6E"/>
<path d="M309.161 29.3854V20.3075C309.161 19.746 309.338 19.3717 309.692 19.2781C309.957 19.0909 310.31 18.9973 310.664 19.0909H311.459V18.4358H303.329V18.9973H304.124C304.478 18.9973 304.743 19.0909 305.096 19.1845C305.362 19.3717 305.538 19.746 305.627 20.2139V31.1636C305.627 31.7251 305.45 32.0994 305.096 32.193C304.831 32.3802 304.478 32.4738 304.124 32.3802H303.329V32.9417H311.459V32.3802H310.664C310.575 32.3802 310.398 32.3802 310.222 32.2866C309.957 32.2866 309.78 32.0994 309.603 31.9123C309.426 31.7251 309.338 31.4443 309.338 30.9764L315.7 21.8049V30.9764C315.7 31.5379 315.524 31.9123 315.17 32.0059C314.905 32.193 314.552 32.2866 314.198 32.193H313.403V32.7545H321.533V32.193H320.737C320.384 32.193 320.119 32.0994 319.765 32.0059C319.5 31.8187 319.323 31.4443 319.235 30.9764V20.3075C319.235 19.746 319.412 19.3717 319.765 19.2781C320.03 19.0909 320.384 18.9973 320.737 19.0909H321.533V18.4358H313.403V18.9973H314.198C314.287 18.9973 314.463 18.9973 314.728 19.0909C314.994 19.1845 315.17 19.2781 315.347 19.4652C315.524 19.6524 315.612 19.9332 315.612 20.3075L309.161 29.3854Z" fill="#5F8D6E"/>
<path d="M328.956 29.3854V20.3075C328.956 19.746 329.133 19.3716 329.486 19.278C329.752 19.0909 330.105 18.9973 330.458 19.0909H331.254V18.4358H323.124V18.9973H323.919C324.273 18.9973 324.538 19.0909 324.891 19.1845C325.156 19.3716 325.333 19.746 325.422 20.2139V31.1635C325.422 31.7251 325.245 32.0994 324.891 32.193C324.626 32.3802 324.273 32.4738 323.919 32.3802H323.124V32.9417H331.254V32.3802H330.458C330.37 32.3802 330.193 32.3802 330.017 32.2866C329.752 32.2866 329.575 32.0994 329.398 31.9122C329.221 31.7251 329.133 31.4443 329.133 30.9764L335.495 21.8049V30.9764C335.495 31.5379 335.319 31.9122 334.965 32.0058C334.7 32.193 334.347 32.2866 333.993 32.193H333.198V32.7545H341.328V32.193H340.532C340.179 32.193 339.914 32.0994 339.56 32.0058C339.295 31.8187 339.118 31.4443 339.03 30.9764V20.3075C339.03 19.746 339.207 19.3716 339.56 19.278C339.825 19.0909 340.179 18.9973 340.532 19.0909H341.328V18.4358H333.198V18.9973H333.993C334.081 18.9973 334.258 18.9973 334.523 19.0909C334.788 19.1845 334.965 19.278 335.142 19.4652C335.319 19.6524 335.407 19.9331 335.407 20.3075L328.956 29.3854ZM332.137 16.6576C331.607 16.6576 331.254 16.564 330.989 16.4704C330.724 16.2833 330.547 16.1897 330.547 16.0025C330.547 15.9089 330.547 15.7218 330.635 15.6282C330.724 15.441 330.724 15.3474 330.724 15.1602C330.724 14.9731 330.635 14.7859 330.37 14.5987C330.193 14.318 329.84 14.2244 329.398 14.2244C329.045 14.2244 328.691 14.318 328.426 14.5051C328.161 14.6923 327.984 15.0666 327.984 15.441C327.984 16.0025 328.338 16.4704 328.956 16.8448C329.663 17.2191 330.724 17.4063 332.137 17.4999C333.64 17.4999 334.7 17.3127 335.319 16.8448C336.026 16.4704 336.291 16.0025 336.291 15.441C336.291 15.0666 336.114 14.6923 335.849 14.5051C335.584 14.318 335.319 14.2244 334.877 14.2244C334.435 14.2244 334.17 14.318 333.905 14.5051C333.64 14.6923 333.551 14.8795 333.551 15.0666C333.551 15.2538 333.551 15.3474 333.64 15.5346C333.728 15.7218 333.728 15.8153 333.728 15.9089C333.728 16.0961 333.551 16.1897 333.286 16.3769C333.021 16.564 332.668 16.6576 332.137 16.6576Z" fill="#5F8D6E"/>
<rect x="133.224" y="44.0474" width="137.931" height="17.7074" fill="#5F8D6E"/>
<path d="M353.168 32.5517H367.13C368.279 32.5517 369.162 32.8324 369.693 33.2068C370.223 33.5811 370.665 34.049 370.841 34.517C371.018 34.9849 371.106 35.4528 371.106 35.7336V36.108H371.725V31.6158H370.753C370.134 31.6158 369.781 31.5222 369.604 31.4286C369.427 31.335 369.339 31.1479 369.427 30.9607V19.8239C369.427 19.2624 369.604 18.888 369.958 18.7944C370.223 18.6073 370.576 18.5137 370.93 18.6073H371.725V17.9521H363.595V18.5137H364.391C364.744 18.5137 365.009 18.6073 365.363 18.7008C365.628 18.888 365.804 19.2624 365.893 19.7303V31.5222H359.265V19.8239C359.265 19.2624 359.442 18.888 359.795 18.7944C360.061 18.6073 360.414 18.5137 360.767 18.6073H361.563V17.9521H353.433V18.5137H354.228C354.582 18.5137 354.847 18.6073 355.2 18.7008C355.465 18.888 355.642 19.2624 355.731 19.7303V30.6799C355.731 31.2415 355.554 31.6158 355.2 31.7094C354.935 31.8966 354.582 31.9901 354.228 31.8966H353.433L353.168 32.5517Z" fill="#5F8D6E"/>
<path d="M386.747 17.9521H373.139V18.5137H373.934C374.287 18.5137 374.553 18.6073 374.906 18.7008C375.171 18.888 375.348 19.2624 375.436 19.7303V30.6799C375.436 31.2415 375.259 31.6158 374.906 31.7094C374.641 31.8966 374.287 31.9901 373.934 31.8966H373.139V32.4581H386.747L387.631 27.8723H387.012C386.659 28.9954 386.217 29.7441 385.51 30.3056C384.891 30.8671 384.184 31.1479 383.389 31.335C382.682 31.5222 381.975 31.5222 381.445 31.5222C381.357 31.5222 381.268 31.5222 381.18 31.5222C381.092 31.5222 381.003 31.5222 380.915 31.5222C380.12 31.5222 379.589 31.4286 379.324 31.2415C379.148 31.0543 379.059 30.7735 379.059 30.3992V25.6263H379.413C379.766 25.6263 380.208 25.6263 380.65 25.7198C381.092 25.8134 381.445 26.0942 381.799 26.5621C382.152 27.0301 382.417 27.7787 382.506 28.8082H383.124V21.5084H382.506C382.417 22.5379 382.152 23.2866 381.799 23.7545C381.445 24.2225 381.092 24.5032 380.65 24.5968C380.208 24.6904 379.766 24.784 379.413 24.6904H379.059V18.888H381.887C383.036 18.888 383.919 19.0752 384.538 19.4495C385.157 19.8239 385.598 20.2918 385.775 20.7597C386.04 21.2277 386.129 21.6956 386.129 22.07H386.747V17.9521Z" fill="#5F8D6E"/>
<path d="M394.877 24.316V19.8239C394.877 19.2624 395.054 18.888 395.407 18.7944C395.672 18.6073 396.026 18.5137 396.379 18.6073H397.175V17.9521H389.045V18.5137H389.84C390.194 18.5137 390.459 18.6073 390.812 18.7008C391.077 18.888 391.254 19.2624 391.342 19.7303V30.6799C391.342 31.2415 391.166 31.6158 390.812 31.7094C390.547 31.8966 390.194 31.9901 389.84 31.8966H389.045V32.4581H397.175V31.8966H396.379C396.026 31.8966 395.761 31.803 395.407 31.7094C395.142 31.5222 394.965 31.1479 394.877 30.6799V25.2519H401.24V30.6799C401.24 31.2415 401.063 31.6158 400.709 31.7094C400.444 31.8966 400.091 31.9901 399.737 31.8966H398.942V32.4581H407.072V31.8966H406.276C405.923 31.8966 405.658 31.803 405.304 31.7094C405.039 31.5222 404.863 31.1479 404.774 30.6799V19.8239C404.774 19.2624 404.951 18.888 405.304 18.7008C405.658 18.5137 405.923 18.5137 406.188 18.5137H406.983V17.9521H398.942V18.5137H399.737C400.091 18.5137 400.356 18.6073 400.709 18.7008C400.974 18.888 401.151 19.2624 401.24 19.7303V24.2225H394.877V24.316Z" fill="#5F8D6E"/>
<path d="M417.322 18.888H418.029C418.559 18.888 419.089 18.888 419.62 18.9816C420.15 19.0752 420.68 19.3559 421.033 19.8239C421.475 20.2918 421.74 21.0405 421.917 22.07H422.536V17.9521H408.132V22.07H408.75C408.927 21.0405 409.192 20.2918 409.634 19.8239C410.076 19.3559 410.518 19.0752 411.048 18.9816C411.578 18.888 412.108 18.7944 412.639 18.888H413.345V30.6799C413.345 31.2415 413.169 31.6158 412.815 31.7094C412.55 31.8966 412.197 31.9901 411.843 31.8966H410.871V32.4581H419.354V31.8966H418.382C418.029 31.8966 417.764 31.803 417.41 31.7094C417.145 31.5222 416.969 31.1479 416.88 30.6799V18.888H417.322Z" fill="#5F8D6E"/>
<path d="M423.773 32.5517H432.168V31.9901H431.108C430.754 31.9901 430.489 31.8966 430.136 31.803C429.871 31.6158 429.694 31.2415 429.606 30.7735V25.8134C429.871 25.8134 430.224 25.8134 430.489 25.8134C430.754 25.8134 431.108 25.8134 431.373 25.8134C433.14 25.8134 434.554 25.6263 435.526 25.1583C436.498 24.784 437.117 24.2225 437.47 23.5673C437.824 22.9122 438 22.3507 438 21.6956C438 20.8533 437.735 20.1982 437.294 19.6367C436.852 19.1688 436.322 18.7944 435.615 18.5137C434.996 18.2329 434.289 18.1393 433.759 18.0457C433.14 17.9521 432.698 17.9521 432.345 17.9521H423.773V18.5137H424.569C424.922 18.5137 425.187 18.6073 425.541 18.7008C425.806 18.888 425.983 19.2624 426.071 19.7303V30.6799C426.071 31.2415 425.894 31.6158 425.541 31.7094C425.276 31.8966 424.922 31.9901 424.569 31.8966H423.773V32.5517ZM429.694 18.888H430.843C431.285 18.888 431.726 18.888 432.257 18.9816C432.787 19.0752 433.14 19.3559 433.494 19.7303C433.847 20.1046 434.024 20.7597 434.024 21.6956C434.024 22.6315 433.847 23.3802 433.494 23.8481C433.14 24.316 432.698 24.5968 432.168 24.6904C431.638 24.784 431.196 24.8776 430.754 24.8776C430.578 24.8776 430.401 24.8776 430.224 24.8776C430.047 24.8776 429.871 24.784 429.694 24.784V18.888Z" fill="#5F8D6E"/>
<path d="M84.515 2.08533C80.0453 0.96791 75.1155 0.573526 70.6458 0.244873L58.157 0.376334L51.7811 1.09937C48.2316 1.09937 19.5731 5.4376 19.5731 16.6775C19.5731 19.3068 21.6107 20.6214 23.977 20.6214C26.5405 20.6214 32.4563 18.5837 34.3625 17.3348C32.9821 19.4382 28.4467 29.2978 23.7798 29.2978C22.5309 29.2978 22.0708 28.0489 21.0849 27.063C20.3618 27.5231 19.5073 29.6265 19.5073 30.4152C19.5073 32.1242 20.7562 33.5703 22.5967 33.5703C27.2636 33.5703 33.7052 22.1332 35.6113 18.4523C35.7428 18.2551 35.8085 18.0579 35.8743 17.9264C36.2029 17.3348 36.926 16.3489 38.1091 15.8888C38.635 15.7573 40.6726 14.8371 40.7383 14.8371C41.1327 14.7056 41.4614 14.5742 41.7243 14.5084C41.5928 14.7056 41.4614 14.9028 41.3956 15.1C41.3956 15.1 41.3956 15.1 41.3299 15.1V15.1657C41.1327 15.4944 41.0013 15.7573 41.0013 15.7573C38.7664 19.241 32.9821 28.9034 32.9821 33.1102C32.9821 34.7535 33.9023 35.9366 35.7428 35.9366C37.4518 35.9366 38.8979 35.5422 40.6069 33.636C40.4754 33.5046 40.4754 33.4389 40.4754 33.4389C39.6866 33.5046 38.8321 33.7675 38.635 33.7675C37.1232 33.7675 36.0715 32.3872 36.0715 30.8754C36.0715 25.6169 41.1327 18.1236 44.6164 13.391C44.6822 13.1938 51.7811 10.8275 53.1614 10.8275C53.9502 10.8275 54.8704 11.2219 54.8704 12.3393C54.8704 13.4567 51.2552 17.0062 51.2552 17.8607V18.518C54.2789 15.4287 57.9598 12.1421 57.9598 8.92132C57.9598 6.55502 55.6592 5.10894 53.4901 5.10894C47.9687 5.10894 36.2687 12.6022 31.6018 12.6022C31.2074 12.6022 29.6956 12.7337 29.6956 11.4191C29.6299 4.91175 57.7626 1.88814 59.0115 1.82241L65.5845 1.62522L70.6458 1.75668C71.2374 1.82241 72.0919 2.0196 72.2891 2.0196H73.9323C74.5239 2.0196 79.9138 3.13702 80.8998 3.13702C84.7779 3.20275 111.333 10.7618 111.333 24.3023C111.333 41.3265 79.7166 45.862 72.6834 45.862H71.1716C70.9744 45.862 69.7913 46.0591 69.134 46.1249L62.8238 46.1906L58.6171 45.862C51.9126 45.862 15.6292 42.181 15.6292 24.8939C15.6292 22.5933 15.7607 21.7388 17.0096 19.241H16.3523C13.5916 19.241 13 25.0911 13 25.6826C13 44.5473 56.1193 47.2423 56.448 47.2423L62.7581 47.5052H70.843L74.7211 47.1108C82.6745 47.1108 96.3465 43.7586 102.854 40.735C106.272 39.1574 109.624 37.1198 113.108 34.0962C113.962 33.3731 117.117 29.1006 117.117 27.6546C117.117 27.4574 117.38 25.0911 117.38 24.8939C117.38 9.90728 90.4307 3.53141 84.515 2.08533Z" fill="#5F8D6E"/>
<path d="M57.6313 25.6167C57.6313 23.1846 55.988 21.4099 53.4245 21.4099C50.9268 21.4099 49.2178 23.1846 49.2178 25.6167C49.2178 28.0487 50.861 29.8234 53.4245 29.8234C55.988 29.8234 57.6313 27.983 57.6313 25.6167ZM51.3212 25.6167C51.3212 22.7903 52.3728 21.9358 53.4903 21.9358C54.6077 21.9358 55.6594 22.7903 55.6594 25.6167C55.6594 28.4431 54.6077 29.2976 53.4903 29.2976C52.3728 29.2976 51.3212 28.5088 51.3212 25.6167Z" fill="#5F8D6E"/>
<path d="M62.0347 22.6589C58.9453 22.6589 58.0908 24.4337 58.0908 25.5511C58.0908 28.1803 59.3397 28.4432 62.0347 28.4432H62.2976V28.6404C62.2976 29.232 61.8375 29.2977 61.5745 29.2977H61.3116L61.3774 29.7578H65.1897V29.4949H64.9925C64.6639 29.4949 64.2695 29.3635 64.2695 28.8376V28.509H64.5324C67.2274 28.509 68.4105 27.9831 68.4763 25.6168C68.4763 24.4994 67.6875 22.7247 64.5324 22.7247H64.2695V22.4617C64.2695 22.2645 64.401 22.0016 64.9925 22.0016H65.124L65.0583 21.5415L61.3116 21.6072V22.0016H61.5745C62.2319 22.0016 62.2976 22.4617 62.2976 22.5932V22.6589H62.0347ZM64.138 23.3162C65.3869 23.3162 66.4386 24.105 66.4386 25.6825C66.4386 28.1146 65.0583 28.0488 64.138 28.0488V23.3162ZM62.3633 23.382V28.1146C61.3774 28.1146 60.0627 28.3775 60.0627 25.7483C60.0627 24.105 61.1802 23.382 62.3633 23.382Z" fill="#5F8D6E"/>
<path d="M68.8709 29.2319H68.4766V29.5605H75.1811L75.6412 27.6543L75.1811 27.5229C74.721 29.3633 73.4064 29.0347 72.6176 29.0347C72.5519 29.0347 72.4204 29.0347 72.3547 29.0347C71.5002 29.0347 71.4344 28.7717 71.4344 28.3774V25.6824H71.6316C72.1575 25.6824 73.5378 25.4852 73.6036 26.8656H74.1294V24.0391H73.6693C73.5378 25.4195 72.2232 25.2223 71.6974 25.2223H71.5002V21.9358H72.8148C74.5238 21.9358 74.8524 22.9217 74.9182 23.5133L75.3783 23.4476L75.2468 21.4099H68.4766V21.7386H68.8709C69.1339 21.7386 69.594 21.87 69.594 22.4616V28.5088C69.594 29.1004 69.1996 29.2319 68.8709 29.2319Z" fill="#5F8D6E"/>
<path d="M81.2942 21.4758C80.8341 21.3444 80.4397 21.2129 79.9796 21.2129C77.4818 21.2129 75.9043 23.4477 75.9043 25.8798C75.9043 28.3118 77.5476 29.6921 80.0453 29.6921C80.9656 29.6921 82.4774 29.6921 83.3976 27.1944L82.8718 26.9315C82.083 28.7062 81.4257 28.9691 80.4397 28.9691C77.9419 28.9691 77.942 26.2742 77.942 25.5511C77.942 22.396 79.388 21.7387 80.3083 21.7387C81.4257 21.7387 82.083 22.7247 82.2144 23.9736H82.806L82.6746 21.4101L82.2144 21.4758C82.1487 21.8045 82.5431 21.8045 82.2144 21.8045C82.0173 21.8045 81.8201 21.673 81.2942 21.4758Z" fill="#5F8D6E"/>
<path d="M99.8959 25.5512C99.8959 23.1192 98.2527 21.3445 95.6892 21.3445C93.1257 21.2787 91.4824 23.1192 91.4824 25.5512C91.4824 27.9833 93.1257 29.758 95.6892 29.758C98.2527 29.758 99.8959 27.9175 99.8959 25.5512ZM93.5201 25.5512C93.5201 22.7248 94.5718 21.8703 95.6892 21.8703C96.8066 21.8703 97.8583 22.7248 97.8583 25.5512C97.8583 28.3777 96.8066 29.2322 95.6892 29.2322C94.5718 29.2322 93.5201 28.3777 93.5201 25.5512Z" fill="#5F8D6E"/>
<path d="M100.488 29.3635H100.094V29.6264H103.84V29.2977C103.577 29.2977 103.052 29.232 103.052 28.5747L102.986 26.6685C103.315 26.6685 103.577 26.7342 103.84 26.7342C106.535 26.7342 107.39 25.091 107.39 24.105C107.39 21.7387 104.958 21.5415 104.301 21.5415H100.094V21.8702H100.488C100.751 21.8702 101.211 22.0016 101.211 22.5932V28.6404C101.211 29.232 100.817 29.3635 100.488 29.3635ZM102.92 22.1988L103.643 21.9359C104.235 21.9359 105.221 22.1988 105.221 23.7763C105.221 25.4196 104.432 25.9455 103.775 25.9455C103.577 25.9455 103.117 25.814 102.92 25.7483V22.1988Z" fill="#5F8D6E"/>
<path d="M89.051 21.4758C88.5909 21.3444 88.1965 21.2129 87.7364 21.2129C85.2387 21.2129 83.6611 23.4477 83.6611 25.8798C83.6611 28.3118 85.3044 29.6921 87.8022 29.6921C88.7224 29.6921 90.2342 29.6921 91.1544 27.1944L90.6286 26.9315C89.8398 28.7062 89.1825 28.9691 88.1965 28.9691C85.6988 28.9691 85.6988 26.2742 85.6988 25.5511C85.6988 22.396 87.1449 21.7387 88.0651 21.7387C89.1825 21.7387 89.8398 22.7247 89.9713 23.9736H90.5629L90.4314 21.4101L89.9713 21.4758C89.9055 21.8045 90.2999 21.8045 89.9713 21.8045C89.7741 21.8045 89.5769 21.673 89.051 21.4758Z" fill="#5F8D6E"/>
<path d="M41.7899 29.5607H41.3955V29.8236H45.1422V29.495C44.8792 29.495 44.3534 29.4293 44.3534 28.772L44.2877 26.8658C44.6163 26.8658 44.8792 26.9315 45.1422 26.9315C47.8371 26.9315 48.6916 25.2882 48.6916 24.3023C48.6916 21.936 46.2596 21.7388 45.6023 21.7388H41.3955V22.0674H41.7899C42.0528 22.0674 42.5129 22.1989 42.5129 22.7905V28.8377C42.5129 29.4293 42.1185 29.5607 41.7899 29.5607ZM44.2219 22.4618L44.945 22.1989C45.5365 22.1989 46.5225 22.4618 46.5225 24.0393C46.5225 25.6826 45.7337 26.2085 45.0764 26.2085C44.8792 26.2085 44.4191 26.077 44.2219 26.0113V22.4618Z" fill="#5F8D6E"/>
<path d="M155.095 57.0311C154.383 57.0311 153.771 56.9151 153.259 56.6831C152.747 56.4431 152.347 56.0791 152.059 55.5911C151.771 55.0951 151.615 54.4791 151.591 53.7431C151.583 53.3991 151.579 53.0591 151.579 52.7231C151.579 52.3871 151.583 52.0431 151.591 51.6911C151.615 50.9631 151.775 50.3551 152.071 49.8671C152.367 49.3791 152.771 49.0111 153.283 48.7631C153.803 48.5151 154.407 48.3911 155.095 48.3911C155.783 48.3911 156.387 48.5151 156.907 48.7631C157.427 49.0111 157.835 49.3791 158.131 49.8671C158.427 50.3551 158.587 50.9631 158.611 51.6911C158.627 52.0431 158.635 52.3871 158.635 52.7231C158.635 53.0591 158.627 53.3991 158.611 53.7431C158.587 54.4791 158.431 55.0951 158.143 55.5911C157.855 56.0791 157.451 56.4431 156.931 56.6831C156.419 56.9151 155.807 57.0311 155.095 57.0311ZM155.095 55.6511C155.615 55.6511 156.039 55.4991 156.367 55.1951C156.695 54.8831 156.871 54.3791 156.895 53.6831C156.911 53.3311 156.919 53.0071 156.919 52.7111C156.919 52.4071 156.911 52.0831 156.895 51.7391C156.879 51.2751 156.791 50.8991 156.631 50.6111C156.479 50.3151 156.271 50.1031 156.007 49.9751C155.743 49.8391 155.439 49.7711 155.095 49.7711C154.759 49.7711 154.459 49.8391 154.195 49.9751C153.931 50.1031 153.719 50.3151 153.559 50.6111C153.407 50.8991 153.323 51.2751 153.307 51.7391C153.299 52.0831 153.295 52.4071 153.295 52.7111C153.295 53.0071 153.299 53.3311 153.307 53.6831C153.331 54.3791 153.507 54.8831 153.835 55.1951C154.163 55.4991 154.583 55.6511 155.095 55.6511ZM163.45 57.0311C162.706 57.0311 162.074 56.9031 161.554 56.6471C161.042 56.3831 160.65 56.0111 160.378 55.5311C160.106 55.0431 159.954 54.4591 159.922 53.7791C159.914 53.4511 159.91 53.0991 159.91 52.7231C159.91 52.3471 159.914 51.9871 159.922 51.6431C159.954 50.9711 160.106 50.3911 160.378 49.9031C160.658 49.4151 161.054 49.0431 161.566 48.7871C162.086 48.5231 162.714 48.3911 163.45 48.3911C163.994 48.3911 164.482 48.4631 164.914 48.6071C165.346 48.7511 165.714 48.9511 166.018 49.2071C166.322 49.4551 166.558 49.7471 166.726 50.0831C166.894 50.4191 166.982 50.7831 166.99 51.1751C166.998 51.2471 166.974 51.3071 166.918 51.3551C166.87 51.4031 166.81 51.4271 166.738 51.4271H165.598C165.51 51.4271 165.438 51.4071 165.382 51.3671C165.326 51.3191 165.286 51.2431 165.262 51.1391C165.134 50.6111 164.914 50.2511 164.602 50.0591C164.29 49.8671 163.902 49.7711 163.438 49.7711C162.902 49.7711 162.474 49.9231 162.154 50.2271C161.834 50.5231 161.662 51.0151 161.638 51.7031C161.614 52.3591 161.614 53.0311 161.638 53.7191C161.662 54.4071 161.834 54.9031 162.154 55.2071C162.474 55.5031 162.902 55.6511 163.438 55.6511C163.902 55.6511 164.29 55.5551 164.602 55.3631C164.914 55.1631 165.134 54.8031 165.262 54.2831C165.286 54.1711 165.326 54.0951 165.382 54.0551C165.438 54.0151 165.51 53.9951 165.598 53.9951H166.738C166.81 53.9951 166.87 54.0191 166.918 54.0671C166.974 54.1151 166.998 54.1751 166.99 54.2471C166.982 54.6391 166.894 55.0031 166.726 55.3391C166.558 55.6751 166.322 55.9711 166.018 56.2271C165.714 56.4751 165.346 56.6711 164.914 56.8151C164.482 56.9591 163.994 57.0311 163.45 57.0311ZM168.702 56.9111C168.622 56.9111 168.554 56.8871 168.498 56.8391C168.442 56.7831 168.414 56.7111 168.414 56.6231V48.8111C168.414 48.7231 168.442 48.6511 168.498 48.5951C168.554 48.5391 168.622 48.5111 168.702 48.5111H169.794C169.882 48.5111 169.95 48.5391 169.998 48.5951C170.054 48.6511 170.082 48.7231 170.082 48.8111V51.9071H173.622V48.8111C173.622 48.7231 173.65 48.6511 173.706 48.5951C173.762 48.5391 173.83 48.5111 173.91 48.5111H174.99C175.078 48.5111 175.15 48.5391 175.206 48.5951C175.262 48.6511 175.29 48.7231 175.29 48.8111V56.6231C175.29 56.7031 175.262 56.7711 175.206 56.8271C175.15 56.8831 175.078 56.9111 174.99 56.9111H173.91C173.83 56.9111 173.762 56.8831 173.706 56.8271C173.65 56.7711 173.622 56.7031 173.622 56.6231V53.4071H170.082V56.6231C170.082 56.7031 170.054 56.7711 169.998 56.8271C169.95 56.8831 169.882 56.9111 169.794 56.9111H168.702ZM180.384 57.0311C179.672 57.0311 179.06 56.9151 178.548 56.6831C178.036 56.4431 177.636 56.0791 177.348 55.5911C177.06 55.0951 176.904 54.4791 176.88 53.7431C176.872 53.3991 176.868 53.0591 176.868 52.7231C176.868 52.3871 176.872 52.0431 176.88 51.6911C176.904 50.9631 177.064 50.3551 177.36 49.8671C177.656 49.3791 178.06 49.0111 178.572 48.7631C179.092 48.5151 179.696 48.3911 180.384 48.3911C181.072 48.3911 181.676 48.5151 182.196 48.7631C182.716 49.0111 183.124 49.3791 183.42 49.8671C183.716 50.3551 183.876 50.9631 183.9 51.6911C183.916 52.0431 183.924 52.3871 183.924 52.7231C183.924 53.0591 183.916 53.3991 183.9 53.7431C183.876 54.4791 183.72 55.0951 183.432 55.5911C183.144 56.0791 182.74 56.4431 182.22 56.6831C181.708 56.9151 181.096 57.0311 180.384 57.0311ZM180.384 55.6511C180.904 55.6511 181.328 55.4991 181.656 55.1951C181.984 54.8831 182.16 54.3791 182.184 53.6831C182.2 53.3311 182.208 53.0071 182.208 52.7111C182.208 52.4071 182.2 52.0831 182.184 51.7391C182.168 51.2751 182.08 50.8991 181.92 50.6111C181.768 50.3151 181.56 50.1031 181.296 49.9751C181.032 49.8391 180.728 49.7711 180.384 49.7711C180.048 49.7711 179.748 49.8391 179.484 49.9751C179.22 50.1031 179.008 50.3151 178.848 50.6111C178.696 50.8991 178.612 51.2751 178.596 51.7391C178.588 52.0831 178.584 52.4071 178.584 52.7111C178.584 53.0071 178.588 53.3311 178.596 53.6831C178.62 54.3791 178.796 54.8831 179.124 55.1951C179.452 55.4991 179.872 55.6511 180.384 55.6511ZM185.787 56.9111C185.707 56.9111 185.639 56.8831 185.583 56.8271C185.527 56.7711 185.499 56.7031 185.499 56.6231V48.8111C185.499 48.7231 185.527 48.6511 185.583 48.5951C185.639 48.5391 185.707 48.5111 185.787 48.5111H189.267C189.915 48.5111 190.443 48.6111 190.851 48.8111C191.259 49.0031 191.559 49.2711 191.751 49.6151C191.951 49.9591 192.051 50.3591 192.051 50.8151C192.051 51.1191 191.995 51.3871 191.883 51.6191C191.779 51.8431 191.647 52.0271 191.487 52.1711C191.335 52.3151 191.183 52.4271 191.031 52.5071C191.343 52.6511 191.619 52.8911 191.859 53.2271C192.099 53.5631 192.219 53.9631 192.219 54.4271C192.219 54.9071 192.111 55.3351 191.895 55.7111C191.679 56.0871 191.359 56.3831 190.935 56.5991C190.511 56.8071 189.987 56.9111 189.363 56.9111H185.787ZM187.167 55.6391H189.171C189.603 55.6391 189.931 55.5231 190.155 55.2911C190.379 55.0511 190.491 54.7631 190.491 54.4271C190.491 54.0751 190.375 53.7831 190.143 53.5511C189.919 53.3191 189.595 53.2031 189.171 53.2031H187.167V55.6391ZM187.167 51.9551H189.051C189.475 51.9551 189.791 51.8551 189.999 51.6551C190.215 51.4471 190.323 51.1791 190.323 50.8511C190.323 50.5151 190.215 50.2551 189.999 50.0711C189.791 49.8791 189.475 49.7831 189.051 49.7831H187.167V51.9551ZM193.21 56.9111C193.146 56.9111 193.086 56.8871 193.03 56.8391C192.982 56.7911 192.958 56.7311 192.958 56.6591C192.958 56.6271 192.966 56.5911 192.982 56.5511L195.874 48.8111C195.898 48.7311 195.942 48.6631 196.006 48.6071C196.078 48.5431 196.174 48.5111 196.294 48.5111H197.602C197.722 48.5111 197.814 48.5431 197.878 48.6071C197.942 48.6631 197.99 48.7311 198.022 48.8111L200.914 56.5511C200.922 56.5911 200.926 56.6271 200.926 56.6591C200.926 56.7311 200.902 56.7911 200.854 56.8391C200.806 56.8871 200.75 56.9111 200.686 56.9111H199.642C199.53 56.9111 199.446 56.8871 199.39 56.8391C199.342 56.7831 199.31 56.7311 199.294 56.6831L198.73 55.2191H195.166L194.602 56.6831C194.586 56.7311 194.55 56.7831 194.494 56.8391C194.446 56.8871 194.366 56.9111 194.254 56.9111H193.21ZM195.586 53.8391H198.31L196.942 50.1311L195.586 53.8391ZM202.334 56.9111C202.254 56.9111 202.186 56.8871 202.13 56.8391C202.074 56.7831 202.046 56.7111 202.046 56.6231V48.8111C202.046 48.7231 202.074 48.6511 202.13 48.5951C202.186 48.5391 202.254 48.5111 202.334 48.5111H203.426C203.514 48.5111 203.582 48.5391 203.63 48.5951C203.686 48.6511 203.714 48.7231 203.714 48.8111V51.9071H207.254V48.8111C207.254 48.7231 207.282 48.6511 207.338 48.5951C207.394 48.5391 207.462 48.5111 207.542 48.5111H208.622C208.71 48.5111 208.782 48.5391 208.838 48.5951C208.894 48.6511 208.922 48.7231 208.922 48.8111V56.6231C208.922 56.7031 208.894 56.7711 208.838 56.8271C208.782 56.8831 208.71 56.9111 208.622 56.9111H207.542C207.462 56.9111 207.394 56.8831 207.338 56.8271C207.282 56.7711 207.254 56.7031 207.254 56.6231V53.4071H203.714V56.6231C203.714 56.7031 203.686 56.7711 203.63 56.8271C203.582 56.8831 203.514 56.9111 203.426 56.9111H202.334ZM213.819 56.9111C213.739 56.9111 213.671 56.8831 213.615 56.8271C213.559 56.7711 213.531 56.7031 213.531 56.6231V48.8111C213.531 48.7231 213.559 48.6511 213.615 48.5951C213.671 48.5391 213.739 48.5111 213.819 48.5111H217.299C217.947 48.5111 218.475 48.6111 218.883 48.8111C219.291 49.0031 219.591 49.2711 219.783 49.6151C219.983 49.9591 220.083 50.3591 220.083 50.8151C220.083 51.1191 220.027 51.3871 219.915 51.6191C219.811 51.8431 219.679 52.0271 219.519 52.1711C219.367 52.3151 219.215 52.4271 219.063 52.5071C219.375 52.6511 219.651 52.8911 219.891 53.2271C220.131 53.5631 220.251 53.9631 220.251 54.4271C220.251 54.9071 220.143 55.3351 219.927 55.7111C219.711 56.0871 219.391 56.3831 218.967 56.5991C218.543 56.8071 218.019 56.9111 217.395 56.9111H213.819ZM215.199 55.6391H217.203C217.635 55.6391 217.963 55.5231 218.187 55.2911C218.411 55.0511 218.523 54.7631 218.523 54.4271C218.523 54.0751 218.407 53.7831 218.175 53.5511C217.951 53.3191 217.627 53.2031 217.203 53.2031H215.199V55.6391ZM215.199 51.9551H217.083C217.507 51.9551 217.823 51.8551 218.031 51.6551C218.247 51.4471 218.355 51.1791 218.355 50.8511C218.355 50.5151 218.247 50.2551 218.031 50.0711C217.823 49.8791 217.507 49.7831 217.083 49.7831H215.199V51.9551ZM226.887 56.9111C226.799 56.9111 226.727 56.8831 226.671 56.8271C226.623 56.7711 226.599 56.7031 226.599 56.6231V50.4071L224.775 51.8111C224.703 51.8591 224.631 51.8791 224.559 51.8711C224.487 51.8551 224.423 51.8111 224.367 51.7391L223.863 51.0911C223.815 51.0191 223.795 50.9431 223.803 50.8631C223.819 50.7831 223.863 50.7191 223.935 50.6711L226.623 48.5951C226.671 48.5551 226.719 48.5311 226.767 48.5231C226.815 48.5151 226.867 48.5111 226.923 48.5111H227.979C228.059 48.5111 228.127 48.5391 228.183 48.5951C228.239 48.6511 228.267 48.7191 228.267 48.7991V56.6231C228.267 56.7031 228.239 56.7711 228.183 56.8271C228.127 56.8831 228.059 56.9111 227.979 56.9111H226.887ZM231.326 56.9111C231.254 56.9111 231.194 56.8871 231.146 56.8391C231.098 56.7831 231.074 56.7191 231.074 56.6471C231.074 56.6071 231.078 56.5751 231.086 56.5511C231.102 56.5271 231.114 56.5071 231.122 56.4911L232.886 54.0551C232.726 54.0951 232.558 54.1111 232.382 54.1031C231.982 54.0951 231.606 54.0191 231.254 53.8751C230.91 53.7231 230.606 53.5231 230.342 53.2751C230.086 53.0191 229.882 52.7271 229.73 52.3991C229.586 52.0631 229.514 51.6991 229.514 51.3071C229.514 50.9471 229.582 50.5951 229.718 50.2511C229.854 49.8991 230.054 49.5831 230.318 49.3031C230.59 49.0231 230.926 48.8031 231.326 48.6431C231.734 48.4751 232.21 48.3911 232.754 48.3911C233.29 48.3911 233.762 48.4671 234.17 48.6191C234.578 48.7711 234.918 48.9831 235.19 49.2551C235.47 49.5191 235.678 49.8231 235.814 50.1671C235.958 50.5111 236.03 50.8751 236.03 51.2591C236.03 51.6031 235.974 51.9231 235.862 52.2191C235.75 52.5151 235.61 52.7871 235.442 53.0351C235.282 53.2751 235.122 53.5111 234.962 53.7431L232.85 56.6711C232.818 56.7111 232.77 56.7631 232.706 56.8271C232.65 56.8831 232.562 56.9111 232.442 56.9111H231.326ZM232.766 52.8311C233.054 52.8311 233.314 52.7711 233.546 52.6511C233.786 52.5231 233.974 52.3471 234.11 52.1231C234.254 51.8911 234.326 51.6191 234.326 51.3071C234.326 50.9871 234.254 50.7151 234.11 50.4911C233.974 50.2591 233.786 50.0831 233.546 49.9631C233.306 49.8351 233.046 49.7711 232.766 49.7711C232.478 49.7711 232.214 49.8351 231.974 49.9631C231.742 50.0831 231.554 50.2591 231.41 50.4911C231.274 50.7151 231.206 50.9871 231.206 51.3071C231.206 51.6191 231.274 51.8911 231.41 52.1231C231.554 52.3471 231.742 52.5231 231.974 52.6511C232.214 52.7711 232.478 52.8311 232.766 52.8311ZM238.732 56.9111C238.66 56.9111 238.6 56.8871 238.552 56.8391C238.504 56.7831 238.48 56.7191 238.48 56.6471C238.48 56.6071 238.484 56.5751 238.492 56.5511C238.508 56.5271 238.52 56.5071 238.528 56.4911L240.292 54.0551C240.132 54.0951 239.964 54.1111 239.788 54.1031C239.388 54.0951 239.012 54.0191 238.66 53.8751C238.316 53.7231 238.012 53.5231 237.748 53.2751C237.492 53.0191 237.288 52.7271 237.136 52.3991C236.992 52.0631 236.92 51.6991 236.92 51.3071C236.92 50.9471 236.988 50.5951 237.124 50.2511C237.26 49.8991 237.46 49.5831 237.724 49.3031C237.996 49.0231 238.332 48.8031 238.732 48.6431C239.14 48.4751 239.616 48.3911 240.16 48.3911C240.696 48.3911 241.168 48.4671 241.576 48.6191C241.984 48.7711 242.324 48.9831 242.596 49.2551C242.876 49.5191 243.084 49.8231 243.22 50.1671C243.364 50.5111 243.436 50.8751 243.436 51.2591C243.436 51.6031 243.38 51.9231 243.268 52.2191C243.156 52.5151 243.016 52.7871 242.848 53.0351C242.688 53.2751 242.528 53.5111 242.368 53.7431L240.256 56.6711C240.224 56.7111 240.176 56.7631 240.112 56.8271C240.056 56.8831 239.968 56.9111 239.848 56.9111H238.732ZM240.172 52.8311C240.46 52.8311 240.72 52.7711 240.952 52.6511C241.192 52.5231 241.38 52.3471 241.516 52.1231C241.66 51.8911 241.732 51.6191 241.732 51.3071C241.732 50.9871 241.66 50.7151 241.516 50.4911C241.38 50.2591 241.192 50.0831 240.952 49.9631C240.712 49.8351 240.452 49.7711 240.172 49.7711C239.884 49.7711 239.62 49.8351 239.38 49.9631C239.148 50.0831 238.96 50.2591 238.816 50.4911C238.68 50.7151 238.612 50.9871 238.612 51.3071C238.612 51.6191 238.68 51.8911 238.816 52.1231C238.96 52.3471 239.148 52.5231 239.38 52.6511C239.62 52.7711 239.884 52.8311 240.172 52.8311ZM244.759 56.9111C244.679 56.9111 244.611 56.8831 244.555 56.8271C244.499 56.7711 244.471 56.7031 244.471 56.6231V56.0111C244.471 55.9391 244.487 55.8551 244.519 55.7591C244.559 55.6551 244.643 55.5511 244.771 55.4471L246.667 53.5631C247.195 53.1471 247.619 52.7951 247.939 52.5071C248.267 52.2111 248.503 51.9431 248.647 51.7031C248.799 51.4551 248.875 51.2111 248.875 50.9711C248.875 50.6111 248.775 50.3191 248.575 50.0951C248.383 49.8711 248.075 49.7591 247.651 49.7591C247.371 49.7591 247.135 49.8191 246.943 49.9391C246.751 50.0511 246.599 50.2031 246.487 50.3951C246.383 50.5871 246.311 50.7991 246.271 51.0311C246.255 51.1351 246.211 51.2071 246.139 51.2471C246.067 51.2871 245.995 51.3071 245.923 51.3071H244.855C244.783 51.3071 244.723 51.2831 244.675 51.2351C244.627 51.1871 244.603 51.1311 244.603 51.0671C244.611 50.7231 244.683 50.3911 244.819 50.0711C244.955 49.7431 245.151 49.4551 245.407 49.2071C245.671 48.9511 245.991 48.7471 246.367 48.5951C246.743 48.4431 247.167 48.3671 247.639 48.3671C248.303 48.3671 248.851 48.4791 249.283 48.7031C249.723 48.9271 250.051 49.2311 250.267 49.6151C250.491 49.9991 250.603 50.4311 250.603 50.9111C250.603 51.2871 250.531 51.6351 250.387 51.9551C250.243 52.2671 250.035 52.5711 249.763 52.8671C249.491 53.1551 249.163 53.4511 248.779 53.7551L247.075 55.4831H250.495C250.583 55.4831 250.651 55.5111 250.699 55.5671C250.755 55.6151 250.783 55.6831 250.783 55.7711V56.6231C250.783 56.7031 250.755 56.7711 250.699 56.8271C250.651 56.8831 250.583 56.9111 250.495 56.9111H244.759ZM152.155 70.9111C152.075 70.9111 152.007 70.8831 151.951 70.8271C151.895 70.7711 151.867 70.7031 151.867 70.6231V62.8111C151.867 62.7231 151.895 62.6511 151.951 62.5951C152.007 62.5391 152.075 62.5111 152.155 62.5111H157.051C157.139 62.5111 157.211 62.5391 157.267 62.5951C157.323 62.6511 157.351 62.7231 157.351 62.8111V63.6511C157.351 63.7311 157.323 63.7991 157.267 63.8551C157.211 63.9111 157.139 63.9391 157.051 63.9391H153.535V70.6231C153.535 70.7031 153.507 70.7711 153.451 70.8271C153.403 70.8831 153.335 70.9111 153.247 70.9111H152.155Z" fill="white"/>
<path d="M141.724 53.9951C141.636 53.9951 141.564 53.9671 141.508 53.9111C141.46 53.8551 141.436 53.7871 141.436 53.7071V52.9151C141.436 52.8351 141.46 52.7671 141.508 52.7111C141.564 52.6551 141.636 52.6271 141.724 52.6271H145.408C145.488 52.6271 145.556 52.6551 145.612 52.7111C145.668 52.7671 145.696 52.8351 145.696 52.9151V53.7071C145.696 53.7871 145.668 53.8551 145.612 53.9111C145.556 53.9671 145.488 53.9951 145.408 53.9951H141.724Z" fill="white"/>
<path d="M259.151 53.9951C259.063 53.9951 258.991 53.9671 258.935 53.9111C258.887 53.8551 258.863 53.7871 258.863 53.7071V52.9151C258.863 52.8351 258.887 52.7671 258.935 52.7111C258.991 52.6551 259.063 52.6271 259.151 52.6271H262.835C262.915 52.6271 262.983 52.6551 263.039 52.7111C263.095 52.7671 263.123 52.8351 263.123 52.9151V53.7071C263.123 53.7871 263.095 53.8551 263.039 53.9111C262.983 53.9671 262.915 53.9951 262.835 53.9951H259.151Z" fill="white"/>
</svg>
