<svg width="30" height="76" viewBox="0 0 30 76" fill="none" xmlns="http://www.w3.org/2000/svg">
<path d="M14.8033 67.6462C16.7768 67.6462 18.4044 69.277 18.4044 71.3231C18.4044 73.3693 16.7768 75 14.8033 75C12.8298 75 11.2021 73.3693 11.2021 71.3231C11.2021 69.277 12.8298 67.6462 14.8033 67.6462Z" stroke="white" stroke-width="2"/>
<path d="M15.0031 52.0059L14.0164 52.1685L15.9898 52.1685L15.0031 52.0059ZM4.60058 30.4841L3.73084 29.9906L3.36388 30.6373L3.87757 31.1749L4.60058 30.4841ZM15.0031 12.1507L15.8728 11.6572L15.0031 10.1244L14.1333 11.6572L15.0031 12.1507ZM25.4056 30.4841L26.1286 31.1749L26.6423 30.6373L26.2753 29.9906L25.4056 30.4841ZM15.9898 51.8433C15.1531 46.7662 14.1455 42.9676 12.4992 39.5664C10.8504 36.1601 8.58909 33.2108 5.3236 29.7932L3.87757 31.1749C7.06373 34.5095 9.17424 37.2879 10.699 40.4378C12.2263 43.5929 13.1941 47.1791 14.0164 52.1685L15.9898 51.8433ZM5.47033 30.9776L15.8728 12.6442L14.1333 11.6572L3.73084 29.9906L5.47033 30.9776ZM15.9898 52.1685C16.812 47.1791 17.7799 43.5929 19.3072 40.4378C20.8319 37.2879 22.9425 34.5095 26.1286 31.1749L24.6826 29.7932C21.4171 33.2108 19.1558 36.1601 17.507 39.5664C15.8606 42.9676 14.8531 46.7662 14.0164 51.8433L15.9898 52.1685ZM26.2753 29.9906L15.8728 11.6572L14.1333 12.6442L24.5359 30.9776L26.2753 29.9906Z" fill="white"/>
<path d="M15.0034 27.1978L14.0419 27.4724L15.0755 31.0915L15.9745 27.4366L15.0034 27.1978ZM9.00195 14.5905L8.11393 14.1307L7.84224 14.6554L8.17079 15.1465L9.00195 14.5905ZM15.0034 2.99998L15.8779 2.51504L14.9732 0.883445L14.1154 2.54018L15.0034 2.99998ZM21.2049 14.1838L22.0511 14.7166L22.3663 14.2161L22.0794 13.6989L21.2049 14.1838ZM15.9649 26.9231C15.0604 23.7561 14.3908 21.8058 13.5001 19.9952C12.6149 18.1955 11.5236 16.5614 9.83311 14.0345L8.17079 15.1465C9.88113 17.7032 10.8904 19.2209 11.7055 20.878C12.5153 22.5242 13.146 24.3358 14.0419 27.4724L15.9649 26.9231ZM9.88997 15.0503L15.8914 3.45979L14.1154 2.54018L8.11393 14.1307L9.88997 15.0503ZM15.9745 27.4366C17.3313 21.9199 18.8449 19.8089 22.0511 14.7166L20.3587 13.651C17.1634 18.7258 15.4762 21.0884 14.0323 26.9589L15.9745 27.4366ZM22.0794 13.6989L15.8779 2.51504L14.1289 3.48492L20.3303 14.6688L22.0794 13.6989Z" fill="white"/>
<path d="M15.0034 61.3592L14.0034 61.3684L16.0033 61.3684L15.0034 61.3592ZM13.9961 55.9063L13.0803 56.3078L13.0803 56.3078L13.9961 55.9063ZM10.8191 52.6139L11.1957 51.6875L10.8191 52.6139ZM3.51936 53.6661L4.12186 54.4642L4.12186 54.4642L3.51936 53.6661ZM9.94989 59.5014L10.5458 58.6984L10.5458 58.6984L9.94989 59.5014ZM16.0039 55.9063L15.088 55.5048L15.088 55.5048L16.0039 55.9063ZM19.1809 52.6139L18.8043 51.6875L18.8043 51.6875L19.1809 52.6139ZM26.4806 53.6661L25.8781 54.4642L26.4806 53.6661ZM20.0501 59.5014L20.646 60.3045L20.0501 59.5014ZM16.0033 61.3499C15.9956 60.5084 15.878 59.4123 15.6924 58.3667C15.509 57.333 15.2443 56.263 14.912 55.5048L13.0803 56.3078C13.317 56.8479 13.5488 57.7335 13.7232 58.7161C13.8955 59.687 13.997 60.6682 14.0034 61.3684L16.0033 61.3499ZM14.912 55.5048C14.2722 54.0454 12.9737 52.4104 11.1957 51.6875L10.4425 53.5402C11.6015 54.0115 12.5819 55.1709 13.0803 56.3078L14.912 55.5048ZM11.1957 51.6875C8.40838 50.5542 5.4458 50.9589 2.91686 52.868L4.12186 54.4642C6.11272 52.9613 8.33487 52.6833 10.4425 53.5402L11.1957 51.6875ZM2.91686 52.868C0.345377 54.8092 -0.460611 58.4299 0.24544 61.3505C0.60483 62.8371 1.37393 64.2374 2.60442 65.1973C3.85398 66.172 5.49684 66.6267 7.44971 66.3421L7.16137 64.363C5.69853 64.5762 4.61585 64.2298 3.83454 63.6203C3.03417 62.996 2.46707 62.0289 2.18944 60.8805C1.62144 58.531 2.33808 55.8108 4.12186 54.4642L2.91686 52.868ZM7.44971 66.3421C7.67121 66.3099 7.89622 66.2682 8.12469 66.2169L7.68686 64.2655C7.50613 64.306 7.33099 64.3383 7.16137 64.363L7.44971 66.3421ZM8.1247 66.2169C8.17793 66.205 8.23135 66.1925 8.28495 66.1795L7.8141 64.2358C7.77138 64.2461 7.72897 64.256 7.68686 64.2655L8.1247 66.2169ZM7.24887 61.8638C7.16479 60.929 7.54303 60.4167 7.92551 60.1931C8.33286 59.955 8.88153 59.9539 9.35402 60.3045L10.5458 58.6984C9.43296 57.8727 8.01842 57.8222 6.91624 58.4665C5.78918 59.1252 5.11157 60.427 5.25691 62.0429L7.24887 61.8638ZM9.35402 60.3045C9.71681 60.5737 9.88036 60.8781 9.93773 61.1866C9.99871 61.5145 9.94998 61.914 9.76613 62.3457C9.38758 63.2347 8.53881 64.0242 7.63489 64.2786L8.17666 66.2038C9.71817 65.77 11.0132 64.522 11.6063 63.1293C11.9082 62.4202 12.0522 61.6178 11.904 60.821C11.7522 60.0047 11.3047 59.2615 10.5458 58.6984L9.35402 60.3045ZM7.63489 64.2786C7.49422 64.3182 7.3544 64.3442 7.21653 64.3566L7.39456 66.3486C7.66224 66.3247 7.92378 66.275 8.17667 66.2038L7.63489 64.2786ZM7.21652 64.3566C7.18814 64.3591 7.15983 64.3611 7.13158 64.3624L7.22857 66.3601C7.28413 66.3574 7.33947 66.3535 7.39456 66.3486L7.21652 64.3566ZM16.0033 61.3684C16.0098 60.6671 16.1098 59.6852 16.2805 58.7145C16.4532 57.7316 16.6834 56.8469 16.9197 56.3078L15.088 55.5048C14.7552 56.2639 14.4923 57.3348 14.3107 58.3683C14.1268 59.4141 14.0112 60.5096 14.0034 61.3499L16.0033 61.3684ZM16.9197 56.3078C17.4181 55.1709 18.3985 54.0115 19.5575 53.5402L18.8043 51.6875C17.0263 52.4104 15.7278 54.0454 15.088 55.5048L16.9197 56.3078ZM19.5575 53.5402C21.6651 52.6833 23.8873 52.9613 25.8781 54.4642L27.0831 52.868C24.5542 50.9589 21.5916 50.5542 18.8043 51.6875L19.5575 53.5402ZM25.8781 54.4642C27.6619 55.8108 28.3786 58.531 27.8106 60.8805C27.5329 62.0289 26.9658 62.996 26.1655 63.6203C25.3841 64.2298 24.3015 64.5762 22.8386 64.363L22.5503 66.3421C24.5032 66.6267 26.146 66.172 27.3956 65.1973C28.6261 64.2374 29.3952 62.8371 29.7546 61.3505C30.4606 58.4299 29.6546 54.8092 27.0831 52.868L25.8781 54.4642ZM22.8386 64.363C22.669 64.3383 22.4939 64.306 22.3131 64.2655L21.8753 66.2169C22.1038 66.2682 22.3288 66.3099 22.5503 66.3421L22.8386 64.363ZM22.3131 64.2655C22.271 64.256 22.2286 64.2461 22.1859 64.2358L21.715 66.1795C21.7687 66.1925 21.8221 66.205 21.8753 66.2169L22.3131 64.2655ZM24.7431 62.0429C24.8884 60.427 24.2108 59.1252 23.0838 58.4665C21.9816 57.8222 20.567 57.8727 19.4542 58.6984L20.646 60.3045C21.1185 59.9539 21.6671 59.955 22.0745 60.1931C22.457 60.4167 22.8352 60.929 22.7511 61.8638L24.7431 62.0429ZM19.4542 58.6984C18.6953 59.2615 18.2478 60.0047 18.096 60.821C17.9478 61.6178 18.0918 62.4202 18.3937 63.1293C18.9868 64.522 20.2818 65.77 21.8233 66.2038L22.3651 64.2786C21.4612 64.0242 20.6124 63.2347 20.2339 62.3457C20.05 61.914 20.0013 61.5145 20.0623 61.1866C20.1196 60.8781 20.2832 60.5737 20.646 60.3045L19.4542 58.6984ZM21.8233 66.2038C22.0762 66.275 22.3378 66.3247 22.6054 66.3486L22.7835 64.3566C22.6456 64.3442 22.5058 64.3182 22.3651 64.2786L21.8233 66.2038ZM22.6054 66.3486C22.6605 66.3535 22.7159 66.3574 22.7714 66.3601L22.8684 64.3624C22.8402 64.3611 22.8119 64.3591 22.7835 64.3566L22.6054 66.3486Z" fill="white"/>
<path d="M15.0039 60.9527C15.0039 62.5525 15.0039 65.6836 15.0039 65.4094" stroke="white" stroke-width="2"/>
</svg>
