<svg width="449" height="62" viewBox="0 0 449 62" fill="none" xmlns="http://www.w3.org/2000/svg">
<rect y="6" width="449" height="38" fill="#E9DD8C"/>
<path d="M133.224 18.4358V18.9973H134.019C134.372 18.9973 134.638 19.0909 134.991 19.1845C135.256 19.3717 135.433 19.746 135.521 20.2139V31.1636C135.521 31.7251 135.344 32.0994 134.991 32.193C134.726 32.3802 134.372 32.4738 134.019 32.3802H133.224V32.9417H138.702V32.3802H137.907C137.554 32.3802 137.289 32.2866 136.935 32.193C136.67 32.0059 136.493 31.6315 136.405 31.1636V19.6524L142.767 33.0353H143.209L150.013 20.0268V31.1636C150.013 31.7251 149.837 32.0994 149.483 32.193C149.218 32.3802 148.865 32.4738 148.511 32.3802H147.716V32.9417H155.846V32.3802H155.05C154.697 32.3802 154.432 32.2866 154.078 32.193C153.813 32.0059 153.636 31.6315 153.548 31.1636V20.3075C153.548 19.746 153.725 19.3717 154.078 19.2781C154.343 19.0909 154.697 18.9973 155.05 19.0909H155.846V18.4358H149.66L144.535 28.4496L139.851 18.4358H133.224Z" fill="#5F8D6E"/>
<path d="M171.133 18.4358H157.437V18.9973H158.232C158.585 18.9973 158.85 19.0909 159.204 19.1845C159.469 19.3717 159.646 19.746 159.734 20.2139V31.1636C159.734 31.7251 159.557 32.0994 159.204 32.193C158.939 32.3802 158.585 32.4738 158.232 32.3802H157.437V32.9417H171.045L171.929 28.356H171.31C170.957 29.479 170.515 30.2277 169.808 30.7892C169.189 31.3507 168.482 31.6315 167.687 31.8187C166.98 32.0059 166.273 32.0059 165.743 32.0059C165.655 32.0059 165.566 32.0059 165.478 32.0059C165.39 32.0059 165.301 32.0059 165.213 32.0059C164.417 32.0059 163.887 31.9123 163.622 31.7251C163.445 31.5379 163.357 31.2572 163.357 30.8828V26.1099H163.711C164.064 26.1099 164.506 26.1099 164.948 26.2035C165.39 26.2971 165.743 26.5778 166.096 27.0458C166.45 27.5137 166.715 28.2624 166.803 29.2918H167.422V21.9921H166.803C166.715 23.0215 166.45 23.7702 166.096 24.2382C165.743 24.7061 165.39 24.9869 164.948 25.0804C164.506 25.174 164.064 25.2676 163.711 25.174H163.357V19.3717H166.185C167.334 19.3717 168.217 19.5588 168.836 19.9332C169.454 20.3075 169.896 20.7755 170.073 21.2434C170.338 21.7113 170.426 22.1793 170.426 22.5536H171.045V18.4358H171.133Z" fill="#5F8D6E"/>
<path d="M174.933 18.4358V18.9973H175.905C176.259 18.9973 176.524 18.9973 176.701 19.0909C176.877 19.1845 177.054 19.4652 177.142 19.746C177.231 20.1204 177.319 20.6819 177.319 21.4306C177.319 24.2382 177.054 26.3907 176.524 27.9816C175.994 29.5726 175.375 30.6021 174.668 31.2572C173.961 31.8187 173.343 32.193 172.812 32.0994H172.105L171.929 36.5916H172.547C172.724 35.4686 172.989 34.6263 173.343 34.1583C173.696 33.6904 174.226 33.3161 174.668 33.2225C175.198 33.1289 175.728 33.0353 176.259 33.0353H183.858C185.007 33.0353 185.891 33.3161 186.509 33.6904C187.039 34.0648 187.481 34.5327 187.57 35.0006C187.746 35.4686 187.835 35.9365 187.835 36.2173V36.5916H188.453V32.0994H187.481C186.951 32.0994 186.598 32.0059 186.421 31.9123C186.244 31.8187 186.156 31.6315 186.156 31.3507V20.3075C186.156 19.746 186.332 19.3717 186.686 19.2781C186.951 19.0909 187.305 18.9973 187.658 19.0909H188.453V18.4358H174.933ZM182.533 32.0994H175.287C176.17 31.1636 176.877 30.1341 177.407 29.0111C177.849 27.888 178.203 26.6714 178.291 25.4548C178.468 24.1446 178.468 22.8344 178.468 21.4306C178.468 21.2434 178.468 21.0562 178.468 20.869C178.468 20.6819 178.468 20.4947 178.468 20.3075V19.3717H182.533V32.0994Z" fill="#5F8D6E"/>
<path d="M196.053 29.3854V20.3075C196.053 19.746 196.23 19.3717 196.583 19.2781C196.848 19.0909 197.202 18.9973 197.555 19.0909H198.35V18.4358H190.221V18.9973H191.016C191.369 18.9973 191.635 19.0909 191.988 19.1845C192.253 19.3717 192.43 19.746 192.518 20.2139V31.1636C192.518 31.7251 192.342 32.0994 191.988 32.193C191.723 32.3802 191.369 32.4738 191.016 32.3802H190.221V32.9417H198.35V32.3802H197.555C197.467 32.3802 197.29 32.3802 197.113 32.2866C196.848 32.2866 196.671 32.0994 196.495 31.9123C196.318 31.7251 196.23 31.4443 196.23 30.9764L202.592 21.8049V30.9764C202.592 31.5379 202.415 31.9123 202.062 32.0059C201.797 32.193 201.443 32.2866 201.09 32.193H200.295V32.7545H208.336V32.193H207.541C207.187 32.193 206.922 32.0994 206.569 32.0059C206.303 31.8187 206.127 31.4443 206.038 30.9764V20.3075C206.038 19.746 206.215 19.3717 206.569 19.2781C206.834 19.0909 207.187 18.9973 207.541 19.0909H208.336V18.4358H200.206V18.9973H201.001C201.09 18.9973 201.267 18.9973 201.532 19.0909C201.797 19.1845 201.973 19.2781 202.15 19.4652C202.327 19.6524 202.415 19.9332 202.415 20.3075L196.053 29.3854Z" fill="#5F8D6E"/>
<path d="M209.926 33.0353H223.888C225.036 33.0353 225.92 33.3161 226.45 33.6904C226.981 34.0648 227.422 34.5327 227.599 35.0006C227.776 35.4686 227.864 35.9365 227.864 36.2173V36.5916H228.483V32.0994H227.511C226.892 32.0994 226.539 32.0059 226.362 31.9123C226.185 31.8187 226.097 31.6315 226.185 31.4443V20.3075C226.185 19.746 226.362 19.3717 226.715 19.2781C226.981 19.0909 227.334 18.9973 227.687 19.0909H228.483V18.4358H220.353V18.9973H221.148C221.502 18.9973 221.767 19.0909 222.12 19.1845C222.385 19.3717 222.562 19.746 222.651 20.2139V32.0059H216.023V20.3075C216.023 19.746 216.2 19.3717 216.553 19.2781C216.818 19.0909 217.172 18.9973 217.525 19.0909H218.056V18.4358H209.926V18.9973H210.721C211.075 18.9973 211.34 19.0909 211.693 19.1845C211.958 19.3717 212.135 19.746 212.223 20.2139V31.1636C212.223 31.7251 212.047 32.0994 211.693 32.193C211.428 32.3802 211.075 32.4738 210.721 32.3802H209.926V33.0353Z" fill="#5F8D6E"/>
<path d="M235.818 29.3854V20.3075C235.818 19.746 235.994 19.3717 236.348 19.2781C236.613 19.0909 236.966 18.9973 237.32 19.0909H238.115V18.4358H229.985V18.9973H230.781C231.134 18.9973 231.399 19.0909 231.753 19.1845C232.018 19.3717 232.195 19.746 232.283 20.2139V31.1636C232.283 31.7251 232.106 32.0994 231.753 32.193C231.488 32.3802 231.134 32.4738 230.781 32.3802H229.985V32.9417H238.115V32.3802H237.32C237.231 32.3802 237.055 32.3802 236.878 32.2866C236.613 32.2866 236.436 32.0994 236.259 31.9123C236.083 31.7251 235.994 31.4443 235.994 30.9764L242.357 21.8049V30.9764C242.357 31.5379 242.18 31.9123 241.826 32.0059C241.561 32.193 241.208 32.2866 240.854 32.193H240.059V32.7545H248.189V32.193H247.394C247.04 32.193 246.775 32.0994 246.422 32.0059C246.156 31.8187 245.98 31.4443 245.891 30.9764V20.3075C245.891 19.746 246.068 19.3717 246.422 19.2781C246.687 19.0909 247.04 18.9973 247.394 19.0909H248.189V18.4358H240.059V18.9973H240.854C240.943 18.9973 241.12 18.9973 241.385 19.0909C241.65 19.1845 241.826 19.2781 242.003 19.4652C242.18 19.6524 242.268 19.9332 242.268 20.3075L235.818 29.3854Z" fill="#5F8D6E"/>
<path d="M255.612 24.7997V20.3075C255.612 19.746 255.788 19.3717 256.142 19.2781C256.407 19.0909 256.76 18.9973 257.114 19.0909H257.909V18.4358H249.779V18.9973H250.575C250.928 18.9973 251.193 19.0909 251.547 19.1845C251.812 19.3717 251.988 19.746 252.077 20.2139V31.1636C252.077 31.7251 251.9 32.0994 251.547 32.193C251.282 32.3802 250.928 32.4738 250.575 32.3802H249.779V32.9417H257.909V32.3802H257.114C256.76 32.3802 256.495 32.2866 256.142 32.193C255.877 32.0059 255.7 31.6315 255.612 31.1636V25.7355H261.974V31.1636C261.974 31.7251 261.797 32.0994 261.444 32.193C261.179 32.3802 260.825 32.4738 260.472 32.3802H259.676V32.9417H267.806V32.3802H267.011C266.657 32.3802 266.392 32.2866 266.039 32.193C265.774 32.0059 265.597 31.6315 265.509 31.1636V20.3075C265.509 19.746 265.685 19.3717 266.039 19.1845C266.392 18.9973 266.657 18.9973 266.922 18.9973H267.718V18.4358H259.676V18.9973H260.472C260.825 18.9973 261.09 19.0909 261.444 19.1845C261.709 19.3717 261.886 19.746 261.974 20.2139V24.7061H255.612V24.7997Z" fill="#5F8D6E"/>
<path d="M284.331 18.155H283.624C283.536 18.4358 283.447 18.7165 283.359 18.8101C283.271 18.9973 283.005 19.0909 282.74 19.0909C282.564 19.0909 282.299 18.9973 282.033 18.9037C281.768 18.8101 281.415 18.623 280.885 18.5294C280.443 18.3422 280.001 18.2486 279.559 18.2486C279.117 18.155 278.676 18.155 278.145 18.155C276.466 18.155 274.964 18.5294 273.639 19.1845C272.401 19.8396 271.429 20.7755 270.723 21.8985C270.016 23.0215 269.662 24.3317 269.662 25.7355C269.662 27.2329 270.016 28.4496 270.811 29.6662C271.518 30.7892 272.578 31.7251 273.815 32.3802C275.141 33.0353 276.555 33.4096 278.234 33.4096C278.852 33.4096 279.559 33.3161 280.354 33.1289C281.15 32.9417 281.945 32.5674 282.74 32.0059C283.536 31.4443 284.243 30.6021 284.95 29.479L284.243 29.1047C283.536 30.2277 282.74 31.07 281.857 31.5379C280.973 32.0059 280.089 32.2866 279.117 32.193C277.88 32.193 276.908 31.9123 276.113 31.3507C275.406 30.7892 274.876 30.2277 274.522 29.479C274.169 28.7303 273.992 27.9816 273.904 27.3265C273.815 26.6714 273.815 26.1099 273.815 25.7355C273.815 23.8638 274.169 22.46 274.699 21.5241C275.229 20.5883 275.936 19.9332 276.731 19.6524C277.527 19.3717 278.234 19.1845 278.852 19.1845C280.001 19.1845 281.061 19.5588 281.945 20.3075C282.829 21.0562 283.359 21.9921 283.624 23.1151H284.331V18.155Z" fill="#5F8D6E"/>
<path d="M292.284 25.4548V20.3075C292.284 19.746 292.461 19.3717 292.815 19.2781C293.08 19.0909 293.433 18.9973 293.787 19.0909H294.582V18.4358H286.452V18.9973H287.247C287.601 18.9973 287.866 19.0909 288.219 19.1845C288.485 19.3717 288.661 19.746 288.75 20.2139V31.1636C288.75 31.7251 288.573 32.0994 288.219 32.193C287.954 32.3802 287.601 32.4738 287.247 32.3802H286.452V32.9417H294.405V32.3802H293.787C293.433 32.3802 293.168 32.2866 292.815 32.193C292.549 32.0059 292.373 31.6315 292.284 31.1636V26.5778L292.815 26.0163L296.438 31.07C296.526 31.1636 296.614 31.2572 296.703 31.4443C296.791 31.6315 296.879 31.7251 296.879 31.9123C296.879 32.0994 296.791 32.193 296.614 32.2866C296.438 32.3802 296.261 32.3802 295.996 32.3802H295.466V32.9417H302.623V32.3802C302.27 32.3802 302.005 32.2866 301.74 32.0994C301.474 31.9123 301.298 31.6315 301.033 31.3507L295.289 23.5831L298.205 20.6819C298.735 20.1204 299.265 19.746 299.884 19.3717C300.502 19.0909 301.298 18.9037 302.27 18.9037V18.4358H295.996V18.9973H296.879C297.233 18.9973 297.41 19.0909 297.586 19.1845C297.675 19.2781 297.763 19.4652 297.763 19.5588C297.763 19.6524 297.763 19.746 297.675 19.9332C297.586 20.0268 297.498 20.2139 297.321 20.4011L292.284 25.4548Z" fill="#5F8D6E"/>
<path d="M309.161 29.3854V20.3075C309.161 19.746 309.338 19.3717 309.692 19.2781C309.957 19.0909 310.31 18.9973 310.664 19.0909H311.459V18.4358H303.329V18.9973H304.124C304.478 18.9973 304.743 19.0909 305.096 19.1845C305.362 19.3717 305.538 19.746 305.627 20.2139V31.1636C305.627 31.7251 305.45 32.0994 305.096 32.193C304.831 32.3802 304.478 32.4738 304.124 32.3802H303.329V32.9417H311.459V32.3802H310.664C310.575 32.3802 310.398 32.3802 310.222 32.2866C309.957 32.2866 309.78 32.0994 309.603 31.9123C309.426 31.7251 309.338 31.4443 309.338 30.9764L315.7 21.8049V30.9764C315.7 31.5379 315.524 31.9123 315.17 32.0059C314.905 32.193 314.552 32.2866 314.198 32.193H313.403V32.7545H321.533V32.193H320.737C320.384 32.193 320.119 32.0994 319.765 32.0059C319.5 31.8187 319.323 31.4443 319.235 30.9764V20.3075C319.235 19.746 319.412 19.3717 319.765 19.2781C320.03 19.0909 320.384 18.9973 320.737 19.0909H321.533V18.4358H313.403V18.9973H314.198C314.287 18.9973 314.463 18.9973 314.728 19.0909C314.994 19.1845 315.17 19.2781 315.347 19.4652C315.524 19.6524 315.612 19.9332 315.612 20.3075L309.161 29.3854Z" fill="#5F8D6E"/>
<path d="M328.956 29.3854V20.3075C328.956 19.746 329.133 19.3716 329.486 19.278C329.752 19.0909 330.105 18.9973 330.458 19.0909H331.254V18.4358H323.124V18.9973H323.919C324.273 18.9973 324.538 19.0909 324.891 19.1845C325.156 19.3716 325.333 19.746 325.422 20.2139V31.1635C325.422 31.7251 325.245 32.0994 324.891 32.193C324.626 32.3802 324.273 32.4738 323.919 32.3802H323.124V32.9417H331.254V32.3802H330.458C330.37 32.3802 330.193 32.3802 330.017 32.2866C329.752 32.2866 329.575 32.0994 329.398 31.9122C329.221 31.7251 329.133 31.4443 329.133 30.9764L335.495 21.8049V30.9764C335.495 31.5379 335.319 31.9122 334.965 32.0058C334.7 32.193 334.347 32.2866 333.993 32.193H333.198V32.7545H341.328V32.193H340.532C340.179 32.193 339.914 32.0994 339.56 32.0058C339.295 31.8187 339.118 31.4443 339.03 30.9764V20.3075C339.03 19.746 339.207 19.3716 339.56 19.278C339.825 19.0909 340.179 18.9973 340.532 19.0909H341.328V18.4358H333.198V18.9973H333.993C334.081 18.9973 334.258 18.9973 334.523 19.0909C334.788 19.1845 334.965 19.278 335.142 19.4652C335.319 19.6524 335.407 19.9331 335.407 20.3075L328.956 29.3854ZM332.137 16.6576C331.607 16.6576 331.254 16.564 330.989 16.4704C330.724 16.2833 330.547 16.1897 330.547 16.0025C330.547 15.9089 330.547 15.7218 330.635 15.6282C330.724 15.441 330.724 15.3474 330.724 15.1602C330.724 14.9731 330.635 14.7859 330.37 14.5987C330.193 14.318 329.84 14.2244 329.398 14.2244C329.045 14.2244 328.691 14.318 328.426 14.5051C328.161 14.6923 327.984 15.0666 327.984 15.441C327.984 16.0025 328.338 16.4704 328.956 16.8448C329.663 17.2191 330.724 17.4063 332.137 17.4999C333.64 17.4999 334.7 17.3127 335.319 16.8448C336.026 16.4704 336.291 16.0025 336.291 15.441C336.291 15.0666 336.114 14.6923 335.849 14.5051C335.584 14.318 335.319 14.2244 334.877 14.2244C334.435 14.2244 334.17 14.318 333.905 14.5051C333.64 14.6923 333.551 14.8795 333.551 15.0666C333.551 15.2538 333.551 15.3474 333.64 15.5346C333.728 15.7218 333.728 15.8153 333.728 15.9089C333.728 16.0961 333.551 16.1897 333.286 16.3769C333.021 16.564 332.668 16.6576 332.137 16.6576Z" fill="#5F8D6E"/>
<rect x="133" y="44" width="144" height="18" fill="#5F8D6E"/>
<path d="M353.168 32.5517H367.13C368.279 32.5517 369.162 32.8324 369.693 33.2068C370.223 33.5811 370.665 34.049 370.841 34.517C371.018 34.9849 371.106 35.4528 371.106 35.7336V36.108H371.725V31.6158H370.753C370.134 31.6158 369.781 31.5222 369.604 31.4286C369.427 31.335 369.339 31.1479 369.427 30.9607V19.8239C369.427 19.2624 369.604 18.888 369.958 18.7944C370.223 18.6073 370.576 18.5137 370.93 18.6073H371.725V17.9521H363.595V18.5137H364.391C364.744 18.5137 365.009 18.6073 365.363 18.7008C365.628 18.888 365.804 19.2624 365.893 19.7303V31.5222H359.265V19.8239C359.265 19.2624 359.442 18.888 359.795 18.7944C360.061 18.6073 360.414 18.5137 360.767 18.6073H361.563V17.9521H353.433V18.5137H354.228C354.582 18.5137 354.847 18.6073 355.2 18.7008C355.465 18.888 355.642 19.2624 355.731 19.7303V30.6799C355.731 31.2415 355.554 31.6158 355.2 31.7094C354.935 31.8966 354.582 31.9901 354.228 31.8966H353.433L353.168 32.5517Z" fill="#5F8D6E"/>
<path d="M386.747 17.9521H373.139V18.5137H373.934C374.287 18.5137 374.553 18.6073 374.906 18.7008C375.171 18.888 375.348 19.2624 375.436 19.7303V30.6799C375.436 31.2415 375.259 31.6158 374.906 31.7094C374.641 31.8966 374.287 31.9901 373.934 31.8966H373.139V32.4581H386.747L387.631 27.8723H387.012C386.659 28.9954 386.217 29.7441 385.51 30.3056C384.891 30.8671 384.184 31.1479 383.389 31.335C382.682 31.5222 381.975 31.5222 381.445 31.5222C381.357 31.5222 381.268 31.5222 381.18 31.5222C381.092 31.5222 381.003 31.5222 380.915 31.5222C380.12 31.5222 379.589 31.4286 379.324 31.2415C379.148 31.0543 379.059 30.7735 379.059 30.3992V25.6263H379.413C379.766 25.6263 380.208 25.6263 380.65 25.7198C381.092 25.8134 381.445 26.0942 381.799 26.5621C382.152 27.0301 382.417 27.7787 382.506 28.8082H383.124V21.5084H382.506C382.417 22.5379 382.152 23.2866 381.799 23.7545C381.445 24.2225 381.092 24.5032 380.65 24.5968C380.208 24.6904 379.766 24.784 379.413 24.6904H379.059V18.888H381.887C383.036 18.888 383.919 19.0752 384.538 19.4495C385.157 19.8239 385.598 20.2918 385.775 20.7597C386.04 21.2277 386.129 21.6956 386.129 22.07H386.747V17.9521Z" fill="#5F8D6E"/>
<path d="M394.877 24.316V19.8239C394.877 19.2624 395.054 18.888 395.407 18.7944C395.672 18.6073 396.026 18.5137 396.379 18.6073H397.175V17.9521H389.045V18.5137H389.84C390.194 18.5137 390.459 18.6073 390.812 18.7008C391.077 18.888 391.254 19.2624 391.342 19.7303V30.6799C391.342 31.2415 391.166 31.6158 390.812 31.7094C390.547 31.8966 390.194 31.9901 389.84 31.8966H389.045V32.4581H397.175V31.8966H396.379C396.026 31.8966 395.761 31.803 395.407 31.7094C395.142 31.5222 394.965 31.1479 394.877 30.6799V25.2519H401.24V30.6799C401.24 31.2415 401.063 31.6158 400.709 31.7094C400.444 31.8966 400.091 31.9901 399.737 31.8966H398.942V32.4581H407.072V31.8966H406.276C405.923 31.8966 405.658 31.803 405.304 31.7094C405.039 31.5222 404.863 31.1479 404.774 30.6799V19.8239C404.774 19.2624 404.951 18.888 405.304 18.7008C405.658 18.5137 405.923 18.5137 406.188 18.5137H406.983V17.9521H398.942V18.5137H399.737C400.091 18.5137 400.356 18.6073 400.709 18.7008C400.974 18.888 401.151 19.2624 401.24 19.7303V24.2225H394.877V24.316Z" fill="#5F8D6E"/>
<path d="M417.322 18.888H418.029C418.559 18.888 419.089 18.888 419.62 18.9816C420.15 19.0752 420.68 19.3559 421.033 19.8239C421.475 20.2918 421.74 21.0405 421.917 22.07H422.536V17.9521H408.132V22.07H408.75C408.927 21.0405 409.192 20.2918 409.634 19.8239C410.076 19.3559 410.518 19.0752 411.048 18.9816C411.578 18.888 412.108 18.7944 412.639 18.888H413.345V30.6799C413.345 31.2415 413.169 31.6158 412.815 31.7094C412.55 31.8966 412.197 31.9901 411.843 31.8966H410.871V32.4581H419.354V31.8966H418.382C418.029 31.8966 417.764 31.803 417.41 31.7094C417.145 31.5222 416.969 31.1479 416.88 30.6799V18.888H417.322Z" fill="#5F8D6E"/>
<path d="M423.773 32.5517H432.168V31.9901H431.108C430.754 31.9901 430.489 31.8966 430.136 31.803C429.871 31.6158 429.694 31.2415 429.606 30.7735V25.8134C429.871 25.8134 430.224 25.8134 430.489 25.8134C430.754 25.8134 431.108 25.8134 431.373 25.8134C433.14 25.8134 434.554 25.6263 435.526 25.1583C436.498 24.784 437.117 24.2225 437.47 23.5673C437.824 22.9122 438 22.3507 438 21.6956C438 20.8533 437.735 20.1982 437.294 19.6367C436.852 19.1688 436.322 18.7944 435.615 18.5137C434.996 18.2329 434.289 18.1393 433.759 18.0457C433.14 17.9521 432.698 17.9521 432.345 17.9521H423.773V18.5137H424.569C424.922 18.5137 425.187 18.6073 425.541 18.7008C425.806 18.888 425.983 19.2624 426.071 19.7303V30.6799C426.071 31.2415 425.894 31.6158 425.541 31.7094C425.276 31.8966 424.922 31.9901 424.569 31.8966H423.773V32.5517ZM429.694 18.888H430.843C431.285 18.888 431.726 18.888 432.257 18.9816C432.787 19.0752 433.14 19.3559 433.494 19.7303C433.847 20.1046 434.024 20.7597 434.024 21.6956C434.024 22.6315 433.847 23.3802 433.494 23.8481C433.14 24.316 432.698 24.5968 432.168 24.6904C431.638 24.784 431.196 24.8776 430.754 24.8776C430.578 24.8776 430.401 24.8776 430.224 24.8776C430.047 24.8776 429.871 24.784 429.694 24.784V18.888Z" fill="#5F8D6E"/>
<path d="M84.515 2.08533C80.0453 0.96791 75.1155 0.573526 70.6458 0.244873L58.157 0.376334L51.7811 1.09937C48.2316 1.09937 19.5731 5.43759 19.5731 16.6775C19.5731 19.3068 21.6107 20.6214 23.977 20.6214C26.5405 20.6214 32.4563 18.5837 34.3625 17.3348C32.9821 19.4382 28.4467 29.2978 23.7798 29.2978C22.5309 29.2978 22.0708 28.0489 21.0849 27.063C20.3618 27.5231 19.5073 29.6265 19.5073 30.4152C19.5073 32.1242 20.7562 33.5703 22.5967 33.5703C27.2636 33.5703 33.7052 22.1332 35.6113 18.4523C35.7428 18.2551 35.8085 18.0579 35.8743 17.9264C36.2029 17.3348 36.926 16.3489 38.1091 15.8888C38.635 15.7573 40.6726 14.8371 40.7383 14.8371C41.1327 14.7056 41.4614 14.5742 41.7243 14.5084C41.5928 14.7056 41.4614 14.9028 41.3956 15.1C41.3956 15.1 41.3956 15.1 41.3299 15.1V15.1657C41.1327 15.4944 41.0013 15.7573 41.0013 15.7573C38.7664 19.241 32.9821 28.9034 32.9821 33.1102C32.9821 34.7535 33.9023 35.9366 35.7428 35.9366C37.4518 35.9366 38.8979 35.5422 40.6069 33.636C40.4754 33.5046 40.4754 33.4389 40.4754 33.4389C39.6866 33.5046 38.8321 33.7675 38.635 33.7675C37.1232 33.7675 36.0715 32.3872 36.0715 30.8754C36.0715 25.6169 41.1327 18.1236 44.6164 13.391C44.6822 13.1938 51.7811 10.8275 53.1614 10.8275C53.9502 10.8275 54.8704 11.2219 54.8704 12.3393C54.8704 13.4567 51.2552 17.0062 51.2552 17.8607V18.518C54.2789 15.4287 57.9598 12.1421 57.9598 8.92132C57.9598 6.55502 55.6592 5.10894 53.4901 5.10894C47.9687 5.10894 36.2687 12.6022 31.6018 12.6022C31.2074 12.6022 29.6956 12.7337 29.6956 11.4191C29.6299 4.91175 57.7626 1.88814 59.0115 1.82241L65.5845 1.62522L70.6458 1.75668C71.2374 1.82241 72.0919 2.0196 72.2891 2.0196H73.9323C74.5239 2.0196 79.9138 3.13702 80.8998 3.13702C84.7779 3.20275 111.333 10.7618 111.333 24.3023C111.333 41.3265 79.7166 45.862 72.6834 45.862H71.1716C70.9744 45.862 69.7913 46.0591 69.134 46.1249L62.8238 46.1906L58.6171 45.862C51.9126 45.862 15.6292 42.181 15.6292 24.8939C15.6292 22.5933 15.7607 21.7388 17.0096 19.241H16.3523C13.5916 19.241 13 25.0911 13 25.6826C13 44.5473 56.1193 47.2423 56.448 47.2423L62.7581 47.5052H70.843L74.7211 47.1108C82.6745 47.1108 96.3465 43.7586 102.854 40.735C106.272 39.1574 109.624 37.1198 113.108 34.0962C113.962 33.3731 117.117 29.1006 117.117 27.6546C117.117 27.4574 117.38 25.0911 117.38 24.8939C117.38 9.90728 90.4307 3.53141 84.515 2.08533Z" fill="#5F8D6E"/>
<path d="M57.6313 25.6167C57.6313 23.1846 55.988 21.4099 53.4245 21.4099C50.9268 21.4099 49.2178 23.1846 49.2178 25.6167C49.2178 28.0487 50.861 29.8234 53.4245 29.8234C55.988 29.8234 57.6313 27.983 57.6313 25.6167ZM51.3212 25.6167C51.3212 22.7903 52.3728 21.9358 53.4903 21.9358C54.6077 21.9358 55.6594 22.7903 55.6594 25.6167C55.6594 28.4431 54.6077 29.2976 53.4903 29.2976C52.3728 29.2976 51.3212 28.5088 51.3212 25.6167Z" fill="#5F8D6E"/>
<path d="M62.0347 22.6589C58.9453 22.6589 58.0908 24.4337 58.0908 25.5511C58.0908 28.1803 59.3397 28.4432 62.0347 28.4432H62.2976V28.6404C62.2976 29.232 61.8375 29.2977 61.5745 29.2977H61.3116L61.3774 29.7578H65.1897V29.4949H64.9925C64.6639 29.4949 64.2695 29.3635 64.2695 28.8376V28.509H64.5324C67.2274 28.509 68.4105 27.9831 68.4763 25.6168C68.4763 24.4994 67.6875 22.7247 64.5324 22.7247H64.2695V22.4617C64.2695 22.2645 64.401 22.0016 64.9925 22.0016H65.124L65.0583 21.5415L61.3116 21.6072V22.0016H61.5745C62.2319 22.0016 62.2976 22.4617 62.2976 22.5932V22.6589H62.0347ZM64.138 23.3162C65.3869 23.3162 66.4386 24.105 66.4386 25.6825C66.4386 28.1146 65.0583 28.0488 64.138 28.0488V23.3162ZM62.3633 23.382V28.1146C61.3774 28.1146 60.0627 28.3775 60.0627 25.7483C60.0627 24.105 61.1802 23.382 62.3633 23.382Z" fill="#5F8D6E"/>
<path d="M68.8709 29.2319H68.4766V29.5605H75.1811L75.6412 27.6543L75.1811 27.5229C74.721 29.3633 73.4064 29.0347 72.6176 29.0347C72.5519 29.0347 72.4204 29.0347 72.3547 29.0347C71.5002 29.0347 71.4344 28.7717 71.4344 28.3774V25.6824H71.6316C72.1575 25.6824 73.5378 25.4852 73.6036 26.8656H74.1294V24.0391H73.6693C73.5378 25.4195 72.2232 25.2223 71.6974 25.2223H71.5002V21.9358H72.8148C74.5238 21.9358 74.8524 22.9217 74.9182 23.5133L75.3783 23.4476L75.2468 21.4099H68.4766V21.7386H68.8709C69.1339 21.7386 69.594 21.87 69.594 22.4616V28.5088C69.594 29.1004 69.1996 29.2319 68.8709 29.2319Z" fill="#5F8D6E"/>
<path d="M81.2942 21.4758C80.8341 21.3444 80.4397 21.2129 79.9796 21.2129C77.4818 21.2129 75.9043 23.4477 75.9043 25.8798C75.9043 28.3118 77.5476 29.6921 80.0453 29.6921C80.9656 29.6921 82.4774 29.6921 83.3976 27.1944L82.8718 26.9315C82.083 28.7062 81.4257 28.9691 80.4397 28.9691C77.9419 28.9691 77.942 26.2742 77.942 25.5511C77.942 22.396 79.388 21.7387 80.3083 21.7387C81.4257 21.7387 82.083 22.7247 82.2144 23.9736H82.806L82.6746 21.4101L82.2144 21.4758C82.1487 21.8045 82.5431 21.8045 82.2144 21.8045C82.0173 21.8045 81.8201 21.673 81.2942 21.4758Z" fill="#5F8D6E"/>
<path d="M99.8959 25.5512C99.8959 23.1192 98.2527 21.3445 95.6892 21.3445C93.1257 21.2787 91.4824 23.1192 91.4824 25.5512C91.4824 27.9833 93.1257 29.758 95.6892 29.758C98.2527 29.758 99.8959 27.9175 99.8959 25.5512ZM93.5201 25.5512C93.5201 22.7248 94.5718 21.8703 95.6892 21.8703C96.8066 21.8703 97.8583 22.7248 97.8583 25.5512C97.8583 28.3777 96.8066 29.2322 95.6892 29.2322C94.5718 29.2322 93.5201 28.3777 93.5201 25.5512Z" fill="#5F8D6E"/>
<path d="M100.488 29.3635H100.094V29.6264H103.84V29.2977C103.577 29.2977 103.052 29.232 103.052 28.5747L102.986 26.6685C103.315 26.6685 103.577 26.7342 103.84 26.7342C106.535 26.7342 107.39 25.091 107.39 24.105C107.39 21.7387 104.958 21.5415 104.301 21.5415H100.094V21.8702H100.488C100.751 21.8702 101.211 22.0016 101.211 22.5932V28.6404C101.211 29.232 100.817 29.3635 100.488 29.3635ZM102.92 22.1988L103.643 21.9359C104.235 21.9359 105.221 22.1988 105.221 23.7763C105.221 25.4196 104.432 25.9455 103.775 25.9455C103.577 25.9455 103.117 25.814 102.92 25.7483V22.1988Z" fill="#5F8D6E"/>
<path d="M89.051 21.4758C88.5909 21.3444 88.1965 21.2129 87.7364 21.2129C85.2387 21.2129 83.6611 23.4477 83.6611 25.8798C83.6611 28.3118 85.3044 29.6921 87.8022 29.6921C88.7224 29.6921 90.2342 29.6921 91.1544 27.1944L90.6286 26.9315C89.8398 28.7062 89.1825 28.9691 88.1965 28.9691C85.6988 28.9691 85.6988 26.2742 85.6988 25.5511C85.6988 22.396 87.1449 21.7387 88.0651 21.7387C89.1825 21.7387 89.8398 22.7247 89.9713 23.9736H90.5629L90.4314 21.4101L89.9713 21.4758C89.9055 21.8045 90.2999 21.8045 89.9713 21.8045C89.7741 21.8045 89.5769 21.673 89.051 21.4758Z" fill="#5F8D6E"/>
<path d="M41.7899 29.5607H41.3955V29.8236H45.1422V29.495C44.8792 29.495 44.3534 29.4293 44.3534 28.772L44.2877 26.8658C44.6163 26.8658 44.8792 26.9315 45.1422 26.9315C47.8371 26.9315 48.6916 25.2882 48.6916 24.3023C48.6916 21.936 46.2596 21.7388 45.6023 21.7388H41.3955V22.0674H41.7899C42.0528 22.0674 42.5129 22.1989 42.5129 22.7905V28.8377C42.5129 29.4293 42.1185 29.5607 41.7899 29.5607ZM44.2219 22.4618L44.945 22.1989C45.5365 22.1989 46.5225 22.4618 46.5225 24.0393C46.5225 25.6826 45.7337 26.2085 45.0764 26.2085C44.8792 26.2085 44.4191 26.077 44.2219 26.0113V22.4618Z" fill="#5F8D6E"/>
<path d="M155.164 57.12C154.452 57.12 153.84 57.004 153.328 56.772C152.816 56.532 152.416 56.168 152.128 55.68C151.84 55.184 151.684 54.568 151.66 53.832C151.652 53.488 151.648 53.148 151.648 52.812C151.648 52.476 151.652 52.132 151.66 51.78C151.684 51.052 151.844 50.444 152.14 49.956C152.436 49.468 152.84 49.1 153.352 48.852C153.872 48.604 154.476 48.48 155.164 48.48C155.852 48.48 156.456 48.604 156.976 48.852C157.496 49.1 157.904 49.468 158.2 49.956C158.496 50.444 158.656 51.052 158.68 51.78C158.696 52.132 158.704 52.476 158.704 52.812C158.704 53.148 158.696 53.488 158.68 53.832C158.656 54.568 158.5 55.184 158.212 55.68C157.924 56.168 157.52 56.532 157 56.772C156.488 57.004 155.876 57.12 155.164 57.12ZM155.164 55.74C155.684 55.74 156.108 55.588 156.436 55.284C156.764 54.972 156.94 54.468 156.964 53.772C156.98 53.42 156.988 53.096 156.988 52.8C156.988 52.496 156.98 52.172 156.964 51.828C156.948 51.364 156.86 50.988 156.7 50.7C156.548 50.404 156.34 50.192 156.076 50.064C155.812 49.928 155.508 49.86 155.164 49.86C154.828 49.86 154.528 49.928 154.264 50.064C154 50.192 153.788 50.404 153.628 50.7C153.476 50.988 153.392 51.364 153.376 51.828C153.368 52.172 153.364 52.496 153.364 52.8C153.364 53.096 153.368 53.42 153.376 53.772C153.4 54.468 153.576 54.972 153.904 55.284C154.232 55.588 154.652 55.74 155.164 55.74ZM163.52 57.12C162.776 57.12 162.144 56.992 161.624 56.736C161.112 56.472 160.72 56.1 160.448 55.62C160.176 55.132 160.024 54.548 159.992 53.868C159.984 53.54 159.98 53.188 159.98 52.812C159.98 52.436 159.984 52.076 159.992 51.732C160.024 51.06 160.176 50.48 160.448 49.992C160.728 49.504 161.124 49.132 161.636 48.876C162.156 48.612 162.784 48.48 163.52 48.48C164.064 48.48 164.552 48.552 164.984 48.696C165.416 48.84 165.784 49.04 166.088 49.296C166.392 49.544 166.628 49.836 166.796 50.172C166.964 50.508 167.052 50.872 167.06 51.264C167.068 51.336 167.044 51.396 166.988 51.444C166.94 51.492 166.88 51.516 166.808 51.516H165.668C165.58 51.516 165.508 51.496 165.452 51.456C165.396 51.408 165.356 51.332 165.332 51.228C165.204 50.7 164.984 50.34 164.672 50.148C164.36 49.956 163.972 49.86 163.508 49.86C162.972 49.86 162.544 50.012 162.224 50.316C161.904 50.612 161.732 51.104 161.708 51.792C161.684 52.448 161.684 53.12 161.708 53.808C161.732 54.496 161.904 54.992 162.224 55.296C162.544 55.592 162.972 55.74 163.508 55.74C163.972 55.74 164.36 55.644 164.672 55.452C164.984 55.252 165.204 54.892 165.332 54.372C165.356 54.26 165.396 54.184 165.452 54.144C165.508 54.104 165.58 54.084 165.668 54.084H166.808C166.88 54.084 166.94 54.108 166.988 54.156C167.044 54.204 167.068 54.264 167.06 54.336C167.052 54.728 166.964 55.092 166.796 55.428C166.628 55.764 166.392 56.06 166.088 56.316C165.784 56.564 165.416 56.76 164.984 56.904C164.552 57.048 164.064 57.12 163.52 57.12ZM168.771 57C168.691 57 168.623 56.976 168.567 56.928C168.511 56.872 168.483 56.8 168.483 56.712V48.9C168.483 48.812 168.511 48.74 168.567 48.684C168.623 48.628 168.691 48.6 168.771 48.6H169.863C169.951 48.6 170.019 48.628 170.067 48.684C170.123 48.74 170.151 48.812 170.151 48.9V51.996H173.691V48.9C173.691 48.812 173.719 48.74 173.775 48.684C173.831 48.628 173.899 48.6 173.979 48.6H175.059C175.147 48.6 175.219 48.628 175.275 48.684C175.331 48.74 175.359 48.812 175.359 48.9V56.712C175.359 56.792 175.331 56.86 175.275 56.916C175.219 56.972 175.147 57 175.059 57H173.979C173.899 57 173.831 56.972 173.775 56.916C173.719 56.86 173.691 56.792 173.691 56.712V53.496H170.151V56.712C170.151 56.792 170.123 56.86 170.067 56.916C170.019 56.972 169.951 57 169.863 57H168.771ZM180.453 57.12C179.741 57.12 179.129 57.004 178.617 56.772C178.105 56.532 177.705 56.168 177.417 55.68C177.129 55.184 176.973 54.568 176.949 53.832C176.941 53.488 176.937 53.148 176.937 52.812C176.937 52.476 176.941 52.132 176.949 51.78C176.973 51.052 177.133 50.444 177.429 49.956C177.725 49.468 178.129 49.1 178.641 48.852C179.161 48.604 179.765 48.48 180.453 48.48C181.141 48.48 181.745 48.604 182.265 48.852C182.785 49.1 183.193 49.468 183.489 49.956C183.785 50.444 183.945 51.052 183.969 51.78C183.985 52.132 183.993 52.476 183.993 52.812C183.993 53.148 183.985 53.488 183.969 53.832C183.945 54.568 183.789 55.184 183.501 55.68C183.213 56.168 182.809 56.532 182.289 56.772C181.777 57.004 181.165 57.12 180.453 57.12ZM180.453 55.74C180.973 55.74 181.397 55.588 181.725 55.284C182.053 54.972 182.229 54.468 182.253 53.772C182.269 53.42 182.277 53.096 182.277 52.8C182.277 52.496 182.269 52.172 182.253 51.828C182.237 51.364 182.149 50.988 181.989 50.7C181.837 50.404 181.629 50.192 181.365 50.064C181.101 49.928 180.797 49.86 180.453 49.86C180.117 49.86 179.817 49.928 179.553 50.064C179.289 50.192 179.077 50.404 178.917 50.7C178.765 50.988 178.681 51.364 178.665 51.828C178.657 52.172 178.653 52.496 178.653 52.8C178.653 53.096 178.657 53.42 178.665 53.772C178.689 54.468 178.865 54.972 179.193 55.284C179.521 55.588 179.941 55.74 180.453 55.74ZM185.857 57C185.777 57 185.709 56.972 185.653 56.916C185.597 56.86 185.569 56.792 185.569 56.712V48.9C185.569 48.812 185.597 48.74 185.653 48.684C185.709 48.628 185.777 48.6 185.857 48.6H189.337C189.985 48.6 190.513 48.7 190.921 48.9C191.329 49.092 191.629 49.36 191.821 49.704C192.021 50.048 192.121 50.448 192.121 50.904C192.121 51.208 192.065 51.476 191.953 51.708C191.849 51.932 191.717 52.116 191.557 52.26C191.405 52.404 191.253 52.516 191.101 52.596C191.413 52.74 191.689 52.98 191.929 53.316C192.169 53.652 192.289 54.052 192.289 54.516C192.289 54.996 192.181 55.424 191.965 55.8C191.749 56.176 191.429 56.472 191.005 56.688C190.581 56.896 190.057 57 189.433 57H185.857ZM187.237 55.728H189.241C189.673 55.728 190.001 55.612 190.225 55.38C190.449 55.14 190.561 54.852 190.561 54.516C190.561 54.164 190.445 53.872 190.213 53.64C189.989 53.408 189.665 53.292 189.241 53.292H187.237V55.728ZM187.237 52.044H189.121C189.545 52.044 189.861 51.944 190.069 51.744C190.285 51.536 190.393 51.268 190.393 50.94C190.393 50.604 190.285 50.344 190.069 50.16C189.861 49.968 189.545 49.872 189.121 49.872H187.237V52.044ZM193.279 57C193.215 57 193.155 56.976 193.099 56.928C193.051 56.88 193.027 56.82 193.027 56.748C193.027 56.716 193.035 56.68 193.051 56.64L195.943 48.9C195.967 48.82 196.011 48.752 196.075 48.696C196.147 48.632 196.243 48.6 196.363 48.6H197.671C197.791 48.6 197.883 48.632 197.947 48.696C198.011 48.752 198.059 48.82 198.091 48.9L200.983 56.64C200.991 56.68 200.995 56.716 200.995 56.748C200.995 56.82 200.971 56.88 200.923 56.928C200.875 56.976 200.819 57 200.755 57H199.711C199.599 57 199.515 56.976 199.459 56.928C199.411 56.872 199.379 56.82 199.363 56.772L198.799 55.308H195.235L194.671 56.772C194.655 56.82 194.619 56.872 194.563 56.928C194.515 56.976 194.435 57 194.323 57H193.279ZM195.655 53.928H198.379L197.011 50.22L195.655 53.928ZM202.404 57C202.324 57 202.256 56.976 202.2 56.928C202.144 56.872 202.116 56.8 202.116 56.712V48.9C202.116 48.812 202.144 48.74 202.2 48.684C202.256 48.628 202.324 48.6 202.404 48.6H203.496C203.584 48.6 203.652 48.628 203.7 48.684C203.756 48.74 203.784 48.812 203.784 48.9V51.996H207.324V48.9C207.324 48.812 207.352 48.74 207.408 48.684C207.464 48.628 207.532 48.6 207.612 48.6H208.692C208.78 48.6 208.852 48.628 208.908 48.684C208.964 48.74 208.992 48.812 208.992 48.9V56.712C208.992 56.792 208.964 56.86 208.908 56.916C208.852 56.972 208.78 57 208.692 57H207.612C207.532 57 207.464 56.972 207.408 56.916C207.352 56.86 207.324 56.792 207.324 56.712V53.496H203.784V56.712C203.784 56.792 203.756 56.86 203.7 56.916C203.652 56.972 203.584 57 203.496 57H202.404ZM213.888 57C213.808 57 213.74 56.972 213.684 56.916C213.628 56.86 213.6 56.792 213.6 56.712V48.9C213.6 48.812 213.628 48.74 213.684 48.684C213.74 48.628 213.808 48.6 213.888 48.6H217.368C218.016 48.6 218.544 48.7 218.952 48.9C219.36 49.092 219.66 49.36 219.852 49.704C220.052 50.048 220.152 50.448 220.152 50.904C220.152 51.208 220.096 51.476 219.984 51.708C219.88 51.932 219.748 52.116 219.588 52.26C219.436 52.404 219.284 52.516 219.132 52.596C219.444 52.74 219.72 52.98 219.96 53.316C220.2 53.652 220.32 54.052 220.32 54.516C220.32 54.996 220.212 55.424 219.996 55.8C219.78 56.176 219.46 56.472 219.036 56.688C218.612 56.896 218.088 57 217.464 57H213.888ZM215.268 55.728H217.272C217.704 55.728 218.032 55.612 218.256 55.38C218.48 55.14 218.592 54.852 218.592 54.516C218.592 54.164 218.476 53.872 218.244 53.64C218.02 53.408 217.696 53.292 217.272 53.292H215.268V55.728ZM215.268 52.044H217.152C217.576 52.044 217.892 51.944 218.1 51.744C218.316 51.536 218.424 51.268 218.424 50.94C218.424 50.604 218.316 50.344 218.1 50.16C217.892 49.968 217.576 49.872 217.152 49.872H215.268V52.044ZM226.957 57C226.869 57 226.797 56.972 226.741 56.916C226.693 56.86 226.669 56.792 226.669 56.712V50.496L224.845 51.9C224.773 51.948 224.701 51.968 224.629 51.96C224.557 51.944 224.493 51.9 224.437 51.828L223.933 51.18C223.885 51.108 223.865 51.032 223.873 50.952C223.889 50.872 223.933 50.808 224.005 50.76L226.693 48.684C226.741 48.644 226.789 48.62 226.837 48.612C226.885 48.604 226.937 48.6 226.993 48.6H228.049C228.129 48.6 228.197 48.628 228.253 48.684C228.309 48.74 228.337 48.808 228.337 48.888V56.712C228.337 56.792 228.309 56.86 228.253 56.916C228.197 56.972 228.129 57 228.049 57H226.957ZM231.396 57C231.324 57 231.264 56.976 231.216 56.928C231.168 56.872 231.144 56.808 231.144 56.736C231.144 56.696 231.148 56.664 231.156 56.64C231.172 56.616 231.184 56.596 231.192 56.58L232.956 54.144C232.796 54.184 232.628 54.2 232.452 54.192C232.052 54.184 231.676 54.108 231.324 53.964C230.98 53.812 230.676 53.612 230.412 53.364C230.156 53.108 229.952 52.816 229.8 52.488C229.656 52.152 229.583 51.788 229.583 51.396C229.583 51.036 229.652 50.684 229.788 50.34C229.924 49.988 230.124 49.672 230.388 49.392C230.66 49.112 230.996 48.892 231.396 48.732C231.804 48.564 232.28 48.48 232.824 48.48C233.36 48.48 233.832 48.556 234.24 48.708C234.648 48.86 234.988 49.072 235.26 49.344C235.54 49.608 235.748 49.912 235.884 50.256C236.028 50.6 236.1 50.964 236.1 51.348C236.1 51.692 236.044 52.012 235.932 52.308C235.82 52.604 235.68 52.876 235.512 53.124C235.352 53.364 235.192 53.6 235.032 53.832L232.92 56.76C232.888 56.8 232.84 56.852 232.776 56.916C232.72 56.972 232.632 57 232.512 57H231.396ZM232.836 52.92C233.124 52.92 233.384 52.86 233.616 52.74C233.856 52.612 234.044 52.436 234.18 52.212C234.324 51.98 234.396 51.708 234.396 51.396C234.396 51.076 234.324 50.804 234.18 50.58C234.044 50.348 233.856 50.172 233.616 50.052C233.376 49.924 233.116 49.86 232.836 49.86C232.548 49.86 232.284 49.924 232.044 50.052C231.812 50.172 231.624 50.348 231.48 50.58C231.344 50.804 231.276 51.076 231.276 51.396C231.276 51.708 231.344 51.98 231.48 52.212C231.624 52.436 231.812 52.612 232.044 52.74C232.284 52.86 232.548 52.92 232.836 52.92ZM238.802 57C238.73 57 238.67 56.976 238.622 56.928C238.574 56.872 238.55 56.808 238.55 56.736C238.55 56.696 238.554 56.664 238.562 56.64C238.578 56.616 238.59 56.596 238.598 56.58L240.362 54.144C240.202 54.184 240.034 54.2 239.858 54.192C239.458 54.184 239.082 54.108 238.73 53.964C238.386 53.812 238.082 53.612 237.818 53.364C237.562 53.108 237.358 52.816 237.206 52.488C237.062 52.152 236.99 51.788 236.99 51.396C236.99 51.036 237.058 50.684 237.194 50.34C237.33 49.988 237.53 49.672 237.794 49.392C238.066 49.112 238.402 48.892 238.802 48.732C239.21 48.564 239.686 48.48 240.23 48.48C240.766 48.48 241.238 48.556 241.646 48.708C242.054 48.86 242.394 49.072 242.666 49.344C242.946 49.608 243.154 49.912 243.29 50.256C243.434 50.6 243.506 50.964 243.506 51.348C243.506 51.692 243.45 52.012 243.338 52.308C243.226 52.604 243.086 52.876 242.918 53.124C242.758 53.364 242.598 53.6 242.438 53.832L240.326 56.76C240.294 56.8 240.246 56.852 240.182 56.916C240.126 56.972 240.038 57 239.918 57H238.802ZM240.242 52.92C240.53 52.92 240.79 52.86 241.022 52.74C241.262 52.612 241.45 52.436 241.586 52.212C241.73 51.98 241.802 51.708 241.802 51.396C241.802 51.076 241.73 50.804 241.586 50.58C241.45 50.348 241.262 50.172 241.022 50.052C240.782 49.924 240.522 49.86 240.242 49.86C239.954 49.86 239.69 49.924 239.45 50.052C239.218 50.172 239.03 50.348 238.886 50.58C238.75 50.804 238.682 51.076 238.682 51.396C238.682 51.708 238.75 51.98 238.886 52.212C239.03 52.436 239.218 52.612 239.45 52.74C239.69 52.86 239.954 52.92 240.242 52.92ZM244.828 57C244.748 57 244.68 56.972 244.624 56.916C244.568 56.86 244.54 56.792 244.54 56.712V56.1C244.54 56.028 244.556 55.944 244.588 55.848C244.628 55.744 244.712 55.64 244.84 55.536L246.736 53.652C247.264 53.236 247.688 52.884 248.008 52.596C248.336 52.3 248.572 52.032 248.716 51.792C248.868 51.544 248.944 51.3 248.944 51.06C248.944 50.7 248.844 50.408 248.644 50.184C248.452 49.96 248.144 49.848 247.72 49.848C247.44 49.848 247.204 49.908 247.012 50.028C246.82 50.14 246.668 50.292 246.556 50.484C246.452 50.676 246.38 50.888 246.34 51.12C246.324 51.224 246.28 51.296 246.208 51.336C246.136 51.376 246.064 51.396 245.992 51.396H244.924C244.852 51.396 244.792 51.372 244.744 51.324C244.696 51.276 244.672 51.22 244.672 51.156C244.68 50.812 244.752 50.48 244.888 50.16C245.024 49.832 245.22 49.544 245.476 49.296C245.74 49.04 246.06 48.836 246.436 48.684C246.812 48.532 247.236 48.456 247.708 48.456C248.372 48.456 248.92 48.568 249.352 48.792C249.792 49.016 250.12 49.32 250.336 49.704C250.56 50.088 250.672 50.52 250.672 51C250.672 51.376 250.6 51.724 250.456 52.044C250.312 52.356 250.104 52.66 249.832 52.956C249.56 53.244 249.232 53.54 248.848 53.844L247.144 55.572H250.564C250.652 55.572 250.72 55.6 250.768 55.656C250.824 55.704 250.852 55.772 250.852 55.86V56.712C250.852 56.792 250.824 56.86 250.768 56.916C250.72 56.972 250.652 57 250.564 57H244.828ZM255.252 57C255.172 57 255.104 56.972 255.048 56.916C254.992 56.86 254.964 56.792 254.964 56.712V51.048C254.964 50.968 254.992 50.9 255.048 50.844C255.104 50.788 255.172 50.76 255.252 50.76H259.056C259.136 50.76 259.204 50.788 259.26 50.844C259.316 50.9 259.344 50.968 259.344 51.048V51.744C259.344 51.824 259.316 51.892 259.26 51.948C259.204 52.004 259.136 52.032 259.056 52.032H256.536V56.712C256.536 56.792 256.508 56.86 256.452 56.916C256.404 56.972 256.336 57 256.248 57H255.252Z" fill="white"/>
<path d="M141.724 53.9951C141.636 53.9951 141.564 53.9671 141.508 53.9111C141.46 53.8551 141.436 53.7871 141.436 53.7071V52.9151C141.436 52.8351 141.46 52.7671 141.508 52.7111C141.564 52.6551 141.636 52.6271 141.724 52.6271H145.408C145.488 52.6271 145.556 52.6551 145.612 52.7111C145.668 52.7671 145.696 52.8351 145.696 52.9151V53.7071C145.696 53.7871 145.668 53.8551 145.612 53.9111C145.556 53.9671 145.488 53.9951 145.408 53.9951H141.724Z" fill="white"/>
<path d="M265.044 53.9951C264.956 53.9951 264.884 53.9671 264.828 53.9111C264.78 53.8551 264.756 53.7871 264.756 53.7071V52.9151C264.756 52.8351 264.78 52.7671 264.828 52.7111C264.884 52.6551 264.956 52.6271 265.044 52.6271H268.728C268.808 52.6271 268.876 52.6551 268.932 52.7111C268.988 52.7671 269.016 52.8351 269.016 52.9151V53.7071C269.016 53.7871 268.988 53.8551 268.932 53.9111C268.876 53.9671 268.808 53.9951 268.728 53.9951H265.044Z" fill="white"/>
</svg>
