<svg width="177" height="80" viewBox="0 0 177 80" fill="none" xmlns="http://www.w3.org/2000/svg">
<path d="M121.057 3.11544C113.491 1.22392 105.146 0.556328 97.58 0L76.4395 0.222531L65.6467 1.44645C59.6384 1.44645 11.1266 8.78999 11.1266 27.8164C11.1266 32.267 14.5758 34.4924 18.5814 34.4924C22.9207 34.4924 32.9346 31.0431 36.1613 28.9291C33.8248 32.4896 26.1474 49.1794 18.2476 49.1794C16.1335 49.1794 15.3547 47.0654 13.6857 45.3964C12.4618 46.1752 11.0153 49.7357 11.0153 51.0709C11.0153 53.9638 13.1293 56.4117 16.2448 56.4117C24.1446 56.4117 35.0487 37.0515 38.2754 30.8206C38.4979 30.4868 38.6092 30.153 38.7204 29.9305C39.2768 28.9291 40.5007 27.2601 42.5035 26.4812C43.3936 26.2587 46.8428 24.701 46.9541 24.701C47.6217 24.4784 48.178 24.2559 48.6231 24.1446C48.4006 24.4784 48.178 24.8122 48.0668 25.146C48.0668 25.146 48.0668 25.146 47.9555 25.146V25.2573C47.6217 25.8136 47.3992 26.2587 47.3992 26.2587C43.6161 32.1558 33.8248 48.5118 33.8248 55.6328C33.8248 58.4145 35.3825 60.4172 38.4979 60.4172C41.3908 60.4172 43.8387 59.7497 46.7316 56.5229C46.509 56.3004 46.509 56.1892 46.509 56.1892C45.1739 56.3004 43.7274 56.7455 43.3936 56.7455C40.8345 56.7455 39.0542 54.4089 39.0542 51.8498C39.0542 42.9485 47.6217 30.2643 53.5188 22.2531C53.63 21.9193 65.6467 17.9138 67.9833 17.9138C69.3185 17.9138 70.8762 18.5814 70.8762 20.4729C70.8762 22.3644 64.7566 28.3727 64.7566 29.8192V30.9318C69.8748 25.7024 76.1057 20.1391 76.1057 14.6871C76.1057 10.6815 72.2114 8.23366 68.5396 8.23366C59.1933 8.23366 39.388 20.9179 31.4882 20.9179C30.8206 20.9179 28.2615 21.1405 28.2615 18.9152C28.1502 7.89986 75.7719 2.78164 77.886 2.67038L89.0125 2.33658L97.58 2.55911C98.5814 2.67038 100.028 3.00417 100.362 3.00417H103.143C104.145 3.00417 113.268 4.89569 114.937 4.89569C121.502 5.00695 166.453 17.8025 166.453 40.7232C166.453 69.541 112.935 77.2184 101.029 77.2184H98.4701C98.1363 77.2184 96.1335 77.5522 95.0209 77.6634L84.3394 77.7747L77.2184 77.2184C65.8693 77.2184 4.45063 70.9875 4.45063 41.7246C4.45063 37.8303 4.67316 36.3839 6.78721 32.1558H5.67455C1.00139 32.1558 0 42.0584 0 43.0598C0 74.993 72.9903 79.5549 73.5466 79.5549L84.2281 80H97.9138L104.478 79.3324C117.942 79.3324 141.085 73.6579 152.1 68.5396C157.886 65.8693 163.561 62.42 169.458 57.3018C170.904 56.0779 176.245 48.8456 176.245 46.3978C176.245 46.064 176.69 42.0584 176.69 41.7246C176.69 16.3561 131.071 5.56328 121.057 3.11544Z" fill="#5F8D6E"/>
</svg>
