<svg width="105" height="48" viewBox="0 0 105 48" fill="none" xmlns="http://www.w3.org/2000/svg">
<path d="M71.515 2.08533C67.0453 0.96791 62.1155 0.573526 57.6458 0.244873L45.157 0.376334L38.7811 1.09937C35.2316 1.09937 6.57307 5.43759 6.57307 16.6775C6.57307 19.3068 8.61072 20.6214 10.977 20.6214C13.5405 20.6214 19.4563 18.5837 21.3625 17.3348C19.9821 19.4382 15.4467 29.2978 10.7798 29.2978C9.53095 29.2978 9.07083 28.0489 8.08487 27.063C7.36183 27.5231 6.50734 29.6265 6.50734 30.4152C6.50734 32.1242 7.75622 33.5703 9.59668 33.5703C14.2636 33.5703 20.7052 22.1332 22.6113 18.4523C22.7428 18.2551 22.8085 18.0579 22.8743 17.9264C23.2029 17.3348 23.926 16.3489 25.1091 15.8888C25.635 15.7573 27.6726 14.8371 27.7383 14.8371C28.1327 14.7056 28.4614 14.5742 28.7243 14.5084C28.5928 14.7056 28.4614 14.9028 28.3956 15.1C28.3956 15.1 28.3956 15.1 28.3299 15.1V15.1657C28.1327 15.4944 28.0013 15.7573 28.0013 15.7573C25.7664 19.241 19.9821 28.9034 19.9821 33.1102C19.9821 34.7535 20.9023 35.9366 22.7428 35.9366C24.4518 35.9366 25.8979 35.5422 27.6069 33.636C27.4754 33.5046 27.4754 33.4389 27.4754 33.4389C26.6866 33.5046 25.8321 33.7675 25.635 33.7675C24.1232 33.7675 23.0715 32.3872 23.0715 30.8754C23.0715 25.6169 28.1327 18.1236 31.6164 13.391C31.6822 13.1938 38.7811 10.8275 40.1614 10.8275C40.9502 10.8275 41.8704 11.2219 41.8704 12.3393C41.8704 13.4567 38.2552 17.0062 38.2552 17.8607V18.518C41.2789 15.4287 44.9598 12.1421 44.9598 8.92132C44.9598 6.55502 42.6592 5.10894 40.4901 5.10894C34.9687 5.10894 23.2687 12.6022 18.6018 12.6022C18.2074 12.6022 16.6956 12.7337 16.6956 11.4191C16.6299 4.91175 44.7626 1.88814 46.0115 1.82241L52.5845 1.62522L57.6458 1.75668C58.2374 1.82241 59.0919 2.0196 59.2891 2.0196H60.9323C61.5239 2.0196 66.9138 3.13702 67.8998 3.13702C71.7779 3.20275 98.3331 10.7618 98.3331 24.3023C98.3331 41.3265 66.7166 45.862 59.6834 45.862H58.1716C57.9744 45.862 56.7913 46.0591 56.134 46.1249L49.8238 46.1906L45.6171 45.862C38.9126 45.862 2.62923 42.181 2.62923 24.8939C2.62923 22.5933 2.76069 21.7388 4.00957 19.241H3.35226C0.591576 19.241 0 25.0911 0 25.6826C0 44.5473 43.1193 47.2423 43.448 47.2423L49.7581 47.5052H57.843L61.7211 47.1108C69.6745 47.1108 83.3465 43.7586 89.8538 40.735C93.2718 39.1574 96.6241 37.1198 100.108 34.0962C100.962 33.3731 104.117 29.1006 104.117 27.6546C104.117 27.4574 104.38 25.0911 104.38 24.8939C104.38 9.90728 77.4307 3.53141 71.515 2.08533Z" fill="#5F8D6E"/>
<path d="M44.6313 25.6167C44.6313 23.1846 42.988 21.4099 40.4245 21.4099C37.9268 21.4099 36.2178 23.1846 36.2178 25.6167C36.2178 28.0487 37.861 29.8234 40.4245 29.8234C42.988 29.8234 44.6313 27.983 44.6313 25.6167ZM38.3212 25.6167C38.3212 22.7903 39.3728 21.9358 40.4903 21.9358C41.6077 21.9358 42.6594 22.7903 42.6594 25.6167C42.6594 28.4431 41.6077 29.2976 40.4903 29.2976C39.3728 29.2976 38.3212 28.5088 38.3212 25.6167Z" fill="#5F8D6E"/>
<path d="M49.0347 22.6589C45.9453 22.6589 45.0908 24.4337 45.0908 25.5511C45.0908 28.1803 46.3397 28.4432 49.0347 28.4432H49.2976V28.6404C49.2976 29.232 48.8375 29.2977 48.5745 29.2977H48.3116L48.3774 29.7578H52.1897V29.4949H51.9925C51.6639 29.4949 51.2695 29.3635 51.2695 28.8376V28.509H51.5324C54.2274 28.509 55.4105 27.9831 55.4763 25.6168C55.4763 24.4994 54.6875 22.7247 51.5324 22.7247H51.2695V22.4617C51.2695 22.2645 51.401 22.0016 51.9925 22.0016H52.124L52.0583 21.5415L48.3116 21.6072V22.0016H48.5745C49.2319 22.0016 49.2976 22.4617 49.2976 22.5932V22.6589H49.0347ZM51.138 23.3162C52.3869 23.3162 53.4386 24.105 53.4386 25.6825C53.4386 28.1146 52.0583 28.0488 51.138 28.0488V23.3162ZM49.3633 23.382V28.1146C48.3774 28.1146 47.0627 28.3775 47.0627 25.7483C47.0627 24.105 48.1802 23.382 49.3633 23.382Z" fill="#5F8D6E"/>
<path d="M55.8709 29.2319H55.4766V29.5605H62.1811L62.6412 27.6543L62.1811 27.5229C61.721 29.3633 60.4064 29.0347 59.6176 29.0347C59.5519 29.0347 59.4204 29.0347 59.3547 29.0347C58.5002 29.0347 58.4344 28.7717 58.4344 28.3774V25.6824H58.6316C59.1575 25.6824 60.5378 25.4852 60.6036 26.8656H61.1294V24.0391H60.6693C60.5378 25.4195 59.2232 25.2223 58.6974 25.2223H58.5002V21.9358H59.8148C61.5238 21.9358 61.8524 22.9217 61.9182 23.5133L62.3783 23.4476L62.2468 21.4099H55.4766V21.7386H55.8709C56.1339 21.7386 56.594 21.87 56.594 22.4616V28.5088C56.594 29.1004 56.1996 29.2319 55.8709 29.2319Z" fill="#5F8D6E"/>
<path d="M68.2942 21.4758C67.8341 21.3444 67.4397 21.2129 66.9796 21.2129C64.4818 21.2129 62.9043 23.4477 62.9043 25.8798C62.9043 28.3118 64.5476 29.6921 67.0453 29.6921C67.9656 29.6921 69.4774 29.6921 70.3976 27.1944L69.8718 26.9315C69.083 28.7062 68.4257 28.9691 67.4397 28.9691C64.9419 28.9691 64.942 26.2742 64.942 25.5511C64.942 22.396 66.388 21.7387 67.3083 21.7387C68.4257 21.7387 69.083 22.7247 69.2144 23.9736H69.806L69.6746 21.4101L69.2144 21.4758C69.1487 21.8045 69.5431 21.8045 69.2144 21.8045C69.0173 21.8045 68.8201 21.673 68.2942 21.4758Z" fill="#5F8D6E"/>
<path d="M86.8959 25.5512C86.8959 23.1192 85.2527 21.3445 82.6892 21.3445C80.1257 21.2787 78.4824 23.1192 78.4824 25.5512C78.4824 27.9833 80.1257 29.758 82.6892 29.758C85.2527 29.758 86.8959 27.9175 86.8959 25.5512ZM80.5201 25.5512C80.5201 22.7248 81.5718 21.8703 82.6892 21.8703C83.8066 21.8703 84.8583 22.7248 84.8583 25.5512C84.8583 28.3777 83.8066 29.2322 82.6892 29.2322C81.5718 29.2322 80.5201 28.3777 80.5201 25.5512Z" fill="#5F8D6E"/>
<path d="M87.4881 29.3635H87.0938V29.6264H90.8404V29.2977C90.5775 29.2977 90.0516 29.232 90.0516 28.5747L89.9859 26.6685C90.3145 26.6685 90.5775 26.7342 90.8404 26.7342C93.5354 26.7342 94.3899 25.091 94.3899 24.105C94.3899 21.7387 91.9578 21.5415 91.3005 21.5415H87.0938V21.8702H87.4881C87.7511 21.8702 88.2112 22.0016 88.2112 22.5932V28.6404C88.2112 29.232 87.8168 29.3635 87.4881 29.3635ZM89.9202 22.1988L90.6432 21.9359C91.2348 21.9359 92.2207 22.1988 92.2207 23.7763C92.2207 25.4196 91.432 25.9455 90.7747 25.9455C90.5775 25.9455 90.1174 25.814 89.9202 25.7483V22.1988Z" fill="#5F8D6E"/>
<path d="M76.051 21.4758C75.5909 21.3444 75.1965 21.2129 74.7364 21.2129C72.2387 21.2129 70.6611 23.4477 70.6611 25.8798C70.6611 28.3118 72.3044 29.6921 74.8022 29.6921C75.7224 29.6921 77.2342 29.6921 78.1544 27.1944L77.6286 26.9315C76.8398 28.7062 76.1825 28.9691 75.1965 28.9691C72.6988 28.9691 72.6988 26.2742 72.6988 25.5511C72.6988 22.396 74.1449 21.7387 75.0651 21.7387C76.1825 21.7387 76.8398 22.7247 76.9713 23.9736H77.5629L77.4314 21.4101L76.9713 21.4758C76.9055 21.8045 77.2999 21.8045 76.9713 21.8045C76.7741 21.8045 76.5769 21.673 76.051 21.4758Z" fill="#5F8D6E"/>
<path d="M28.7899 29.5607H28.3955V29.8236H32.1422V29.495C31.8792 29.495 31.3534 29.4293 31.3534 28.772L31.2877 26.8658C31.6163 26.8658 31.8792 26.9315 32.1422 26.9315C34.8371 26.9315 35.6916 25.2882 35.6916 24.3023C35.6916 21.936 33.2596 21.7388 32.6023 21.7388H28.3955V22.0674H28.7899C29.0528 22.0674 29.5129 22.1989 29.5129 22.7905V28.8377C29.5129 29.4293 29.1185 29.5607 28.7899 29.5607ZM31.2219 22.4618L31.945 22.1989C32.5365 22.1989 33.5225 22.4618 33.5225 24.0393C33.5225 25.6826 32.7337 26.2085 32.0764 26.2085C31.8792 26.2085 31.4191 26.077 31.2219 26.0113V22.4618Z" fill="#5F8D6E"/>
</svg>
